<?xml version="1.0" encoding="utf-8"?>
<!-- Generator: Adobe Illustrator 21.1.0, SVG Export Plug-In . SVG Version: 6.00 Build 0)  -->
<svg version="1.1" xmlns="http://www.w3.org/2000/svg" xmlns:xlink="http://www.w3.org/1999/xlink" x="0px" y="0px"
	 viewBox="0 0 656 635" style="enable-background:new 0 0 656 635;" xml:space="preserve">
<style type="text/css">
	.st0{display:none;}
	.st1{enable-background:new    ;}
	.st2{fill:#464646;}
	.st3{display:none;enable-background:new    ;}
	.st4{display:inline;}
	.st5{fill:#FFFFFF;}
	.st6{opacity:0.2;clip-path:url(#SVGID_2_);}
	.st7{fill:#1AD077;}
</style>
<g id="Background_xA0_Image_1_" class="st0">
</g>
<g id="Ellipse_1_1_" class="st1">
	<g id="Ellipse_1">
		<g>
			<path class="st2" d="M317.5,16c-165.9,0-300.3,135-300.3,301.5C17.2,484,151.6,619,317.5,619c165.9,0,300.3-135,300.3-301.5
				C617.8,151,483.3,16,317.5,16z M359,474.1c-86.3,23.1-175.1-28.4-198.4-115.1c-23.2-86.7,27.9-175.7,114.2-198.8
				c86.3-23.1,175.1,28.4,198.4,115.1C496.5,362,445.4,451,359,474.1z"/>
		</g>
	</g>
</g>
<g id="Rounded_Rectangle_1_1_" class="st3">
	<g id="Rounded_Rectangle_1" class="st4">
		<g>
			<path class="st2" d="M358,10c0-5.5-4.5-10-10-10h-60c-5.5,0-10,4.5-10,10l-3.6,20.1c0,6,4.9,10.9,10.9,10.9h65.5
				c6,0,10.9-4.9,10.9-10.9L358,10z"/>
		</g>
	</g>
	<g id="Rounded_Rectangle_1_3_" class="st4">
		<g>
			<path class="st2" d="M563.6,128.7c3.9-3.9,3.9-10.2,0-14.1l-42.4-42.4c-3.9-3.9-10.2-3.9-14.1,0l-16.8,11.7
				c-4.3,4.3-4.3,11.2,0,15.4l46.3,46.3c4.3,4.3,11.2,4.3,15.4,0L563.6,128.7z"/>
		</g>
	</g>
	<g id="Rounded_Rectangle_1_4_" class="st4">
		<g>
			<path class="st2" d="M625,358c5.5,0,10-4.5,10-10v-60c0-5.5-4.5-10-10-10l-20.1-3.6c-6,0-10.9,4.9-10.9,10.9v65.5
				c0,6,4.9,10.9,10.9,10.9L625,358z"/>
		</g>
	</g>
	<g id="Rounded_Rectangle_1_6_" class="st4">
		<g>
			<path class="st2" d="M506.3,563.6c3.9,3.9,10.2,3.9,14.1,0l42.4-42.4c3.9-3.9,3.9-10.2,0-14.1l-11.7-16.8
				c-4.3-4.3-11.2-4.3-15.4,0l-46.3,46.3c-4.3,4.3-4.3,11.2,0,15.4L506.3,563.6z"/>
		</g>
	</g>
	<g id="Rounded_Rectangle_1_8_" class="st4">
		<g>
			<path class="st2" d="M277,625c0,5.5,4.5,10,10,10l60,0c5.5,0,10-4.5,10-10l3.6-20.1c0-6-4.9-10.9-10.9-10.9h-65.5
				c-6,0-10.9,4.9-10.9,10.9L277,625z"/>
		</g>
	</g>
	<g id="Rounded_Rectangle_1_10_" class="st4">
		<g>
			<path class="st2" d="M71.4,506.3c-3.9,3.9-3.9,10.2,0,14.1l42.4,42.4c3.9,3.9,10.2,3.9,14.1,0l16.8-11.7c4.3-4.3,4.3-11.2,0-15.4
				l-46.3-46.3c-4.3-4.3-11.2-4.3-15.4,0L71.4,506.3z"/>
		</g>
	</g>
	<g id="Rounded_Rectangle_1_12_" class="st4">
		<g>
			<path class="st2" d="M10,277c-5.5,0-10,4.5-10,10l0,60c0,5.5,4.5,10,10,10l20.1,3.6c6,0,10.9-4.9,10.9-10.9l0-65.5
				c0-6-4.9-10.9-10.9-10.9L10,277z"/>
		</g>
	</g>
	<g id="Rounded_Rectangle_1_14_" class="st4">
		<g>
			<path class="st2" d="M128.7,71.4c-3.9-3.9-10.2-3.9-14.1,0l-42.4,42.4c-3.9,3.9-3.9,10.2,0,14.1l11.7,16.8
				c4.3,4.3,11.2,4.3,15.4,0l46.3-46.3c4.3-4.3,4.3-11.2,0-15.4L128.7,71.4z"/>
		</g>
	</g>
	<g id="Rounded_Rectangle_1_31_" class="st4">
		<g>
			<path class="st2" d="M470.3,47.6c2.1-5.1-0.4-10.9-5.5-13l-55.6-22.5c-5.1-2.1-10.9,0.4-13,5.5l-10.9,17.3
				c-2.3,5.6,0.4,12,6,14.2L452,73.7c5.6,2.3,12-0.4,14.2-6L470.3,47.6z"/>
		</g>
	</g>
	<g id="Rounded_Rectangle_1_29_" class="st4">
		<g>
			<path class="st2" d="M616.4,234.7c5.1-2.2,7.5-8,5.3-13.1l-23.4-55.2c-2.2-5.1-8-7.5-13.1-5.3l-20,4.5c-5.6,2.4-8.1,8.8-5.8,14.3
				l25.6,60.3c2.4,5.6,8.8,8.1,14.3,5.8L616.4,234.7z"/>
		</g>
	</g>
	<g id="Rounded_Rectangle_1_27_" class="st4">
		<g>
			<path class="st2" d="M587.4,470.3c5.1,2.1,10.9-0.4,13-5.5l22.5-55.6c2.1-5.1-0.4-10.9-5.5-13l-17.3-10.9c-5.6-2.3-12,0.4-14.2,6
				L561.3,452c-2.3,5.6,0.4,12,6,14.2L587.4,470.3z"/>
		</g>
	</g>
	<g id="Rounded_Rectangle_1_25_" class="st4">
		<g>
			<path class="st2" d="M400.3,616.4c2.2,5.1,8,7.5,13.1,5.3l55.2-23.4c5.1-2.2,7.5-8,5.3-13.1l-4.5-20c-2.4-5.6-8.8-8.1-14.3-5.8
				L394.8,585c-5.6,2.4-8.1,8.8-5.8,14.3L400.3,616.4z"/>
		</g>
	</g>
	<g id="Rounded_Rectangle_1_23_" class="st4">
		<g>
			<path class="st2" d="M164.7,587.4c-2.1,5.1,0.4,10.9,5.5,13l55.6,22.5c5.1,2.1,11-0.4,13-5.5l10.9-17.3c2.3-5.6-0.4-12-6-14.2
				L183,561.3c-5.6-2.3-12,0.4-14.2,6L164.7,587.4z"/>
		</g>
	</g>
	<g id="Rounded_Rectangle_1_21_" class="st4">
		<g>
			<path class="st2" d="M18.6,400.3c-5.1,2.2-7.5,8-5.3,13.1l23.4,55.2c2.2,5.1,8,7.5,13.1,5.3l20-4.5c5.6-2.4,8.1-8.8,5.8-14.3
				L50,394.8c-2.4-5.6-8.8-8.1-14.3-5.8L18.6,400.3z"/>
		</g>
	</g>
	<g id="Rounded_Rectangle_1_19_" class="st4">
		<g>
			<path class="st2" d="M47.6,164.7c-5.1-2.1-10.9,0.4-13,5.5l-22.5,55.6c-2.1,5.1,0.4,10.9,5.5,13l17.3,10.9c5.6,2.3,12-0.4,14.2-6
				L73.7,183c2.3-5.6-0.4-12-6-14.2L47.6,164.7z"/>
		</g>
	</g>
	<g id="Rounded_Rectangle_1_16_" class="st4">
		<g>
			<path class="st2" d="M234.7,18.6c-2.2-5.1-8-7.5-13.1-5.3l-55.2,23.4c-5.1,2.2-7.5,8-5.3,13.1l4.5,20c2.4,5.6,8.8,8.1,14.3,5.8
				L240.2,50c5.6-2.4,8.1-8.8,5.8-14.3L234.7,18.6z"/>
		</g>
	</g>
</g>
<g id="Layer_6">
	
		<rect x="72.4" y="279.1" transform="matrix(6.604786e-03 -1 1 6.604786e-03 -238.8674 391.351)" class="st5" width="10.3" height="73.6"/>
	
		<rect x="79.8" y="221.5" transform="matrix(0.2465 -0.9691 0.9691 0.2465 -186.3633 276.9723)" class="st5" width="10.3" height="73.6"/>
	
		<rect x="100.8" y="167.4" transform="matrix(0.4719 -0.8816 0.8816 0.4719 -124.1141 201.2544)" class="st5" width="10.3" height="73.6"/>
	
		<rect x="134.2" y="120" transform="matrix(0.6697 -0.7426 0.7426 0.6697 -70.3934 155.235)" class="st5" width="10.3" height="73.6"/>
	
		<rect x="178" y="81.9" transform="matrix(0.8285 -0.5601 0.5601 0.8285 -35.0534 122.9216)" class="st5" width="10.3" height="73.6"/>
	
		<rect x="229.6" y="55.4" transform="matrix(0.9387 -0.3447 0.3447 0.9387 -17.4038 86.5747)" class="st5" width="10.3" height="73.6"/>
	
		<rect x="286.2" y="42.2" transform="matrix(0.994 -0.1094 0.1094 0.994 -6.8887 32.3293)" class="st5" width="10.3" height="73.6"/>
	
		<rect x="312.5" y="74.5" transform="matrix(0.1327 -0.9912 0.9912 0.1327 224.0393 415.3203)" class="st5" width="73.6" height="10.3"/>
	
		<rect x="368.7" y="89.1" transform="matrix(0.3667 -0.9304 0.9304 0.3667 169.1356 436.9459)" class="st5" width="73.6" height="10.3"/>
	
		<rect x="419.7" y="116.8" transform="matrix(0.5792 -0.8152 0.8152 0.5792 92.7372 423.4521)" class="st5" width="73.6" height="10.3"/>
</g>
<g id="Group_1_1_">
	<g id="Group_2_1_">
		<defs>
			<path id="SVGID_1_" d="M607.6,239.8C564.5,78.9,399.6-16.7,239.4,26.2c-160.2,42.9-255.1,208.1-212,369
				c43.1,160.9,207.9,256.5,368.2,213.5C555.8,565.8,650.7,400.6,607.6,239.8z"/>
		</defs>
		<clipPath id="SVGID_2_">
			<use xlink:href="#SVGID_1_"  style="overflow:visible;"/>
		</clipPath>
		<g id="Rectangle_2" class="st6">
			<g>
				<rect x="303.4" y="279.9" transform="matrix(0.9658 -0.2591 0.2591 0.9658 -64.8615 134.6573)" width="349.9" height="66.9"/>
			</g>
		</g>
	</g>
	<g id="Rectangle_2_1_">
		<g>
			
				<rect x="248.9" y="224.1" transform="matrix(0.707 -0.7072 0.7072 0.707 -63.7758 361.1514)" class="st7" width="310.1" height="66.8"/>
		</g>
	</g>
	<g id="Rectangle_2_2_">
		<g>
			
				<rect x="244.9" y="214.4" transform="matrix(0.7069 -0.7073 0.7073 0.7069 -133.3852 285.9061)" class="st7" width="66.8" height="179"/>
		</g>
	</g>
</g>
</svg>
