<?xml version="1.0" encoding="utf-8"?>
<!-- Generator: Adobe Illustrator 21.1.0, SVG Export Plug-In . SVG Version: 6.00 Build 0)  -->
<svg version="1.0" id="Capa_1" xmlns="http://www.w3.org/2000/svg" xmlns:xlink="http://www.w3.org/1999/xlink" x="0px" y="0px"
	 viewBox="0 0 512 512" style="enable-background:new 0 0 512 512;" xml:space="preserve">
<style type="text/css">
	.st0{fill:#A6E6FD;}
	.st1{fill:#8DD0E2;}
</style>
<g>
	<path class="st0" d="M317.2,223.8C317.2,223.7,317.2,223.7,317.2,223.8c0-31.8-27.4-57.5-61.2-57.5s-61.2,25.7-61.2,57.4
		c0,0,0,0,0,0.1c-30.8,1.1-55.7,25.1-55.7,54.3c0,29.9,26,54.3,57.9,54.3h39.4v-54.7h-26.2c-2.6,0-4.9-1.5-6-3.8s-0.7-5.1,1-7
		l45.8-52.4c1.2-1.4,3-2.2,4.9-2.2s3.7,0.8,4.9,2.2l45.8,52.4c1.7,1.9,2.1,4.7,1,7s-3.4,3.8-6,3.8h-26.2v54.7H315
		c31.8,0,57.9-24.4,57.9-54.3C372.9,248.8,348,224.8,317.2,223.8z"/>
	<g>
		<path class="st1" d="M236.4,304.6H175c-12.3,0-23.7-3.6-33-9.8c2.9,8.2,7.8,15.6,14.2,21.6c10.5,9.9,25,16,40.9,16h39.4v-27.8
			H236.4z"/>
		<path class="st1" d="M356.6,240.3c-2.6-2.5-5.5-4.8-8.5-6.8c1.8,5.3,2.8,10.9,2.8,16.8c0,29.9-26,54.3-57.9,54.3h-17.4v27.8H315
			c31.8,0,57.9-24.4,57.9-54.3C372.9,263.4,366.7,250.1,356.6,240.3z"/>
	</g>
</g>
</svg>
