<?xml version="1.0" encoding="UTF-8"?>
<svg width="102px" height="84px" viewBox="0 0 102 84" version="1.1" xmlns="http://www.w3.org/2000/svg" xmlns:xlink="http://www.w3.org/1999/xlink">
    <!-- Generator: Sketch 49.1 (51147) - http://www.bohemiancoding.com/sketch -->
    <title>Group 9</title>
    <desc>Created with Sketch.</desc>
    <defs></defs>
    <g id="Sidebar-+-Homepage" stroke="none" stroke-width="1" fill="none" fill-rule="evenodd">
        <g id="Homepage--&gt;-Organisation-Copy-2" transform="translate(-529.000000, -206.000000)" fill-rule="nonzero">
            <g id="Group-9" transform="translate(530.000000, 206.000000)">
                <g id="Guage">
                    <g id="Group">
                        <path d="M8.57647059,35.5797101 L8.57647059,4.56521739 C8.57647059,2.17391304 6.67058824,0.253623188 4.37647059,0.253623188 C2.04705882,0.253623188 0.176470588,2.21014493 0.176470588,4.56521739 L0.176470588,35.5797101 L8.57647059,35.5797101 Z" id="Shape" fill="#ABC66A"></path>
                        <path d="M0.176470588,63.1884058 L0.176470588,79.0217391 C0.176470588,81.4130435 2.08235294,83.3333333 4.37647059,83.3333333 C6.70588235,83.3333333 8.57647059,81.3768116 8.57647059,79.0217391 L8.57647059,63.1884058 L0.176470588,63.1884058 Z" id="Shape" fill="#DB6E6E"></path>
                        <rect id="Rectangle-path" fill="#FFE669" transform="translate(4.375059, 49.379420) rotate(90.000000) translate(-4.375059, -49.379420) " x="-9.072" y="45.0678261" width="26.8941176" height="8.62318841"></rect>
                    </g>
                    <path d="M15.5562789,35.2941176 L1.10852344,35.2941176 C0.480360157,35.2941176 0,35.7932264 0,36.3636364 L0,42.0677362 C0,42.6737968 0.517310938,43.1372549 1.10852344,43.1372549 L15.5562789,43.1372549 C16.1844422,43.1372549 16.6648024,42.6381462 16.6648024,42.0677362 L16.6648024,36.3636364 C16.7017531,35.7932264 16.1844422,35.2941176 15.5562789,35.2941176 Z" id="Shape" stroke="#979797" stroke-width="0.5" fill="#BDC3C7"></path>
                </g>
                <circle id="Oval" fill="#424242" cx="42.5080639" cy="15.0570835" r="15.0570835"></circle>
                <circle id="Oval-Copy" fill="#424242" cx="83.6845345" cy="15.0570835" r="15.0570835"></circle>
                <circle id="Oval" fill="#7CCF7F" cx="42.4027035" cy="14.9517231" r="11.0301545"></circle>
                <circle id="Oval-Copy-2" fill="#DC6141" cx="83.5791741" cy="14.9517231" r="11.0301545"></circle>
                <g id="signature" transform="translate(23.529412, 55.882353)">
                    <path d="M69.8215894,0 L6.6502339,0 C2.9929449,0 0.000617532169,2.94117647 0.000617532169,6.53594771 L0.000617532169,19.9346405 C0.000617532169,23.5294118 2.9929449,26.4705882 6.6502339,26.4705882 L69.8215894,26.4705882 C73.4788784,26.4705882 76.4712058,23.5294118 76.4712058,19.9346405 L76.4712058,6.53594771 C76.4712058,2.94117647 73.4788784,0 69.8215894,0 Z" id="Shape" stroke="#979797" stroke-width="0.5" fill="#BDC3C7"></path>
                    <g id="Layer_1_13_" transform="translate(8.823529, 4.901961)" fill="#000000">
                        <path d="M18.3034953,14.379085 C18.4697357,15.3594771 19.6334186,15.6862745 20.2983802,15.8496732 C20.9633419,16.1764706 21.7945439,15.5228758 22.4595055,15.3594771 C26.1167945,13.5620915 30.9377664,15.6862745 34.9275362,15.6862745 C37.254902,15.6862745 37.254902,12.254902 34.9275362,12.254902 C30.4390452,12.254902 26.6155158,11.1111111 22.1270247,11.9281046 C22.1270247,11.6013072 21.9607843,11.2745098 21.7945439,10.7843137 C20.9633419,9.31372549 19.9658994,8.9869281 18.8022165,9.1503268 C18.8022165,8.9869281 18.6359761,8.82352941 18.6359761,8.66013072 C18.3034953,8.16993464 17.9710145,8.00653595 17.4722933,7.84313725 C18.8022165,5.71895425 19.4671782,3.43137255 18.6359761,1.63398693 C18.3034953,1.14379085 17.6385337,0.816993464 17.1398124,0.816993464 C14.8124467,0.653594771 12.6513214,3.10457516 11.1551577,4.5751634 C7.3316283,8.16993464 4.00682012,12.4183007 0.682011935,16.503268 C-0.647911338,18.3006536 2.34441603,20.0980392 3.6743393,18.3006536 C6.50042626,14.5424837 9.65899403,11.1111111 12.9838022,7.67973856 C12.1526002,8.9869281 11.3213981,10.2941176 10.4901961,11.4379085 C9.1602728,13.3986928 12.3188406,15.0326797 13.4825234,13.2352941 C13.8150043,12.745098 14.1474851,12.4183007 14.6462063,12.0915033 C14.4799659,12.254902 14.4799659,12.5816993 14.3137255,12.745098 C14.3137255,12.745098 14.3137255,12.745098 14.3137255,12.745098 C14.3137255,12.9084967 14.1474851,13.0718954 14.1474851,13.2352941 C13.316283,15.1960784 16.3086104,16.0130719 17.4722933,14.5424837 C17.8047741,14.2156863 17.9710145,13.7254902 18.3034953,13.3986928 C18.3034953,13.5620915 18.3034953,14.0522876 18.3034953,14.379085 Z" id="Shape"></path>
                    </g>
                </g>
            </g>
        </g>
    </g>
</svg>