<?xml version="1.0" encoding="UTF-8"?>
<svg width="89px" height="90px" viewBox="0 0 89 90" version="1.1" xmlns="http://www.w3.org/2000/svg" xmlns:xlink="http://www.w3.org/1999/xlink">
    <!-- Generator: Sketch 49.1 (51147) - http://www.bohemiancoding.com/sketch -->
    <title>Setting</title>
    <desc>Created with Sketch.</desc>
    <defs></defs>
    <g id="Sidebar-+-Homepage" stroke="none" stroke-width="1" fill="none" fill-rule="evenodd">
        <g id="Homepage-Mouseover-Organisation" transform="translate(-543.000000, -433.000000)">
            <g id="Group-2" transform="translate(61.000000, 124.000000)">
                <g id="Setting" transform="translate(481.000000, 309.000000)">
                    <rect id="Rectangle-path" x="0" y="0" width="90" height="90"></rect>
                    <rect id="Rectangle-path" x="0" y="0" width="90" height="90"></rect>
                    <rect id="Rectangle-path" x="0" y="0" width="90" height="90"></rect>
                    <g id="_340356952" transform="translate(1.058824, 25.411765)">
                        <path d="M37.1112885,58.1361679 L38.6398242,61.4449451 C39.5905315,63.517388 42.0526794,64.4240658 44.123342,63.4705674 L48.3288238,61.5385805 C50.3992764,60.5848081 51.3070533,58.1252205 50.3562759,56.0563626 L48.8238136,52.7442161 C50.8302497,51.1195014 52.5590382,49.2379784 53.9839293,47.1581731 L57.41133,48.4275535 C59.4817826,49.1950226 61.9576474,48.0550082 62.7255998,45.9861473 L64.325731,41.6442149 C64.7098455,40.6080284 64.6666379,39.4863965 64.2036196,38.4858094 C63.7406701,37.481847 62.9120766,36.718301 61.8823931,36.3420396 L58.4485161,35.0727292 C58.7203731,32.573555 58.6313393,30.0174465 58.1571572,27.4823874 L61.4762282,25.9588162 C63.5468908,25.0051138 64.4554262,22.546284 63.5007864,20.4813491 L61.5662958,16.2760138 C60.6119361,14.2107991 58.1498524,13.2994405 56.0793998,14.2532128 L52.7639812,15.780369 C51.1388315,13.7731963 49.2547863,12.0485797 47.1768188,10.6286295 L48.4436934,7.20171065 C48.8274631,6.1654542 48.7842555,5.04286054 48.321306,4.03965602 C47.8622155,3.03934281 47.0336196,2.27572683 46.0000795,1.89196312 L41.657603,0.289626938 C40.6204105,-0.0904917318 39.4978354,-0.0480803451 38.4966186,0.410870947 C37.4914693,0.873402573 36.7271693,1.69842693 36.3469856,2.73468337 L35.0765286,6.1654612 C34.1758524,6.06728184 33.2680755,6.01612655 32.356442,6.01275258 L32.2973843,15.9529658 C38.6904863,15.9763058 44.4932754,19.6987318 47.1484528,25.4567788 C50.9193089,33.6389074 47.3273476,43.3613022 39.1387531,47.1298042 C36.9781629,48.1252325 34.6809863,48.6299709 32.3161467,48.6312766 L32.2974027,58.573016 C33.9028927,58.5741203 35.5090918,58.4301557 37.1112885,58.1361679 Z" id="_340357144" fill="#F9A825"></path>
                        <path d="M2.71288092,28.2468603 L6.14682793,29.5114898 C5.87393709,32.014313 5.96400472,34.5631233 6.43432784,37.1018315 L3.11808662,38.6254027 C1.04735396,39.575252 0.139927174,42.0384829 1.09428691,44.1109958 L3.028019,48.308963 C3.98341144,50.3778267 6.44081,51.2881536 8.51153683,50.3346552 L11.8303277,48.8038499 C13.4565101,50.8110226 15.3404912,52.5356392 17.4148705,53.9590345 L16.1479958,57.387195 C15.3615714,59.5236666 16.4565829,61.9036614 18.5952598,62.6930194 L22.9366336,64.2990047 C25.0073663,65.0589658 27.4840538,63.9191612 28.2482896,61.8540194 L29.5141315,58.4224197 C30.4365822,58.5214944 31.3652408,58.5718925 32.2974118,58.5728561 L32.2974118,48.6310478 C25.934858,48.6275365 20.1042966,44.9002961 17.4432846,39.1309228 C13.6750483,30.9424404 17.2670083,21.2226688 25.4529259,17.4515436 C27.6236508,16.4585228 29.9204072,15.9527584 32.288485,15.9527584 L32.2974435,15.9528273 L32.2974435,6.01247633 C30.6974465,6.0102043 29.0858095,6.15520176 27.4804389,6.4515306 L25.9554914,3.13931416 C25.000099,1.07052033 22.539048,0.159913656 20.4683912,1.11369186 L16.2665618,3.04932782 C14.1921767,4.00282622 13.2875739,6.45903869 14.2429663,8.53127178 L15.7676396,11.8436981 C13.7614776,13.468203 12.0316565,15.3471085 10.610622,17.4229266 L7.1803974,16.1538902 C6.14320486,15.7737715 5.01980716,15.8169401 4.01569056,16.2785082 C3.01419367,16.7410398 2.24996373,17.5663381 1.86977416,18.5988755 L0.265716292,22.9400502 C-0.524354775,25.0731466 0.574509902,27.4575484 2.71291027,28.2469122 L2.71288092,28.2468603 Z" id="_340356928" fill="#FFB74D"></path>
                    </g>
                    <g id="_340356616" transform="translate(54.000000, 3.176471)">
                        <path d="M20.683698,32.7768938 L21.5358086,34.6434242 C22.065815,35.8125385 23.4383767,36.3239952 24.5927833,35.7860702 L26.9372647,34.6962126 C28.0914661,34.1582164 28.5975796,32.7707288 28.0675017,31.6036478 L27.2131747,29.7352264 C28.3317784,28.8187313 29.2955254,27.7572982 30.08988,26.5840581 L32.000616,27.300171 C33.1548174,27.7330742 34.5350651,27.0899858 34.9631931,25.9229031 L35.855264,23.4735673 C36.0693995,22.8890813 36.0452991,22.2563538 35.7871868,21.6918953 C35.5290745,21.1255435 35.0671471,20.6948099 34.4930925,20.4825956 L32.5788208,19.7665538 C32.7303499,18.3567297 32.6806943,16.9147702 32.4163491,15.4847792 L34.2666962,14.6252753 C35.4210325,14.0872792 35.9275623,12.7002124 35.3953384,11.5353723 L34.3169059,9.16312338 C33.7848907,7.9980698 32.4122622,7.48402257 31.2580607,8.02201868 L29.4097893,8.88348468 C28.5037984,7.75127188 27.4534817,6.77834283 26.2949881,5.97736553 L27.0012485,4.04418136 C27.2152457,3.45962544 27.1911453,2.82633948 26.9330324,2.26040499 C26.6771359,1.69615344 26.2152091,1.26535287 25.6390084,1.0488645 L23.2181424,0.144972239 C22.6399346,-0.0694140759 22.0141476,-0.0455387055 21.4559539,0.213377108 C20.8956136,0.47432324 20.469556,0.939715719 20.2575705,1.52426986 L19.5493048,3.45962959 C19.0472079,3.40424763 18.5411648,3.37540127 18.0329052,3.37351085 L18.0000092,8.98088178 C21.5640673,8.99404462 24.7990129,11.0939389 26.2792109,14.3420764 C28.3813687,18.9577542 26.3789378,24.4422189 21.8139431,26.5680966 C20.6094674,27.1296178 19.3288065,27.4143693 18.0104722,27.4150688 L18.0000148,33.0233504 C18.8950531,33.0239769 19.7904486,32.9427594 20.683698,32.7768938 Z" id="_340356808" fill="#5A9EE1"></path>
                        <path d="M3.42151231,16.2373578 C3.2693597,17.6496472 3.31956945,19.0878543 3.58176779,20.5203158 L1.73300751,21.3799717 C0.578599507,21.9159362 0.0727610194,23.3058192 0.604774486,24.4753024 L1.68279776,26.8440405 C2.21543687,28.0113534 3.58536803,28.525048 4.73977603,27.9870544 L6.58992012,27.1232656 C7.49653364,28.2558437 8.54678704,29.2289543 9.70327075,30.0320964 L8.99700957,31.9664883 C8.55855757,33.1720404 9.16903851,34.5149312 10.361263,34.9603418 L12.7815103,35.8665738 C13.9359183,36.2953879 15.3166543,35.6522018 15.7427072,34.4869203 L16.4483468,32.5506428 C16.962633,32.6065294 17.4803118,32.634963 18,32.6355233 L18,27.025785 C14.4529738,27.023754 11.2025974,24.9206537 9.71905548,21.6652271 C7.61834931,17.0447809 9.62078263,11.5603266 14.1842581,9.43247353 C15.394417,8.87213712 16.6747979,8.58675186 17.9950042,8.58675186 L17.9999906,2.97785439 C17.1079891,2.97659378 16.2095435,3.05839273 15.3145633,3.22563192 L14.4644629,1.35665402 C13.9318238,0.189341094 12.5598873,-0.324495749 11.4054793,0.213711255 L9.06307086,1.30587989 C7.90658715,1.84394577 7.40233769,3.22983592 7.9349082,4.39911151 L8.78487376,6.26823171 C7.66647981,7.18482846 6.70217462,8.24506092 5.90996522,9.41629916 L3.99770247,8.70027892 C3.41942485,8.48576695 2.79315507,8.5101383 2.23336587,8.77059247 C1.67510296,9.03153642 1.24904832,9.49725612 1.03705679,10.0798631 L0.142838859,12.5294141 C-0.297621992,13.7330036 0.315006185,15.0784144 1.50709232,15.523825 L3.42151231,16.2373578 Z" id="_340356592" fill="#70A7DE"></path>
                    </g>
                    <g id="_340356304" transform="translate(25.411765, 0.000000)">
                        <path d="M12.7240851,23.0527359 L12.7277038,23.0527359 C13.354233,23.0531616 13.984667,22.9966106 14.6135451,22.881096 L15.2135397,24.1809888 C15.5866913,24.9951986 16.5530941,25.3513898 17.3658861,24.9768216 L19.0165815,24.2178149 C19.8292293,23.8431019 20.1855647,22.8768366 19.8123422,22.0640507 L19.2108584,20.7628061 C19.9983888,20.1244962 20.6769309,19.3852902 21.2362661,18.5682449 L22.5814977,19.0669156 C23.3942175,19.368474 24.3660103,18.920607 24.6674311,18.1078168 L25.2955222,16.4019905 C25.4462302,15.9949223 25.4292722,15.5542949 25.2475567,15.1611995 C25.0658409,14.7667615 24.7405841,14.4667615 24.3364278,14.3189647 L22.988637,13.820294 C23.0953532,12.8384927 23.0603727,11.8342654 22.8742576,10.8383465 L24.1770581,10.2397709 C24.989778,9.86512881 25.3463958,8.89914713 24.9716834,8.08785101 L24.2123943,6.43573787 C23.8378237,5.62436966 22.8714161,5.26632811 22.0587022,5.6410405 L20.7573916,6.24103509 C20.1195082,5.45251344 19.3800138,4.7749625 18.5643863,4.2171172 L19.0616381,2.87075024 C19.2122752,2.463682 19.1953172,2.02262809 19.0136016,1.62854148 C18.8333763,1.2355224 18.5081898,0.935527209 18.1024727,0.784744731 L16.3980642,0.155235845 C15.9909251,0.00594683354 15.5502965,0.0226212766 15.1573453,0.202917507 C14.7627649,0.384633252 14.4627691,0.708755204 14.3135485,1.11582464 L13.8148778,2.46368146 C13.4613803,2.42508201 13.1050425,2.40500179 12.7472172,2.40365365 L12.7240859,2.40365365 L12.7240859,6.30887117 L12.7435275,6.30901308 C15.2334059,6.31802434 17.5110569,7.78040232 18.5532457,10.042518 C20.0333638,13.256986 18.62342,17.0765305 15.4093778,18.5570812 C14.5613278,18.9481136 13.6596307,19.1464323 12.7313984,19.1469291 L12.7277797,19.1469291 L12.72409,19.1469291 L12.72409,23.0527113 L12.7240851,23.0527359 Z" id="_340356472" fill="#2CCE7A"></path>
                        <path d="M2.45972666,11.63565 C2.35265602,12.618869 2.38799099,13.6201886 2.57261617,14.6175974 L1.27095109,15.216173 C0.458165106,15.5893247 0.10196786,16.5570071 0.476542078,17.3712168 L1.23561492,19.0204944 C1.61061146,19.8332804 2.57510328,20.1908954 3.38788926,19.8162551 L4.69055159,19.2149094 C5.32886148,20.0034311 6.06835584,20.680982 6.8825596,21.240173 L6.38530783,22.5869665 C6.07665402,23.4262937 6.50642763,24.3613325 7.34589657,24.6714822 L9.04987855,25.3024148 C9.86266453,25.600922 10.8348177,25.1531258 11.1348147,24.3418261 L11.6316412,22.9936809 C11.993724,23.0326352 12.3582194,23.0524316 12.7241308,23.0527863 L12.7241308,19.1470041 C10.226731,19.145585 7.93815229,17.6812859 6.89369872,15.4147067 C5.4146439,12.1977515 6.82451745,8.37925241 10.0375666,6.89768044 C10.8895936,6.5075702 11.7910744,6.30882557 12.7205863,6.30882557 L12.7241341,2.403679 C12.0961151,2.40275659 11.4634763,2.45973339 10.8333967,2.57617022 L10.234821,1.27485958 C9.85982449,0.462139681 8.89384282,0.104386489 8.08105683,0.47909888 L6.43185133,1.23952341 C5.61757548,1.61409402 5.26251365,2.57907785 5.6375084,3.39321553 L6.23601313,4.69452616 C5.44855481,5.33276396 4.76958609,6.07090664 4.21181288,6.886396 L2.86544592,6.38786704 C2.4583068,6.23850714 2.01739586,6.25546514 1.62323716,6.4368259 C1.2301472,6.61854164 0.930150801,6.94273448 0.780930275,7.34838134 L0.151349299,9.05385318 C-0.158794381,9.89190074 0.272539987,10.8286457 1.11186594,11.1387894 L2.45972666,11.63565 Z" id="_340356376" fill="#50D28F"></path>
                    </g>
                </g>
            </g>
        </g>
    </g>
</svg>