<?xml version="1.0" encoding="UTF-8"?>
<svg width="100px" height="104px" viewBox="0 0 100 104" version="1.1" xmlns="http://www.w3.org/2000/svg" xmlns:xlink="http://www.w3.org/1999/xlink">
    <!-- Generator: Sketch 49.1 (51147) - http://www.bohemiancoding.com/sketch -->
    <title>online-store</title>
    <desc>Created with Sketch.</desc>
    <defs></defs>
    <g id="Sidebar-+-Homepage" stroke="none" stroke-width="1" fill="none" fill-rule="evenodd">
        <g id="Homepage--&gt;-Organisation-Copy-2" transform="translate(-325.000000, -184.000000)" fill-rule="nonzero">
            <g id="online-store" transform="translate(325.000000, 188.000000)">
                <path d="M96.3896392,23.6332728 C95.4341038,23.6332728 94.6735756,24.3913958 94.6735756,25.3439093 L94.6735756,39.067879 L87.7898206,39.067879 L87.7898206,24.2747615 C87.7898206,23.322248 87.0292924,22.564125 86.073757,22.564125 C85.1182216,22.564125 84.3576935,23.322248 84.3576935,24.2747615 L84.3576935,39.067879 L77.083924,39.067879 L77.083924,23.0501013 C77.083924,22.0975878 76.3233958,21.3394648 75.3678604,21.3394648 C74.412325,21.3394648 73.6517969,22.0975878 73.6517969,23.0501013 L73.6517969,39.067879 L66.3000245,39.067879 L66.3000245,21.6310506 C66.3000245,20.6785371 65.5394964,19.9204141 64.583961,19.9204141 C63.6284256,19.9204141 62.8678974,20.6785371 62.8678974,21.6310506 L62.8678974,39.087318 L55.9061395,39.087318 L55.1261106,20.2314389 C55.0871092,19.2789255 54.2290774,18.5596806 53.3320441,18.5791196 C52.3765088,18.6179977 51.6354813,19.4149988 51.6744827,20.3675123 L52.4545116,39.087318 L45.2002429,39.087318 L42.5091432,18.345851 C42.3921389,17.4127766 41.5341071,16.7518489 40.5785717,16.8684832 C39.642537,16.9851175 38.9600118,17.8404357 39.0965168,18.7929492 L41.6901129,39.087318 L33.6363145,39.087318 L28.8391368,16.9656784 C28.6441296,16.032604 27.7275957,15.4494325 26.791561,15.643823 C25.8555263,15.8382135 25.2705046,16.7518489 25.4655119,17.6849233 L30.0871831,39.067879 L22.0333847,39.067879 L12.5755344,7.9265199 C12.0295141,6.09924914 10.5084578,4.7385156 8.63638844,4.36917364 L2.064645,3.06675725 C1.12861032,2.87236674 0.231577094,3.47497731 0.0365698703,4.40805174 C-0.158437354,5.34112617 0.44608504,6.2353225 1.38211971,6.429713 L7.97336388,7.75156845 C8.597387,7.86820275 9.10440578,8.33473996 9.27991228,8.93735053 L25.6800198,62.9195941 L16.7096875,79.5399824 C15.832155,81.1534236 15.8906572,83.0584505 16.8266918,84.6135746 C17.7627265,86.1881377 19.4202879,87.1212121 21.2533558,87.1212121 L92.957512,87.1212121 C93.9130474,87.1212121 94.6735756,86.3630891 94.6735756,85.4105757 C94.6735756,84.4580622 93.9130474,83.6999392 92.957512,83.6999392 L21.2533558,83.6999392 C20.3758233,83.6999392 19.9273067,83.1167677 19.7713009,82.86406 C19.6152951,82.6113524 19.3227843,81.9504247 19.7322995,81.1728626 L28.6051282,64.7468649 L93.3280258,59.9065413 C95.9996247,59.7121507 98.1057027,57.4572209 98.1057027,54.7746319 L98.1057027,25.3439093 C98.1252035,24.3913958 97.3451746,23.6332728 96.3896392,23.6332728 Z M28.7806347,61.2867138 L23.066923,42.508591 L30.8282105,42.508591 L34.7868572,60.8396157 L28.7806347,61.2867138 Z M38.2774865,60.567469 L34.377342,42.508591 L42.1191288,42.508591 L44.3617119,60.1203708 L38.2774865,60.567469 Z M47.8133397,59.8482241 L45.6097581,42.4891519 L52.571516,42.4891519 L53.273542,59.440004 L47.8133397,59.8482241 Z M62.828896,58.7401982 L56.7056691,59.2067354 L56.0036431,42.508591 L62.828896,42.508591 L62.828896,58.7401982 Z M73.6322962,57.9237581 L66.2805238,58.4680515 L66.2805238,42.4891519 L73.6322962,42.4891519 L73.6322962,57.9237581 Z M84.3576935,57.126757 L77.083924,57.6710504 L77.083924,42.508591 L84.3576935,42.508591 L84.3576935,57.126757 Z M94.6735756,54.7551928 C94.6735756,55.6493892 93.9715496,56.4075121 93.0745164,56.4658293 L87.7898206,56.8546103 L87.7898206,42.4891519 L94.6735756,42.4891519 L94.6735756,54.7551928 Z" id="Shape" fill="#A2AAC2"></path>
                <g id="Group" transform="translate(20.454545, 88.636364)" fill="#5B5D6E">
                    <ellipse id="Oval" cx="5.32889378" cy="5.24410774" rx="5.15385712" ry="5.20482604"></ellipse>
                    <ellipse id="Oval" cx="67.1362822" cy="5.24410774" rx="5.15385712" ry="5.20482604"></ellipse>
                </g>
                <g id="Group" transform="translate(22.348485, 87.121212)" fill="#C7CFE2">
                    <path d="M3.58329053,8.61531987 C2.59009587,8.61531987 1.71374765,7.91835017 1.5190036,6.93097643 L0.136320835,0.0580808081 L7.01078582,0.0580808081 L5.62810306,6.93097643 C5.45283342,7.91835017 4.57648519,8.61531987 3.58329053,8.61531987 Z" id="Shape"></path>
                    <path d="M65.4729498,8.61531987 C64.4797552,8.61531987 63.603407,7.91835017 63.4086629,6.93097643 L62.0259801,0.0580808081 L68.9004451,0.0580808081 L67.5177624,6.93097643 C67.3424927,7.91835017 66.4661445,8.61531987 65.4729498,8.61531987 Z" id="Shape"></path>
                </g>
                <path d="M98.4696488,23.4703417 L14.3939394,13.2575758 L15.4858317,16.8359123 L98.0601892,26.874597 C98.1381815,26.8939394 98.1966758,26.8939394 98.2746681,26.8939394 C99.1325835,26.8939394 99.8735104,26.2556415 99.9904989,25.3852353 C100.087989,24.4374597 99.4250546,23.5863959 98.4696488,23.4703417 Z" id="Shape" fill="#959CB3"></path>
                <path d="M68.7929755,24.611172 C68.520793,24.005659 67.9181032,23.6150055 67.2570886,23.6150055 L60.5302927,23.6150055 L60.5302927,1.67981015 C60.5302927,0.742241694 59.7720701,0 58.8583146,0 L52.1315187,0 C51.1983216,0 50.4595406,0.76177437 50.4595406,1.67981015 L50.4595406,23.6345382 L43.7327447,23.6345382 C43.0717301,23.6345382 42.4690403,24.0251917 42.1968578,24.6307046 C41.9246753,25.2362176 42.0218834,25.9393939 42.4690403,26.4472435 L54.2312122,39.9443227 C54.5422779,40.3154436 55.0088765,40.530303 55.4949167,40.530303 C55.9809568,40.530303 56.4475554,40.3154436 56.7586211,39.9443227 L68.520793,26.4472435 C68.9485083,25.9198613 69.065158,25.2166849 68.7929755,24.611172 Z" id="Shape" stroke="#FFFFFF" stroke-width="6.34600019" fill="#7CCF7F"></path>
                <path d="M68.7929755,24.611172 C68.520793,24.005659 67.9181032,23.6150055 67.2570886,23.6150055 L60.5302927,23.6150055 L60.5302927,1.67981015 C60.5302927,0.742241694 59.7720701,0 58.8583146,0 L52.1315187,0 C51.1983216,0 50.4595406,0.76177437 50.4595406,1.67981015 L50.4595406,23.6345382 L43.7327447,23.6345382 C43.0717301,23.6345382 42.4690403,24.0251917 42.1968578,24.6307046 C41.9246753,25.2362176 42.0218834,25.9393939 42.4690403,26.4472435 L54.2312122,39.9443227 C54.5422779,40.3154436 55.0088765,40.530303 55.4949167,40.530303 C55.9809568,40.530303 56.4475554,40.3154436 56.7586211,39.9443227 L68.520793,26.4472435 C68.9485083,25.9198613 69.065158,25.2166849 68.7929755,24.611172 Z" id="Shape" fill="#7CCF7F"></path>
                <path d="M73.6001063,39.2045455 L73.6001063,45.0494529 C73.6001063,46.2068603 72.6675256,47.1327862 71.5017997,47.1327862 L38.7449018,47.1327862 C37.5791759,47.1327862 36.6465951,46.2068603 36.6465951,45.0494529 L36.6465951,39.2045455 C36.6465951,38.047138 35.7140144,37.1212121 34.5482885,37.1212121 L32.0225491,37.1212121 C30.8568231,37.1212121 29.9242424,38.047138 29.9242424,39.2045455 L29.9242424,50.4506874 C29.9242424,52.3025393 31.4202573,53.7878788 33.2854188,53.7878788 L78.2047237,53.7878788 C79.3704496,53.7878788 80.3030303,52.8619529 80.3030303,51.7045455 L80.3030303,39.2045455 C80.3030303,38.047138 79.3704496,37.1212121 78.2047237,37.1212121 L75.6789842,37.1212121 C74.5326871,37.1212121 73.6001063,38.047138 73.6001063,39.2045455 Z" id="Shape" stroke="#FFFFFF" stroke-width="7.34599972" fill="#7CCF7F"></path>
                <path d="M73.6001063,39.2045455 L73.6001063,45.0494529 C73.6001063,46.2068603 72.6675256,47.1327862 71.5017997,47.1327862 L38.7449018,47.1327862 C37.5791759,47.1327862 36.6465951,46.2068603 36.6465951,45.0494529 L36.6465951,39.2045455 C36.6465951,38.047138 35.7140144,37.1212121 34.5482885,37.1212121 L32.0225491,37.1212121 C30.8568231,37.1212121 29.9242424,38.047138 29.9242424,39.2045455 L29.9242424,50.4506874 C29.9242424,52.3025393 31.4202573,53.7878788 33.2854188,53.7878788 L78.2047237,53.7878788 C79.3704496,53.7878788 80.3030303,52.8619529 80.3030303,51.7045455 L80.3030303,39.2045455 C80.3030303,38.047138 79.3704496,37.1212121 78.2047237,37.1212121 L75.6789842,37.1212121 C74.5326871,37.1212121 73.6001063,38.047138 73.6001063,39.2045455 Z" id="Shape" fill="#7CCF7F"></path>
            </g>
        </g>
    </g>
</svg>