<?xml version="1.0" encoding="UTF-8"?>
<svg width="100px" height="57px" viewBox="0 0 100 57" version="1.1" xmlns="http://www.w3.org/2000/svg" xmlns:xlink="http://www.w3.org/1999/xlink">
    <!-- Generator: Sketch 49.1 (51147) - http://www.bohemiancoding.com/sketch -->
    <title>tables and items</title>
    <desc>Created with Sketch.</desc>
    <defs></defs>
    <g id="Sidebar-+-Homepage" stroke="none" stroke-width="1" fill="none" fill-rule="evenodd">
        <g id="Homepage--&gt;-Organisation-Copy-2" transform="translate(-110.000000, -504.000000)" fill-rule="nonzero">
            <g id="Group-2" transform="translate(60.000000, 124.000000)">
                <g id="Group-6" transform="translate(39.000000, 380.000000)">
                    <g id="tables-and-items" transform="translate(11.000000, 0.000000)">
                        <path d="M98.4484211,1.56744649 C97.4063158,0.514683922 96.1789474,0 94.72,0 L50.28,0 C48.8210526,0 47.5705263,0.514683922 46.5515789,1.56744649 C45.5094737,2.62020906 45,3.86012942 45,5.33399701 L45,41.666003 C45,43.1398706 45.5094737,44.4031857 46.5515789,45.4325535 C47.5936842,46.4853161 48.8442105,47 50.28,47 L94.72,47 C96.1789474,47 97.4294737,46.4853161 98.4484211,45.4325535 C99.4905263,44.3797909 100,43.1164759 100,41.666003 L100,5.33399701 C100,3.88352414 99.4905263,2.62020906 98.4484211,1.56744649 Z M61.9284211,41.6893977 C61.9284211,41.9935291 61.8357895,42.2508711 61.6273684,42.4614236 C61.4189474,42.6719761 61.1873684,42.765555 60.8631579,42.765555 L50.28,42.765555 C49.9789474,42.765555 49.7242105,42.6719761 49.5157895,42.4614236 C49.3073684,42.2508711 49.2147368,42.0169238 49.2147368,41.6893977 L49.2147368,35.2792434 C49.2147368,34.975112 49.3073684,34.71777 49.5157895,34.5072175 C49.7242105,34.296665 49.9789474,34.2030861 50.28,34.2030861 L60.8631579,34.2030861 C61.1642105,34.2030861 61.4189474,34.296665 61.6273684,34.5072175 C61.8357895,34.71777 61.9284211,34.9517173 61.9284211,35.2792434 L61.9284211,41.6893977 Z M61.9284211,28.8456944 C61.9284211,29.1498258 61.8357895,29.4071677 61.6273684,29.6177203 C61.4189474,29.8282728 61.1873684,29.9218517 60.8631579,29.9218517 L50.28,29.9218517 C49.9789474,29.9218517 49.7242105,29.8282728 49.5157895,29.6177203 C49.3073684,29.4071677 49.2147368,29.1498258 49.2147368,28.8456944 L49.2147368,22.4355401 C49.2147368,22.1314087 49.3073684,21.8740667 49.5157895,21.6635142 C49.7242105,21.4529617 49.9789474,21.3593828 50.28,21.3593828 L60.8631579,21.3593828 C61.1642105,21.3593828 61.4189474,21.4529617 61.6273684,21.6635142 C61.8357895,21.8740667 61.9284211,22.1314087 61.9284211,22.4355401 L61.9284211,28.8456944 Z M61.9284211,16.0253858 C61.9284211,16.3295172 61.8357895,16.5868591 61.6273684,16.7974116 C61.4189474,17.0079642 61.1873684,17.1015431 60.8631579,17.1015431 L50.28,17.1015431 C49.9789474,17.1015431 49.7242105,17.0079642 49.5157895,16.7974116 C49.3073684,16.5868591 49.2147368,16.3295172 49.2147368,16.0253858 L49.2147368,9.61523146 C49.2147368,9.31110005 49.3073684,9.05375809 49.5157895,8.84320557 C49.7242105,8.63265306 49.9789474,8.53907417 50.28,8.53907417 L60.8631579,8.53907417 C61.1642105,8.53907417 61.4189474,8.63265306 61.6273684,8.84320557 C61.8357895,9.05375809 61.9284211,9.31110005 61.9284211,9.61523146 L61.9284211,16.0253858 Z M78.8568421,41.6893977 C78.8568421,41.9935291 78.7642105,42.2508711 78.5557895,42.4614236 C78.3473684,42.6719761 78.1157895,42.765555 77.7915789,42.765555 L67.2084211,42.765555 C66.9073684,42.765555 66.6526316,42.6719761 66.4442105,42.4614236 C66.2357895,42.2508711 66.1431579,42.0169238 66.1431579,41.6893977 L66.1431579,35.2792434 C66.1431579,34.975112 66.2357895,34.71777 66.4442105,34.5072175 C66.6526316,34.296665 66.9073684,34.2030861 67.2084211,34.2030861 L77.7915789,34.2030861 C78.0926316,34.2030861 78.3473684,34.296665 78.5557895,34.5072175 C78.7642105,34.71777 78.8568421,34.9517173 78.8568421,35.2792434 L78.8568421,41.6893977 Z M78.8568421,28.8456944 C78.8568421,29.1498258 78.7642105,29.4071677 78.5557895,29.6177203 C78.3473684,29.8282728 78.1157895,29.9218517 77.7915789,29.9218517 L67.2084211,29.9218517 C66.9073684,29.9218517 66.6526316,29.8282728 66.4442105,29.6177203 C66.2357895,29.4071677 66.1431579,29.1498258 66.1431579,28.8456944 L66.1431579,22.4355401 C66.1431579,22.1314087 66.2357895,21.8740667 66.4442105,21.6635142 C66.6526316,21.4529617 66.9073684,21.3593828 67.2084211,21.3593828 L77.7915789,21.3593828 C78.0926316,21.3593828 78.3473684,21.4529617 78.5557895,21.6635142 C78.7642105,21.8740667 78.8568421,22.1314087 78.8568421,22.4355401 L78.8568421,28.8456944 Z M78.8568421,16.0253858 C78.8568421,16.3295172 78.7642105,16.5868591 78.5557895,16.7974116 C78.3473684,17.0079642 78.1157895,17.1015431 77.7915789,17.1015431 L67.2084211,17.1015431 C66.9073684,17.1015431 66.6526316,17.0079642 66.4442105,16.7974116 C66.2357895,16.5868591 66.1431579,16.3295172 66.1431579,16.0253858 L66.1431579,9.61523146 C66.1431579,9.31110005 66.2357895,9.05375809 66.4442105,8.84320557 C66.6526316,8.63265306 66.9073684,8.53907417 67.2084211,8.53907417 L77.7915789,8.53907417 C78.0926316,8.53907417 78.3473684,8.63265306 78.5557895,8.84320557 C78.7642105,9.05375809 78.8568421,9.31110005 78.8568421,9.61523146 L78.8568421,16.0253858 Z M95.7852632,41.6893977 C95.7852632,41.9935291 95.6926316,42.2508711 95.4842105,42.4614236 C95.2757895,42.6719761 95.0210526,42.765555 94.72,42.765555 L84.1368421,42.765555 C83.8357895,42.765555 83.5810526,42.6719761 83.3726316,42.4614236 C83.1642105,42.2508711 83.0715789,42.0169238 83.0715789,41.6893977 L83.0715789,35.2792434 C83.0715789,34.975112 83.1642105,34.71777 83.3726316,34.5072175 C83.5810526,34.296665 83.8126316,34.2030861 84.1368421,34.2030861 L94.72,34.2030861 C95.0210526,34.2030861 95.2757895,34.296665 95.4842105,34.5072175 C95.6926316,34.71777 95.7852632,34.9517173 95.7852632,35.2792434 L95.7852632,41.6893977 Z M95.7852632,28.8456944 C95.7852632,29.1498258 95.6926316,29.4071677 95.4842105,29.6177203 C95.2757895,29.8282728 95.0210526,29.9218517 94.72,29.9218517 L84.1368421,29.9218517 C83.8357895,29.9218517 83.5810526,29.8282728 83.3726316,29.6177203 C83.1642105,29.4071677 83.0715789,29.1498258 83.0715789,28.8456944 L83.0715789,22.4355401 C83.0715789,22.1314087 83.1642105,21.8740667 83.3726316,21.6635142 C83.5810526,21.4529617 83.8126316,21.3593828 84.1368421,21.3593828 L94.72,21.3593828 C95.0210526,21.3593828 95.2757895,21.4529617 95.4842105,21.6635142 C95.6926316,21.8740667 95.7852632,22.1314087 95.7852632,22.4355401 L95.7852632,28.8456944 Z M95.7852632,16.0253858 C95.7852632,16.3295172 95.6926316,16.5868591 95.4842105,16.7974116 C95.2757895,17.0079642 95.0210526,17.1015431 94.72,17.1015431 L84.1368421,17.1015431 C83.8357895,17.1015431 83.5810526,17.0079642 83.3726316,16.7974116 C83.1642105,16.5868591 83.0715789,16.3295172 83.0715789,16.0253858 L83.0715789,9.61523146 C83.0715789,9.31110005 83.1642105,9.05375809 83.3726316,8.84320557 C83.5810526,8.63265306 83.8126316,8.53907417 84.1368421,8.53907417 L94.72,8.53907417 C95.0210526,8.53907417 95.2757895,8.63265306 95.4842105,8.84320557 C95.6926316,9.05375809 95.7852632,9.31110005 95.7852632,9.61523146 L95.7852632,16.0253858 Z" id="Shape" fill="#344A5E"></path>
                        <g id="Group" transform="translate(0.000000, 10.000000)">
                            <path d="M39.7841897,37.8338308 C39.387747,38.2547264 38.8747036,38.6054726 38.3383399,38.8626866 C37.8019763,39.0965174 37.2189723,39.2134328 36.6126482,39.2134328 L35.6565217,39.2134328 L35.6332016,39.1432836 C32.0652174,39.1432836 6.06324111,39.5875622 3.63794466,39.1432836 C3.63794466,39.1432836 1.51581028,38.0910448 1.32924901,37.9273632 C0.536363636,37.1323383 0.0466403162,36.0333333 0.0466403162,34.8174129 L0.0466403162,22.1671642 C0.0466403162,20.9512438 0.536363636,19.8522388 1.32924901,19.0572139 C2.12213439,18.2621891 3.21818182,17.7711443 4.43083004,17.7711443 L20.1952569,17.7711443 L21.0347826,17.7711443 L21.3379447,18.5661692 L23.4367589,24.1313433 L36.5893281,24.1079602 C37.2422925,24.1079602 37.8486166,24.2482587 38.3849802,24.5054726 C38.9679842,24.7626866 39.4577075,25.1368159 39.8774704,25.6044776 L39.084585,26.3059701 C39.2478261,28.2701493 39.2011858,35.4253731 39.2011858,37.2960199 L39.7841897,37.8338308 Z" id="Shape" fill="#F3705A"></path>
                            <path d="M35.3300395,39.1199005 C33.3245059,39.1199005 27.3778656,39.2134328 21.1747036,39.260199 C21.1980237,39.1666667 21.1980237,39.0731343 21.2213439,38.979602 C21.2913043,38.6054726 21.4079051,38.2313433 21.5478261,37.880597 C21.9209486,36.9452736 22.4573123,36.0800995 23.1802372,35.378607 C24.5328063,34.0223881 26.3517787,33.2741294 28.2640316,33.2741294 C30.1762846,33.2741294 31.9952569,34.0223881 33.3478261,35.378607 C33.9774704,36.0099502 34.4905138,36.7348259 34.8403162,37.5532338 C35.0501976,38.0208955 35.2134387,38.4885572 35.3067194,39.0029851 C35.3067194,39.0497512 35.3067194,39.0965174 35.3300395,39.1199005 Z" id="Shape" fill="#F05540"></path>
                            <path d="M18.4695652,39.3069652 C12.3130435,39.3537313 6.41304348,39.3537313 4.29090909,39.1900498 C4.29090909,39.1199005 4.31422925,39.0731343 4.33754941,39.0029851 C4.40750988,38.6288557 4.52411067,38.2547264 4.66403162,37.9039801 C5.03715415,36.9686567 5.57351779,36.1034826 6.29644269,35.40199 C7.64901186,34.0457711 9.46798419,33.2975124 11.3802372,33.2975124 C13.2924901,33.2975124 15.1114625,34.0457711 16.4640316,35.40199 C17.0936759,36.0333333 17.6067194,36.758209 17.9565217,37.5766169 C18.1664032,38.0442786 18.3296443,38.5119403 18.4229249,39.0263682 C18.4229249,39.0965174 18.4462451,39.2134328 18.4695652,39.3069652 Z" id="Shape" fill="#F05540"></path>
                            <path d="M40.3438735,7.10845771 L40.3438735,39.7512438 C40.3438735,40.1721393 40.6936759,40.5228856 41.1134387,40.5228856 L58.2304348,40.5228856 C58.6501976,40.5228856 59,40.8736318 59,41.2945274 L59,42.2064677 C59,42.6273632 58.6501976,42.9781095 58.2304348,42.9781095 L39.1079051,42.9781095 L38.641502,42.9781095 C38.2217391,42.9781095 37.8719368,42.6273632 37.8719368,42.2064677 L37.8719368,41.738806 L37.8719368,7.10845771 C37.8719368,6.68756219 38.2217391,6.33681592 38.641502,6.33681592 L39.5509881,6.33681592 C39.9940711,6.33681592 40.3438735,6.68756219 40.3438735,7.10845771 Z" id="Shape" fill="#415A6B"></path>
                            <path d="M27.7509881,0.56119403 L36.3328063,24.4353234 C36.426087,24.6925373 36.3794466,24.9731343 36.1928854,25.2069652 L33.2079051,28.7144279 C32.9747036,28.9716418 32.601581,29.0651741 32.298419,28.9248756 L13.8988142,20.2731343 C13.8055336,20.2263682 13.712253,20.1562189 13.6422925,20.0860697 L12.9193676,19.2676617 C12.7794466,19.1039801 12.5695652,19.0104478 12.3363636,19.0104478 L11.356917,19.0104478 L9.67786561,19.0104478 C9.25810277,19.0104478 8.9083004,18.6597015 8.9083004,18.238806 L8.9083004,16.8358209 L8.9083004,5.26119403 C8.9083004,3.83482587 9.49130435,2.52537313 10.4241107,1.59004975 C11.356917,0.654726368 12.6628458,0.0701492537 14.0853755,0.0701492537 L26.3750988,0.0701492537 L27.0513834,0.0701492537 C27.3312253,0.0467661692 27.6343874,0.25721393 27.7509881,0.56119403 Z" id="Shape" fill="#F3705A"></path>
                            <path d="M15.787747,36.0567164 C14.6450593,34.9109453 13.0826087,34.2094527 11.356917,34.2094527 C9.6312253,34.2094527 8.04545455,34.9109453 6.92608696,36.0567164 C6.31976285,36.6646766 5.83003953,37.4129353 5.50355731,38.2547264 C5.38695652,38.5587065 5.29367589,38.8860697 5.22371542,39.2134328 C5.13043478,39.6343284 5.08379447,40.078607 5.08379447,40.4995025 C5.08379447,42.2298507 5.78339921,43.8199005 6.92608696,44.9422886 C8.0687747,46.0880597 9.6312253,46.7895522 11.356917,46.7895522 C13.0826087,46.7895522 14.6683794,46.0880597 15.787747,44.9422886 C16.9304348,43.7965174 17.6300395,42.2298507 17.6300395,40.4995025 C17.6300395,40.0552239 17.5833992,39.6109453 17.4901186,39.2134328 C17.3968379,38.7691542 17.256917,38.3482587 17.0936759,37.9507463 C16.7905138,37.2492537 16.3474308,36.5945274 15.787747,36.0567164 Z" id="Shape" fill="#415A6B"></path>
                            <path d="M32.6948617,36.0567164 C31.5521739,34.9109453 29.9897233,34.2094527 28.2640316,34.2094527 C26.5383399,34.2094527 24.9525692,34.9109453 23.8332016,36.0567164 C23.2268775,36.6646766 22.7371542,37.4129353 22.4106719,38.2547264 C22.2940711,38.5587065 22.2007905,38.8860697 22.13083,39.2134328 C22.0375494,39.6343284 21.9909091,40.078607 21.9909091,40.4995025 C21.9909091,42.2298507 22.6905138,43.8199005 23.8332016,44.9422886 C24.9758893,46.0880597 26.5383399,46.7895522 28.2640316,46.7895522 C29.9897233,46.7895522 31.5754941,46.0880597 32.6948617,44.9422886 C33.8375494,43.7965174 34.5371542,42.2298507 34.5371542,40.4995025 C34.5371542,40.0552239 34.4905138,39.6109453 34.3972332,39.2134328 C34.3039526,38.7691542 34.1640316,38.3482587 34.0007905,37.9507463 C33.6743083,37.2492537 33.2312253,36.5945274 32.6948617,36.0567164 Z" id="Shape" fill="#415A6B"></path>
                            <g transform="translate(4.197628, 23.383085)" fill="#F05540" id="Rectangle-path">
                                <rect x="0.209881423" y="0.0233830846" width="10.027668" height="1"></rect>
                                <rect x="0.209881423" y="1.49651741" width="10.027668" height="1"></rect>
                                <rect x="0.209881423" y="2.96965174" width="10.027668" height="1"></rect>
                                <rect x="0.209881423" y="4.44278607" width="10.027668" height="1"></rect>
                                <rect x="0.209881423" y="5.89253731" width="10.027668" height="1"></rect>
                            </g>
                            <path d="M13.8521739,8.44129353 L13.8521739,16.8124378 L13.8521739,16.9761194 C13.8521739,17.3970149 14.2019763,17.7477612 14.6217391,17.7477612 L18.9359684,17.7477612 L19.2624506,17.7477612 C19.5889328,17.7477612 19.8687747,17.958209 19.9853755,18.238806 L20.1019763,18.5427861 L22.0142292,23.6169154 C22.13083,23.9208955 22.4106719,24.1079602 22.7371542,24.1079602 L31.272332,24.0845771 C31.8086957,24.0845771 32.1818182,23.5467662 31.9952569,23.0557214 L26.2818182,7.1318408 C26.1652174,6.8278607 25.8853755,6.61741294 25.5588933,6.61741294 L25.0924901,6.61741294 L15.6478261,6.61741294 C15.1581028,6.61741294 14.7150198,6.8278607 14.3885375,7.15522388 C14.0620553,7.50597015 13.8521739,7.95024876 13.8521739,8.44129353 Z" id="Shape" fill="#F05540"></path>
                            <path d="M15.5312253,16.8358209 L19.8687747,16.8358209 C20.1952569,16.8358209 20.4750988,17.0462687 20.5916996,17.3268657 L20.941502,18.2154229 L22.6205534,22.681592 C22.7371542,22.9855721 23.016996,23.1726368 23.3434783,23.1726368 L29.943083,23.1492537 C30.4794466,23.1492537 30.8525692,22.6114428 30.6660079,22.120398 L25.6055336,8.04378109 C25.4889328,7.739801 25.2090909,7.52935323 24.8826087,7.52935323 L15.6478261,7.52935323 C15.4146245,7.52935323 15.2047431,7.62288557 15.041502,7.78656716 C14.8782609,7.95024876 14.7849802,8.1840796 14.7849802,8.39452736 L14.7849802,16.0174129 C14.7616601,16.4850746 15.1114625,16.8358209 15.5312253,16.8358209 Z" id="Shape" fill="#8AD7F8"></path>
                            <path d="M14.2252964,37.6233831 C13.5023715,36.8985075 12.4762846,36.4308458 11.3802372,36.4308458 C10.2841897,36.4308458 9.25810277,36.8751244 8.53517787,37.6233831 C8.13873518,38.0208955 7.83557312,38.5119403 7.6256917,39.0263682 C7.55573123,39.2368159 7.48577075,39.4238806 7.43913043,39.6343284 C7.39249012,39.9149254 7.3458498,40.1721393 7.3458498,40.4761194 C7.3458498,41.5985075 7.78893281,42.6039801 8.53517787,43.3288557 C9.25810277,44.0537313 10.2841897,44.521393 11.3802372,44.521393 C12.4762846,44.521393 13.5023715,44.0771144 14.2252964,43.3288557 C14.9482213,42.6039801 15.4146245,41.5751244 15.4146245,40.4761194 C15.4146245,40.1955224 15.3913043,39.9149254 15.3213439,39.6343284 C15.2513834,39.3537313 15.1814229,39.0731343 15.0648221,38.8159204 C14.8549407,38.3950249 14.5750988,37.9975124 14.2252964,37.6233831 Z" id="Shape" fill="#EEEEEE"></path>
                            <path d="M31.1090909,37.6233831 C30.386166,36.8985075 29.3600791,36.4308458 28.2640316,36.4308458 C27.144664,36.4308458 26.1418972,36.8751244 25.4189723,37.6233831 C25.0225296,38.0208955 24.7193676,38.5119403 24.5094862,39.0263682 C24.4395257,39.2368159 24.3695652,39.4238806 24.3229249,39.6343284 C24.2762846,39.9149254 24.2296443,40.1721393 24.2296443,40.4761194 C24.2296443,41.5985075 24.6727273,42.6039801 25.4189723,43.3288557 C26.1418972,44.0537313 27.1679842,44.521393 28.2640316,44.521393 C29.3833992,44.521393 30.386166,44.0771144 31.1090909,43.3288557 C31.8320158,42.6039801 32.298419,41.5751244 32.298419,40.4761194 C32.298419,40.1955224 32.2750988,39.9149254 32.2051383,39.6343284 C32.1351779,39.3537313 32.0652174,39.0731343 31.9486166,38.8159204 C31.7620553,38.3950249 31.4588933,37.9975124 31.1090909,37.6233831 Z" id="Shape" fill="#EEEEEE"></path>
                        </g>
                    </g>
                </g>
            </g>
        </g>
    </g>
</svg>