<?xml version="1.0" encoding="UTF-8"?>
<svg width="100px" height="100px" viewBox="0 0 100 100" version="1.1" xmlns="http://www.w3.org/2000/svg" xmlns:xlink="http://www.w3.org/1999/xlink">
    <!-- Generator: Sketch 49.1 (51147) - http://www.bohemiancoding.com/sketch -->
    <title>broom (1)</title>
    <desc>Created with Sketch.</desc>
    <defs></defs>
    <g id="Sidebar-+-Homepage" stroke="none" stroke-width="1" fill="none" fill-rule="evenodd">
        <g id="Homepage--&gt;-Organisation-Copy-2" transform="translate(-104.000000, -187.000000)" fill-rule="nonzero">
            <g id="broom-(1)" transform="translate(104.000000, 187.000000)">
                <path d="M85.2659533,19.4077821 L98.8375486,5.83638132 C100.128405,4.54552529 100.128405,2.45291829 98.8375486,1.16245136 C97.5466926,-0.128210117 95.4542802,-0.128210117 94.1636187,1.16245136 L80.5924125,14.7338521 L66.9690661,28.3570039 L44.8392996,50.4865759 L49.5132296,55.1605058 L71.642607,33.0307393 L81.761284,22.9124514" id="Shape" fill="#D55200"></path>
                <rect id="Rectangle-path" fill="#E57E05" transform="translate(53.975316, 46.025939) rotate(135.000000) translate(-53.975316, -46.025939) " x="42.4836949" y="42.7205228" width="22.9832426" height="6.61083154"></rect>
                <path d="M44.8392996,50.4865759 L23.8865759,50.5264591 L34.3429961,60.9826848 L39.0169261,65.6568093 L49.4733463,76.1132296 L49.513035,55.1605058 L44.8392996,50.4865759 Z M43.6501946,60.4496109 C42.5178988,61.5819066 40.6821012,61.5819066 39.5501946,60.4496109 C38.4178988,59.3177043 38.4178988,57.4819066 39.5501946,56.3496109 C40.6822957,55.2177043 42.5178988,55.2177043 43.6501946,56.3496109 C44.7822957,57.4819066 44.7822957,59.3177043 43.6501946,60.4496109 Z" id="Shape" fill="#FF433F"></path>
                <polygon id="Shape" fill="#C12323" points="48.909144 54.5566148 48.909144 54.5566148 48.909144 54.5566148 44.8392996 50.4865759 23.8865759 50.5264591 28.3817121 55.0214008"></polygon>
                <path d="M46.8064202,78.5603113 L21.4392996,53.1933852 C20.8173152,52.5715953 19.8303502,52.5062257 19.1319066,53.0416342 L0.88151751,67.0284047 C0.480544747,67.3356031 0.231322957,67.8011673 0.198249027,68.3054475 C0.164980545,68.8097276 0.35077821,69.3036965 0.708171206,69.6610895 L30.3392996,99.2918288 C30.6692607,99.6217899 31.1159533,99.805642 31.579572,99.805642 C31.6178988,99.805642 31.6566148,99.8042802 31.6949416,99.801751 C32.1992218,99.768677 32.6645914,99.5194553 32.9719844,99.1184825 L46.9585603,80.8680934 C47.4937743,80.1694553 47.4285992,79.1824903 46.8064202,78.5603113 Z" id="Shape" fill="#FFCE54"></path>
                <g id="Group" transform="translate(4.669261, 66.147860)" fill="#FFB640">
                    <path d="M28.229572,18.4128405 C27.5214008,17.8445525 26.4861868,17.9575875 25.9177043,18.6659533 L19.3607004,26.8348249 L21.6928016,29.1671206 C21.7346304,29.1252918 21.7750973,29.0809339 21.813035,29.0340467 L28.4826848,20.7247082 C29.0511673,20.0163424 28.9381323,18.981323 28.229572,18.4128405 Z" id="Shape"></path>
                    <path d="M20.1935798,12.4605058 L12.9159533,20.3898833 L15.2410506,22.7149805 C15.2577821,22.698249 15.2752918,22.6832685 15.2912451,22.6655642 L22.6167315,14.6842412 C23.2309339,14.0149805 23.1863813,12.9749027 22.5171206,12.3607004 C21.848249,11.7464981 20.8075875,11.7912451 20.1935798,12.4605058 Z" id="Shape"></path>
                    <path d="M14.3357977,6.72879377 L6.51828794,13.8906615 C6.50038911,13.9068093 6.48501946,13.9249027 6.46789883,13.9418288 L8.79319066,16.2669261 L16.557393,9.1540856 C17.2272374,8.54066148 17.2725681,7.50038911 16.659144,6.83054475 C16.0455253,6.16128405 15.0052529,6.11595331 14.3357977,6.72879377 Z" id="Shape"></path>
                    <path d="M2.34747082,9.82159533 L10.6840467,3.09883268 C11.3910506,2.52879377 11.5019455,1.49357977 10.9319066,0.786381323 C10.3618677,0.0793774319 9.32645914,-0.0313229572 8.61945525,0.538521401 L0.145719844,7.37198444 C0.0996108949,7.40933852 0.0562256809,7.44844358 0.0155642023,7.48929961 L2.34747082,9.82159533 Z" id="Shape"></path>
                </g>
                <path d="M3.50564202,71.6214008 C3.53871595,71.1171206 3.78774319,70.6515564 4.18891051,70.344358 L22.301751,56.463035 C22.1632296,55.7684825 22.2809339,55.033463 22.6538911,54.4083658 L21.4391051,53.1935798 C20.8171206,52.5717899 19.8301556,52.5064202 19.1317121,53.0418288 L0.88151751,67.0284047 C0.480544747,67.3356031 0.231322957,67.8011673 0.198249027,68.3054475 C0.164980545,68.8097276 0.35077821,69.3036965 0.708171206,69.6610895 L3.93891051,72.8918288 C3.63307393,72.5429961 3.47490272,72.0873541 3.50564202,71.6214008 Z" id="Shape" fill="#EAB339"></path>
                <path d="M45.3733463,80.2134241 L19.7863813,54.6266537 C18.6542802,53.494358 18.6542802,51.6585603 19.7863813,50.5266537 C20.918677,49.394358 22.7544747,49.394358 23.8863813,50.5266537 L49.4733463,76.1134241 C50.6054475,77.2459144 50.6054475,79.0815175 49.4733463,80.2134241 C48.3412451,81.3459144 46.505642,81.3459144 45.3733463,80.2134241 Z" id="Shape" fill="#34394C"></path>
                <path d="M19.5007782,50.8645914 C19.4538911,50.9285992 19.4093385,50.9937743 19.3680934,51.0603113 C19.3488327,51.0916342 19.3301556,51.1229572 19.3122568,51.1550584 C19.2725681,51.2252918 19.2365759,51.2970817 19.2033074,51.3696498 C19.1910506,51.3963035 19.1774319,51.4227626 19.1663424,51.4496109 C19.1235409,51.5511673 19.0856031,51.6542802 19.0548638,51.7587549 C19.0546693,51.7593385 19.0544747,51.7601167 19.0542802,51.7607004 C19.0243191,51.8642023 19.0011673,51.9690661 18.9828794,52.0747082 C18.9780156,52.1019455 18.9749027,52.1293774 18.9710117,52.1568093 C18.959144,52.2383268 18.9503891,52.320428 18.9455253,52.4025292 C18.9437743,52.4319066 18.9422179,52.4614786 18.9414397,52.490856 C18.938716,52.5787938 18.9404669,52.6671206 18.9459144,52.7550584 C18.9472763,52.7750973 18.9472763,52.7949416 18.9488327,52.8149805 C18.9579767,52.92607 18.9725681,53.036965 18.9947471,53.1464981 C19.1029183,53.6889105 19.3663424,54.2062257 19.7867704,54.6264591 L21.9178988,56.7575875 L22.3023346,56.4628405 C22.1190661,55.544358 22.3822957,54.5542802 23.094358,53.8424125 C24.2266537,52.7101167 26.0624514,52.7101167 27.194358,53.8424125 L27.2031128,53.8424125 L23.8871595,50.5264591 C22.7550584,49.3941634 20.9194553,49.3941634 19.7871595,50.5264591 C19.705642,50.6077821 19.6317121,50.6939689 19.5620623,50.7821012 C19.5398833,50.809144 19.5208171,50.8371595 19.5007782,50.8645914 Z" id="Shape" fill="#282F44"></path>
            </g>
        </g>
    </g>
</svg>