<?xml version="1.0" encoding="UTF-8"?>
<svg width="100px" height="46px" viewBox="0 0 100 46" version="1.1" xmlns="http://www.w3.org/2000/svg" xmlns:xlink="http://www.w3.org/1999/xlink">
    <!-- Generator: Sketch 49.1 (51147) - http://www.bohemiancoding.com/sketch -->
    <title>Assignments</title>
    <desc>Created with Sketch.</desc>
    <defs></defs>
    <g id="Sidebar-+-Homepage" stroke="none" stroke-width="1" fill="none" fill-rule="evenodd">
        <g id="Homepage--&gt;-Checklists" transform="translate(-544.000000, -245.000000)" fill-rule="nonzero">
            <g id="Group-2" transform="translate(60.000000, 124.000000)">
                <g id="Group-5" transform="translate(474.000000, 121.000000)">
                    <g id="Assignments" transform="translate(10.000000, 0.084112)">
                        <g id="Group" transform="translate(44.000000, 0.477857)">
                            <path d="M37.5654054,35.7189189 C37.1718919,36.1124324 36.7178378,36.4454054 36.2032432,36.6875676 C35.6886486,36.8994595 35.1437838,37.0205405 34.5686486,37.0205405 L33.6605405,37.0205405 L33.6605405,36.96 C30.3005405,36.96 5.72108108,37.3837838 3.42054054,36.96 C3.42054054,36.96 1.39243243,35.9610811 1.24108108,35.8097297 C0.484324324,35.052973 0.0302702703,34.0237838 0.0302702703,32.8735135 L0.0302702703,20.947027 C0.0302702703,19.7967568 0.484324324,18.7675676 1.24108108,18.0108108 C1.99783784,17.2540541 3.02702703,16.8 4.1772973,16.8 L19.0702703,16.8 L19.8572973,16.8 L20.1297297,17.5567568 L22.1275676,22.7935135 L34.5686486,22.7632432 C35.1740541,22.7632432 35.7491892,22.8843243 36.2637838,23.1264865 C36.8086486,23.3686486 37.292973,23.7318919 37.6562162,24.1556757 L36.8994595,24.8216216 C37.0508108,26.6681081 37.0205405,33.4183784 37.0205405,35.1740541 L37.5654054,35.7189189 Z" id="Shape" fill="#F3705A"></path>
                            <path d="M33.3578378,36.9297297 C31.4810811,36.9297297 25.8508108,37.0205405 19.9783784,37.0810811 C19.9783784,36.9902703 20.0086486,36.8994595 20.0389189,36.8389189 C20.0994595,36.4756757 20.2205405,36.1427027 20.3416216,35.8097297 C20.6745946,34.9318919 21.2194595,34.1145946 21.8854054,33.4486486 C23.1567568,32.1772973 24.8821622,31.4508108 26.6983784,31.4508108 C28.5145946,31.4508108 30.24,32.1772973 31.5113514,33.4486486 C32.0864865,34.0237838 32.5708108,34.7502703 32.9340541,35.507027 C33.1156757,35.9308108 33.267027,36.3848649 33.3578378,36.8691892 C33.3578378,36.8691892 33.3578378,36.8994595 33.3578378,36.9297297 Z" id="Shape" fill="#F05540"></path>
                            <path d="M17.4356757,37.1113514 C11.6237838,37.1416216 6.05405405,37.1416216 4.02594595,37.0205405 C4.02594595,36.96 4.05621622,36.8994595 4.05621622,36.8389189 C4.11675676,36.4756757 4.23783784,36.1427027 4.35891892,35.8097297 C4.69189189,34.9318919 5.23675676,34.1145946 5.9027027,33.4486486 C7.17405405,32.1772973 8.89945946,31.4508108 10.7156757,31.4508108 C12.5318919,31.4508108 14.2572973,32.1772973 15.5286486,33.4486486 C16.1037838,34.0237838 16.5881081,34.7502703 16.9513514,35.507027 C17.132973,35.9308108 17.2843243,36.3848649 17.3751351,36.8691892 C17.3751351,36.9297297 17.4054054,37.0205405 17.4356757,37.1113514 Z" id="Shape" fill="#F05540"></path>
                            <path d="M38.1102703,6.75027027 L38.1102703,37.5351351 C38.1102703,37.9286486 38.4432432,38.2616216 38.8367568,38.2616216 L55.0010811,38.2616216 C55.3945946,38.2616216 55.7275676,38.5945946 55.7275676,38.9881081 L55.7275676,39.8659459 C55.7275676,40.2594595 55.3945946,40.5924324 55.0010811,40.5924324 L36.9297297,40.5924324 L36.5059459,40.5924324 C36.1124324,40.5924324 35.7794595,40.2594595 35.7794595,39.8659459 L35.7794595,39.4421622 L35.7794595,6.75027027 C35.7794595,6.35675676 36.1124324,6.02378378 36.5059459,6.02378378 L37.3837838,6.02378378 C37.7772973,6.02378378 38.1102703,6.35675676 38.1102703,6.75027027 Z" id="Shape" fill="#415A6B"></path>
                            <path d="M26.1837838,0.575135135 L34.2962162,23.0659459 C34.387027,23.3081081 34.3264865,23.5805405 34.1751351,23.7924324 L31.36,27.0918919 C31.1481081,27.3340541 30.7848649,27.4248649 30.4821622,27.2735135 L13.0767568,19.1308108 C12.9859459,19.1005405 12.8951351,19.04 12.8345946,18.9491892 L12.1383784,18.1924324 C11.987027,18.0410811 11.8054054,17.9502703 11.5935135,17.9502703 L10.6551351,17.9502703 L9.08108108,17.9502703 C8.68756757,17.9502703 8.35459459,17.6172973 8.35459459,17.2237838 L8.35459459,15.8918919 L8.35459459,4.96432432 C8.35459459,3.63243243 8.89945946,2.39135135 9.7772973,1.51351351 C10.6551351,0.635675676 11.8962162,0.0908108108 13.2281081,0.0908108108 L24.8518919,0.0908108108 L25.4875676,0.0908108108 C25.8205405,0.121081081 26.092973,0.302702703 26.1837838,0.575135135 Z" id="Shape" fill="#F3705A"></path>
                            <path d="M14.9232432,34.0237838 C13.8335135,32.9340541 12.3805405,32.2983784 10.7156757,32.2983784 C9.08108108,32.2983784 7.59783784,32.9643243 6.50810811,34.0237838 C5.93297297,34.5989189 5.47891892,35.2951351 5.17621622,36.0821622 C5.05513514,36.3848649 4.96432432,36.6875676 4.90378378,36.9902703 C4.81297297,37.3837838 4.7827027,37.8075676 4.7827027,38.2010811 C4.7827027,39.8356757 5.44864865,41.3189189 6.50810811,42.4086486 C7.56756757,43.4983784 9.05081081,44.1340541 10.7156757,44.1340541 C12.3502703,44.1340541 13.8335135,43.4681081 14.9232432,42.4086486 C16.012973,41.3189189 16.6486486,39.8659459 16.6486486,38.2010811 C16.6486486,37.7772973 16.6183784,37.3837838 16.5275676,36.9902703 C16.4367568,36.5664865 16.3156757,36.172973 16.1340541,35.8097297 C15.8313514,35.1437838 15.4075676,34.5383784 14.9232432,34.0237838 Z" id="Shape" fill="#415A6B"></path>
                            <path d="M30.8756757,34.0237838 C29.7859459,32.9340541 28.332973,32.2983784 26.6681081,32.2983784 C25.0335135,32.2983784 23.5502703,32.9643243 22.4605405,34.0237838 C21.8854054,34.5989189 21.4313514,35.2951351 21.1286486,36.0821622 C21.0075676,36.3848649 20.9167568,36.6875676 20.8562162,36.9902703 C20.7654054,37.3837838 20.7351351,37.8075676 20.7351351,38.2010811 C20.7351351,39.8356757 21.4010811,41.3189189 22.4605405,42.4086486 C23.5502703,43.4983784 25.0032432,44.1340541 26.6681081,44.1340541 C28.3027027,44.1340541 29.7859459,43.4681081 30.8756757,42.4086486 C31.9654054,41.3189189 32.6010811,39.8659459 32.6010811,38.2010811 C32.6010811,37.7772973 32.5708108,37.3837838 32.48,36.9902703 C32.3891892,36.5664865 32.2681081,36.172973 32.0864865,35.8097297 C31.8140541,35.1437838 31.3902703,34.5383784 30.8756757,34.0237838 Z" id="Shape" fill="#415A6B"></path>
                            <g transform="translate(3.935135, 22.097297)" fill="#F05540" id="Rectangle-path">
                                <rect x="0.211891892" y="0.0302702703" width="9.47459459" height="1"></rect>
                                <rect x="0.211891892" y="1.4227027" width="9.47459459" height="1"></rect>
                                <rect x="0.211891892" y="2.78486486" width="9.47459459" height="1"></rect>
                                <rect x="0.211891892" y="4.1772973" width="9.47459459" height="1"></rect>
                                <rect x="0.211891892" y="5.56972973" width="9.47459459" height="1"></rect>
                            </g>
                            <path d="M13.0767568,8.02162162 L13.0767568,15.9221622 L13.0767568,16.0735135 C13.0767568,16.467027 13.4097297,16.8 13.8032432,16.8 L17.8594595,16.8 L18.1621622,16.8 C18.4648649,16.8 18.7372973,16.9816216 18.8583784,17.2843243 L18.9794595,17.5567568 L20.7956757,22.3394595 C20.9167568,22.6118919 21.1589189,22.8237838 21.4918919,22.8237838 L29.5437838,22.7935135 C30.0583784,22.7935135 30.3913514,22.2789189 30.24,21.8248649 L24.8216216,6.84108108 C24.7308108,6.53837838 24.4583784,6.35675676 24.1254054,6.35675676 L23.7016216,6.35675676 L14.8021622,6.35675676 C14.3481081,6.35675676 13.9243243,6.53837838 13.5913514,6.87135135 C13.2583784,7.11351351 13.0767568,7.5372973 13.0767568,8.02162162 Z" id="Shape" fill="#F05540"></path>
                            <path d="M14.6508108,15.9221622 L18.7675676,15.9221622 C19.0702703,15.9221622 19.3427027,16.1037838 19.4637838,16.4064865 L19.7967568,17.2540541 L21.4010811,21.4616216 C21.5221622,21.7340541 21.7643243,21.9459459 22.0972973,21.9459459 L28.332973,21.9459459 C28.8475676,21.9459459 29.1805405,21.4313514 29.0291892,20.9772973 L24.2464865,7.71891892 C24.1556757,7.41621622 23.8832432,7.23459459 23.5502703,7.23459459 L14.8324324,7.23459459 C14.6205405,7.23459459 14.4086486,7.32540541 14.2572973,7.47675676 C14.1059459,7.62810811 14.0151351,7.84 14.0151351,8.05189189 L14.0151351,15.2259459 C13.9243243,15.6194595 14.2572973,15.9221622 14.6508108,15.9221622 Z" id="Shape" fill="#8AD7F8"></path>
                            <g transform="translate(39.351351, 19.070270)">
                                <polygon id="Shape" fill="#873913" points="1.18054054 0.151351351 14.2875676 0.151351351 15.4378378 0.151351351 15.4378378 1.02918919 15.4378378 17.0724324 15.4378378 17.92 14.2875676 17.92 1.18054054 17.92 0.0302702703 17.92 0.0302702703 17.0724324 0.0302702703 1.02918919 0.0302702703 0.151351351"></polygon>
                                <polygon id="Shape" fill="#DC955F" points="1.18054054 0.151351351 14.2875676 0.151351351 15.4378378 0.151351351 15.4378378 1.02918919 13.772973 1.02918919 13.772973 1.33189189 15.4378378 1.33189189 15.4378378 16.7697297 13.9545946 16.7697297 13.9545946 17.0724324 15.4378378 17.0724324 15.4378378 17.92 14.2875676 17.92 1.18054054 17.92 0.0302702703 17.92 0.0302702703 17.0724324 1.60432432 17.0724324 1.60432432 16.7697297 0.0302702703 16.7697297 0.0302702703 1.33189189 1.60432432 1.33189189 1.60432432 1.02918919 0.0302702703 1.02918919 0.0302702703 0.151351351"></polygon>
                                <rect id="Rectangle-path" fill="#B86A3A" x="1.18054054" y="1.02918919" width="13.107027" height="16.0432432"></rect>
                            </g>
                            <path d="M13.4097297,35.5372973 C12.7135135,34.8410811 11.7751351,34.4172973 10.7156757,34.4172973 C9.65621622,34.4172973 8.71783784,34.8410811 8.02162162,35.5372973 C7.65837838,35.9005405 7.35567568,36.3545946 7.14378378,36.8691892 C7.08324324,37.0508108 7.0227027,37.2627027 6.96216216,37.4443243 C6.90162162,37.6864865 6.87135135,37.9589189 6.87135135,38.2313514 C6.87135135,39.2908108 7.29513514,40.2291892 7.99135135,40.9254054 C8.68756757,41.6216216 9.62594595,42.0454054 10.6854054,42.0454054 C11.7448649,42.0454054 12.6832432,41.6216216 13.3794595,40.9254054 C14.0756757,40.2291892 14.4994595,39.2908108 14.4994595,38.2313514 C14.4994595,37.9589189 14.4691892,37.6864865 14.4086486,37.4443243 C14.3481081,37.1718919 14.2572973,36.9297297 14.1664865,36.6875676 C14.0151351,36.2335135 13.7427027,35.8702703 13.4097297,35.5372973 Z" id="Shape" fill="#EEEEEE"></path>
                            <path d="M29.3924324,35.5372973 C28.6962162,34.8410811 27.7578378,34.4172973 26.6983784,34.4172973 C25.6389189,34.4172973 24.7005405,34.8410811 24.0043243,35.5372973 C23.6410811,35.9005405 23.3383784,36.3545946 23.1264865,36.8691892 C23.0659459,37.0508108 23.0054054,37.2627027 22.9448649,37.4443243 C22.8843243,37.6864865 22.8540541,37.9589189 22.8540541,38.2313514 C22.8540541,39.2908108 23.2778378,40.2291892 23.9740541,40.9254054 C24.6702703,41.6216216 25.6086486,42.0454054 26.6681081,42.0454054 C27.7275676,42.0454054 28.6659459,41.6216216 29.3621622,40.9254054 C30.0583784,40.2291892 30.4821622,39.2908108 30.4821622,38.2313514 C30.4821622,37.9589189 30.4518919,37.6864865 30.3913514,37.4443243 C30.3308108,37.1718919 30.24,36.9297297 30.1491892,36.6875676 C29.9978378,36.2335135 29.7254054,35.8702703 29.3924324,35.5372973 Z" id="Shape" fill="#EEEEEE"></path>
                        </g>
                        <g id="Group" transform="translate(0.000000, 1.000000)">
                            <path d="M0,43.1872611 L0,0.812738854 C0,0.36433121 0.366980325,0 0.818648417,0 L32.1813516,0 C32.6330197,0 33,0.36433121 33,0.812738854 L33,43.1872611 C33,43.6356688 32.6330197,44 32.1813516,44 L0.818648417,44 C0.366980325,44 0,43.6356688 0,43.1872611 Z" id="Shape" fill="#D0D5D8"></path>
                            <path d="M31.3872417,43 L1.61275831,43 C1.2785265,43 1,42.7207447 1,42.3856383 L1,1.6143617 C1,1.27925532 1.2785265,1 1.61275831,1 L31.3872417,1 C31.7214735,1 32,1.27925532 32,1.6143617 L32,42.3856383 C32,42.7207447 31.7214735,43 31.3872417,43 Z" id="Shape" fill="#FFFFFF"></path>
                            <path d="M29.5787546,24 L7.42124542,24 C7.1965812,24 7,24.1538462 7,24.3846154 L7,25.6153846 C7,25.8205128 7.16849817,26 7.42124542,26 L29.5787546,26 C29.8034188,26 30,25.8461538 30,25.6153846 L30,24.3846154 C30,24.1794872 29.8034188,24 29.5787546,24 Z" id="Shape" fill="#BDC3C7"></path>
                            <path d="M29.5787546,30 L7.42124542,30 C7.1965812,30 7,30.1538462 7,30.3846154 L7,31.6153846 C7,31.8205128 7.16849817,32 7.42124542,32 L29.5787546,32 C29.8034188,32 30,31.8461538 30,31.6153846 L30,30.3846154 C30,30.1794872 29.8034188,30 29.5787546,30 Z" id="Shape" fill="#BDC3C7"></path>
                            <path d="M29.5787546,36 L7.42124542,36 C7.1965812,36 7,36.1538462 7,36.3846154 L7,37.6153846 C7,37.8205128 7.16849817,38 7.42124542,38 L29.5787546,38 C29.8034188,38 30,37.8461538 30,37.6153846 L30,36.3846154 C30,36.1794872 29.8034188,36 29.5787546,36 Z" id="Shape" fill="#BDC3C7"></path>
                            <circle id="Oval" fill="#E96A6A" cx="3" cy="25" r="1"></circle>
                            <path d="M29.5787546,18 L7.42124542,18 C7.1965812,18 7,18.1538462 7,18.3846154 L7,19.6153846 C7,19.8205128 7.16849817,20 7.42124542,20 L29.5787546,20 C29.8034188,20 30,19.8461538 30,19.6153846 L30,18.3846154 C30,18.1794872 29.8034188,18 29.5787546,18 Z" id="Shape" fill="#BDC3C7"></path>
                            <circle id="Oval" fill="#67C892" cx="3" cy="19" r="1"></circle>
                            <path d="M29.5787546,12 L7.42124542,12 C7.1965812,12 7,12.1538462 7,12.3846154 L7,13.6153846 C7,13.8205128 7.16849817,14 7.42124542,14 L29.5787546,14 C29.8034188,14 30,13.8461538 30,13.6153846 L30,12.3846154 C30,12.1794872 29.8034188,12 29.5787546,12 Z" id="Shape" fill="#BDC3C7"></path>
                            <path d="M20.5714286,4 L9.42857143,4 C9.2,4 9,4.15384615 9,4.38461538 L9,5.61538462 C9,5.82051282 9.17142857,6 9.42857143,6 L20.5714286,6 C20.8,6 21,5.84615385 21,5.61538462 L21,4.38461538 C21,4.17948718 20.8,4 20.5714286,4 Z" id="Shape" fill="#BDC3C7"></path>
                            <path d="M28.5512821,4 L22.4487179,4 C22.2094017,4 22,4.15384615 22,4.38461538 L22,5.61538462 C22,5.82051282 22.1794872,6 22.4487179,6 L28.5512821,6 C28.7905983,6 29,5.84615385 29,5.61538462 L29,4.38461538 C29,4.17948718 28.7905983,4 28.5512821,4 Z" id="Shape" fill="#BDC3C7"></path>
                            <circle id="Oval" fill="#67C892" cx="3" cy="13" r="1"></circle>
                            <circle id="Oval" fill="#E96A6A" cx="3" cy="31" r="1"></circle>
                            <circle id="Oval" fill="#67C892" cx="3" cy="37" r="1"></circle>
                        </g>
                        <g id="Layer_1_1_" transform="translate(1.869159, 3.869159)">
                            <path d="M2.10280374,0.140186916 C3.24766355,0.140186916 4.1588785,1.07476636 4.1588785,2.21962617 C4.1588785,3.36448598 3.22429907,4.29906542 2.10280374,4.29906542 C0.981308411,4.29906542 0.046728972,3.36448598 0.046728972,2.21962617 C0.046728972,1.07476636 0.981308411,0.140186916 2.10280374,0.140186916 Z M1.82242991,1.14485981 C1.23831776,1.30841121 0.887850467,1.91588785 1.02803738,2.52336449 C1.19158879,3.10747664 1.79906542,3.48130841 2.38317757,3.31775701 C2.96728972,3.15420561 3.31775701,2.54672897 3.17757009,1.93925234 C3.01401869,1.3317757 2.40654206,0.981308411 1.82242991,1.14485981 Z" id="Shape" fill="#40403E"></path>
                            <path d="M2.10280374,2.73364486 L1.98598131,2.28971963 L3.17757009,1.96261682 C3.22429907,2.12616822 3.22429907,2.28971963 3.17757009,2.42990654 L2.10280374,2.73364486 M4.18224299,2.1728972 C4.18224299,2.07943925 4.18224299,2.00934579 4.1588785,1.93925234 C4.1588785,2.00934579 4.18224299,2.07943925 4.18224299,2.1728972" id="Shape" fill="#C7C7C2"></path>
                            <path d="M3.20093458,2.42990654 C3.22429907,2.28971963 3.22429907,2.12616822 3.20093458,1.96261682 L4.11214953,1.70560748 C4.13551402,1.77570093 4.13551402,1.84579439 4.1588785,1.93925234 C4.1588785,2.00934579 4.18224299,2.10280374 4.18224299,2.1728972 L3.20093458,2.42990654" id="Shape" fill="#323330"></path>
                            <polyline id="Shape" fill="#47B06D" points="3.29439252 0.887850467 1.79906542 2.38317757 2.12616822 2.71028037 3.62149533 1.21495327 3.29439252 0.887850467"></polyline>
                            <polyline id="Shape" fill="#47B06D" points="1.56542056 1.51869159 1.23831776 1.84579439 2.10280374 2.71028037 2.42990654 2.38317757 1.56542056 1.51869159"></polyline>
                        </g>
                        <path d="M31.5327103,12.0476325 C31.3224299,12.1410905 31.2056075,12.3280064 31.2056075,12.5616512 L31.2056075,18.5429596 L17.5373832,18.5429596 C17.2336449,18.5429596 17,18.7766045 17,19.0803428 L17,27.8186606 C17,28.1223989 17.2336449,28.3560437 17.5373832,28.3560437 L31.182243,28.3560437 L31.182243,34.3607166 C31.182243,34.570997 31.3224299,34.7812774 31.5093458,34.8747353 C31.7196262,34.9681933 31.953271,34.9214643 32.0934579,34.7579129 L43.0280374,23.8700624 C43.1214953,23.7766045 43.1915888,23.6364176 43.1915888,23.4728662 C43.1915888,23.3326793 43.1448598,23.1924923 43.0280374,23.0756699 L32.0934579,12.164455 C31.953271,12.0009036 31.7196262,11.9541746 31.5327103,12.0476325 Z" id="Shape" fill="#7CCF7F"></path>
                    </g>
                </g>
            </g>
        </g>
    </g>
</svg>