<?xml version="1.0" encoding="UTF-8"?>
<svg width="100px" height="66px" viewBox="0 0 100 66" version="1.1" xmlns="http://www.w3.org/2000/svg" xmlns:xlink="http://www.w3.org/1999/xlink">
    <!-- Generator: Sketch 49.1 (51147) - http://www.bohemiancoding.com/sketch -->
    <title>Group 8</title>
    <desc>Created with Sketch.</desc>
    <defs></defs>
    <g id="Sidebar-+-Homepage" stroke="none" stroke-width="1" fill="none" fill-rule="evenodd">
        <g id="Homepage--&gt;-Checklists" transform="translate(-107.000000, -226.000000)" fill-rule="nonzero">
            <g id="Group-2" transform="translate(60.000000, 124.000000)">
                <g id="Group-4" transform="translate(30.000000, 102.000000)">
                    <g id="Group-8" transform="translate(17.000000, 0.000000)">
                        <g id="Group">
                            <path d="M29.1891892,38.1709328 L54.5345345,62.8671899 L63.3033033,54.3229872 L37.957958,29.6267302 C35.5255255,27.2565917 31.6216216,27.2565917 29.1891892,29.6267302 C26.7567568,31.9676076 26.7567568,35.8007944 29.1891892,38.1709328 Z" id="Shape" fill="#EFCAA6"></path>
                            <path d="M35.4054054,27.1102869 L63.3333333,54.3229872 L72.1021021,45.7787845 L44.1741742,18.5660842 C41.7417417,16.1959458 37.8378378,16.1959458 35.4054054,18.5660842 C32.972973,20.9362226 32.972973,24.7401485 35.4054054,27.1102869 Z" id="Shape" fill="#EFCAA6"></path>
                            <path d="M46.7267267,19.8535668 L72.0720721,44.5498239 L80.8408408,36.0056212 L55.4954955,11.3093642 C53.0630631,8.93922574 49.1591592,8.93922574 46.7267267,11.3093642 C44.3243243,13.6795026 44.3243243,17.5126894 46.7267267,19.8535668 Z" id="Shape" fill="#EFCAA6"></path>
                            <path d="M61.2612613,16.92747 L80.8408408,36.0056212 L88.2882883,28.7489011 L68.7087087,9.67074994 C66.6666667,7.68100411 63.3333333,7.68100411 61.2612613,9.67074994 C59.2192192,11.6897567 59.2192192,14.9084632 61.2612613,16.92747 Z" id="Shape" fill="#EFCAA6"></path>
                            <g>
                                <path d="M0.24024024,6.22468444 L0.24024024,59.6856461 C0.24024024,63.1221906 2.82282282,65.9103305 6.00600601,65.9103305 L94.1741742,65.9103305 C97.3573574,65.9103305 99.9399399,63.1221906 99.9399399,59.6856461 L99.9399399,6.22468444 C99.9399399,2.7881399 97.3573574,0 94.1741742,0 L5.97597598,0 C2.79279279,0.0324202314 0.24024024,2.7881399 0.24024024,6.22468444 Z" id="Shape" fill="#424242"></path>
                                <rect id="Rectangle-path" fill="#FFFFFF" transform="translate(48.770885, 35.989481) rotate(-90.000000) translate(-48.770885, -35.989481) " x="21.7603666" y="-2.54106592" width="54.0210376" height="77.0610943"></rect>
                                <ellipse id="Oval" fill="#05141E" cx="93.6036036" cy="32.1139124" rx="3.6036036" ry="3.51131617"></ellipse>
                            </g>
                        </g>
                        <g id="Group-7" transform="translate(9.000000, 3.000000)">
                            <rect id="Rectangle-path" fill="#ECF0F1" transform="translate(39.530547, 33.010519) rotate(-90.000000) translate(-39.530547, -33.010519) " x="12.5200283" y="-6.52002835" width="54.0210376" height="79.0610943"></rect>
                            <rect id="Rectangle-path" fill="#7CCF7F" x="-2.7000624e-13" y="0.194291528" width="79" height="6.93659431"></rect>
                            <rect id="Rectangle-path" fill="#727272" x="-2.7000624e-13" y="7.13088584" width="79" height="5.69697479"></rect>
                            <rect id="Rectangle-path" fill="#BDC3C7" x="31.2255327" y="12.8278606" width="47.7744673" height="3.37598506"></rect>
                            <rect id="Rectangle-path" fill="#BDC3C7" x="31.2255327" y="16.2038457" width="3.00177726" height="43.835056"></rect>
                            <g id="Group" transform="translate(5.794603, 15.702723)">
                                <ellipse id="Oval" fill="#727272" cx="10.1552949" cy="10.1798934" rx="10.0516695" ry="10.076017"></ellipse>
                                <ellipse id="Oval" fill="#BDC3C7" cx="10.1552949" cy="10.1798934" rx="6.73565481" ry="6.75197013"></ellipse>
                            </g>
                            <path d="M20.0568418,47.774581 L11.7393287,47.774581 C10.7698026,47.774581 10.0043873,47.005055 10.0043873,46.0865885 C10.0043873,45.1432985 10.7953165,44.3985959 11.7393287,44.3985959 L20.0568418,44.3985959 C21.0263679,44.3985959 21.7917832,45.168122 21.7917832,46.0865885 C21.7917832,47.005055 21.0008541,47.774581 20.0568418,47.774581 Z" id="Shape" fill="#BDC3C7"></path>
                            <path d="M49.2308396,21.6106968 L40.9137502,21.6106968 C39.9442735,21.6106968 39.1788971,20.8411708 39.1788971,19.9227042 C39.1788971,18.9794143 39.969786,18.2347117 40.9137502,18.2347117 L49.2308396,18.2347117 C50.2003163,18.2347117 50.9656926,19.0042377 50.9656926,19.9227042 C50.9912052,20.8659942 50.2003163,21.6106968 49.2308396,21.6106968 Z" id="Shape" fill="#BDC3C7"></path>
                            <path d="M49.2308396,27.5186706 L40.9137502,27.5186706 C39.9442735,27.5186706 39.1788971,26.7491446 39.1788971,25.8306781 C39.1788971,24.8873882 39.969786,24.1426856 40.9137502,24.1426856 L49.2308396,24.1426856 C50.2003163,24.1426856 50.9656926,24.9122116 50.9656926,25.8306781 C50.9912052,26.7491446 50.2003163,27.5186706 49.2308396,27.5186706 Z" id="Shape" fill="#BDC3C7"></path>
                            <path d="M49.2308396,33.4266445 L40.9137502,33.4266445 C39.9442735,33.4266445 39.1788971,32.6571185 39.1788971,31.738652 C39.1788971,30.795362 39.969786,30.0506594 40.9137502,30.0506594 L49.2308396,30.0506594 C50.2003163,30.0506594 50.9656926,30.8201854 50.9656926,31.738652 C50.9912052,32.6571185 50.2003163,33.4266445 49.2308396,33.4266445 Z" id="Shape" fill="#BDC3C7"></path>
                            <path d="M72.2802729,21.6106968 L63.9627598,21.6106968 C62.9932337,21.6106968 62.2278184,20.8411708 62.2278184,19.9227042 C62.2278184,18.9794143 63.0187476,18.2347117 63.9627598,18.2347117 L72.2802729,18.2347117 C73.249799,18.2347117 74.0152143,19.0042377 74.0152143,19.9227042 C74.0152143,20.8659942 73.249799,21.6106968 72.2802729,21.6106968 Z" id="Shape" fill="#BDC3C7"></path>
                            <path d="M72.2802729,27.5186706 L63.9627598,27.5186706 C62.9932337,27.5186706 62.2278184,26.7491446 62.2278184,25.8306781 C62.2278184,24.8873882 63.0187476,24.1426856 63.9627598,24.1426856 L72.2802729,24.1426856 C73.249799,24.1426856 74.0152143,24.9122116 74.0152143,25.8306781 C74.0152143,26.7491446 73.249799,27.5186706 72.2802729,27.5186706 Z" id="Shape" fill="#BDC3C7"></path>
                            <path d="M72.2802729,33.4266445 L63.9627598,33.4266445 C62.9932337,33.4266445 62.2278184,32.6571185 62.2278184,31.738652 C62.2278184,30.795362 63.0187476,30.0506594 63.9627598,30.0506594 L72.2802729,30.0506594 C73.249799,30.0506594 74.0152143,30.8201854 74.0152143,31.738652 C74.0152143,32.6571185 73.249799,33.4266445 72.2802729,33.4266445 Z" id="Shape" fill="#BDC3C7"></path>
                            <path d="M23.4359378,39.3346183 L8.36023267,39.3346183 C7.40835368,39.3346183 6.6365599,40.0904359 6.6365599,41.0226109 C6.6365599,41.9547859 7.40835368,42.7106034 8.36023267,42.7106034 L23.4359378,42.7106034 C24.3878168,42.7106034 25.1596106,41.9547859 25.1596106,41.0226109 C25.1596106,40.0904359 24.3878168,39.3346183 23.4359378,39.3346183 Z" id="Shape" fill="#BDC3C7"></path>
                            <path d="M24.1305522,55.3705474 L7.66561827,55.3705474 C7.09963616,55.3705474 6.6365599,54.9031033 6.6365599,54.3317828 L6.6365599,51.3453344 C6.6365599,50.7740139 7.09963616,50.3065698 7.66561827,50.3065698 L24.1305522,50.3065698 C24.6965343,50.3065698 25.1596106,50.7740139 25.1596106,51.3453344 L25.1596106,54.3317828 C25.1596106,54.9031033 24.6965343,55.3705474 24.1305522,55.3705474 Z" id="Shape" fill="#7CCF7F"></path>
                        </g>
                    </g>
                </g>
            </g>
        </g>
    </g>
</svg>