<?xml version="1.0" encoding="UTF-8"?>
<svg width="90px" height="60px" viewBox="0 0 90 60" version="1.1" xmlns="http://www.w3.org/2000/svg" xmlns:xlink="http://www.w3.org/1999/xlink">
    <!-- Generator: Sketch 49.1 (51147) - http://www.bohemiancoding.com/sketch -->
    <title>Test</title>
    <desc>Created with Sketch.</desc>
    <defs></defs>
    <g id="Sidebar-+-Homepage" stroke="none" stroke-width="1" fill="none" fill-rule="evenodd">
        <g id="Homepage-Mouseover-Organisation" transform="translate(-330.000000, -232.000000)" fill-rule="nonzero">
            <g id="Group-2" transform="translate(61.000000, 124.000000)">
                <g id="Test" transform="translate(269.000000, 108.000000)">
                    <g id="objects">
                        <g id="Group">
                            <path d="M26.2702703,34.3538395 L49.0810811,56.5804709 L56.972973,48.8906885 L34.1621622,26.6640571 C31.972973,24.5309326 28.4594595,24.5309326 26.2702703,26.6640571 C24.0810811,28.7708468 24.0810811,32.220715 26.2702703,34.3538395 Z" id="Shape" fill="#EFCAA6"></path>
                            <path d="M31.8648649,24.3992582 L57,48.8906885 L64.8918919,41.2009061 L39.7567568,16.7094758 C37.5675676,14.5763512 34.0540541,14.5763512 31.8648649,16.7094758 C29.6756757,18.8426004 29.6756757,22.2661336 31.8648649,24.3992582 Z" id="Shape" fill="#EFCAA6"></path>
                            <path d="M42.0540541,17.8682101 L64.8648649,40.0948415 L72.7567568,32.4050591 L49.9459459,10.1784277 C47.7567568,8.04530317 44.2432432,8.04530317 42.0540541,10.1784277 C39.8918919,12.3115523 39.8918919,15.7614204 42.0540541,17.8682101 Z" id="Shape" fill="#EFCAA6"></path>
                            <path d="M55.1351351,15.234723 L72.7567568,32.4050591 L79.4594595,25.874011 L61.8378378,8.70367495 C60,6.9129037 57,6.9129037 55.1351351,8.70367495 C53.2972973,10.5207811 53.2972973,13.4176169 55.1351351,15.234723 Z" id="Shape" fill="#EFCAA6"></path>
                            <g>
                                <path d="M0.216216216,5.60221599 L0.216216216,53.7170815 C0.216216216,56.8099716 2.54054054,59.3192975 5.40540541,59.3192975 L84.7567568,59.3192975 C87.6216216,59.3192975 89.9459459,56.8099716 89.9459459,53.7170815 L89.9459459,5.60221599 C89.9459459,2.50932591 87.6216216,0 84.7567568,0 L5.37837838,0 C2.51351351,0.0291782083 0.216216216,2.50932591 0.216216216,5.60221599 Z" id="Shape" fill="#424242"></path>
                                <rect id="Rectangle-path" fill="#FFFFFF" transform="translate(43.893797, 32.390533) rotate(-90.000000) translate(-43.893797, -32.390533) " x="19.5843299" y="-2.28695933" width="48.6189338" height="69.3549848"></rect>
                                <ellipse id="Oval" fill="#05141E" cx="84.2432432" cy="28.9025212" rx="3.24324324" ry="3.16018455"></ellipse>
                            </g>
                        </g>
                        <ellipse id="Oval" fill="#DC6141" cx="57.3783784" cy="48.0743075" rx="6.21621622" ry="6.05702039"></ellipse>
                        <ellipse id="Oval" fill="#7CCF7F" cx="28.2702703" cy="48.0743075" rx="6.21621622" ry="6.05702039"></ellipse>
                        <path d="M49.1689189,19.6326465 L12.7094595,19.6326465 C11.8986486,19.6326465 11.25,19.0006096 11.25,18.2105635 C11.25,17.4205173 11.8986486,16.7884804 12.7094595,16.7884804 L49.1418919,16.7884804 C49.9527027,16.7884804 50.6013514,17.4205173 50.6013514,18.2105635 C50.6283784,19.0006096 49.9797297,19.6326465 49.1689189,19.6326465 Z" id="Shape" fill="#BDC3C7"></path>
                        <path d="M44.3851351,25.2288067 L12.7094595,25.2288067 C11.8986486,25.2288067 11.25,24.5967697 11.25,23.8067236 C11.25,23.0166775 11.8986486,22.3846406 12.7094595,22.3846406 L44.3581081,22.3846406 C45.1689189,22.3846406 45.8175676,23.0166775 45.8175676,23.8067236 C45.8445946,24.5704349 45.1959459,25.2288067 44.3851351,25.2288067 Z" id="Shape" fill="#BDC3C7"></path>
                        <rect id="Rectangle-path" fill="#7CCF7F" x="9" y="3.42353326" width="69.7939189" height="5.53032296"></rect>
                        <rect id="Rectangle-path" fill="#727272" x="9" y="8.95385622" width="69.7939189" height="4.52959785"></rect>
                    </g>
                </g>
            </g>
        </g>
    </g>
</svg>