<?xml version="1.0" encoding="UTF-8"?>
<svg width="90px" height="90px" viewBox="0 0 90 90" version="1.1" xmlns="http://www.w3.org/2000/svg" xmlns:xlink="http://www.w3.org/1999/xlink">
    <!-- Generator: Sketch 49.1 (51147) - http://www.bohemiancoding.com/sketch -->
    <title>Issues</title>
    <desc>Created with Sketch.</desc>
    <defs></defs>
    <g id="Sidebar-+-Homepage" stroke="none" stroke-width="1" fill="none" fill-rule="evenodd">
        <g id="Homepage-Mouseover-Organisation" transform="translate(-541.000000, -200.000000)" fill-rule="nonzero">
            <g id="Group-2" transform="translate(61.000000, 124.000000)">
                <g id="Issues" transform="translate(480.000000, 76.000000)">
                    <g id="Layer_x0020_1" transform="translate(15.148515, 15.148515)">
                        <g id="_480115848" transform="translate(0.508887, 0.000000)">
                            <g id="Group" transform="translate(0.000000, 11.019373)">
                                <polygon id="_480116664" fill="#626262" points="3.30211331 15.5309698 17.7205875 0.825010655 16.9233307 0.0173079158 2.51051081 14.7232671"></polygon>
                                <path d="M4.2181105,13.7944089 C3.95801253,13.5290209 3.60744571,13.3905576 3.26253319,13.3905576 C2.91762067,13.3905576 2.57270815,13.5232516 2.30695588,13.7944089 L0.367529735,15.7732806 L0.045234429,16.102131 L0.367529735,16.4309814 L1.62843944,17.7175365 L1.95073475,18.0463869 L2.27303006,17.7175365 L4.2124562,15.7386648 C4.47255416,15.4732768 4.60825745,15.1155798 4.60825745,14.7636522 C4.60825745,14.4117246 4.47820847,14.059797 4.2181105,13.7944089 Z" id="_480116736" fill="#525252"></path>
                            </g>
                            <path d="M20.168901,12.1386183 L16.6349613,8.53280251 L16.6745414,8.49241738 L16.7367387,8.55587973 C17.0420711,8.86742222 17.5509584,8.86742222 17.8562908,8.55587973 C18.1616232,8.24433725 18.1616232,7.72509977 17.8562908,7.41355729 L17.7940935,7.35009493 L24.4718261,0.536545391 C25.1107624,-0.115386106 26.1624629,-0.115386106 26.8070535,0.536545391 L28.0114201,1.76540742 C28.6503564,2.41733891 28.6503564,3.4904297 28.0114201,4.1481305 L21.3336876,10.9559107 L21.2714902,10.8924484 C20.9661578,10.5809059 20.4572705,10.5809059 20.1519381,10.8924484 C19.8466057,11.2039909 19.8466057,11.7232283 20.1519381,12.0347708 L20.2141354,12.0982332 L20.168901,12.1386183 Z" id="_480116352" fill="#5A9EE1"></path>
                            <path d="M20.168901,12.1386183 L17.5566127,10.9962959 L16.6349613,8.53280251 L16.6745414,8.49241738 L16.7367387,8.55587973 C17.0420711,8.86742222 17.5509584,8.86742222 17.8562908,8.55587973 C18.1616232,8.24433725 18.1616232,7.72509977 17.8562908,7.41355729 L17.7940935,7.35009493 L17.8167107,7.32701771 L21.3506505,10.9328335 L21.3280333,10.9559107 L21.2658359,10.8924484 C20.9605035,10.5809059 20.4516162,10.5809059 20.1462838,10.8924484 C19.8409514,11.2039909 19.8409514,11.7232283 20.1462838,12.0347708 L20.2084811,12.0982332 L20.168901,12.1386183 Z" id="_480116472" fill="#3F7AAA"></path>
                            <path d="M20.2480613,12.1386183 L16.6349613,8.45203224 C16.555801,8.37126197 16.425752,8.37126197 16.3465918,8.45203224 L15.5154091,9.30012012 C15.4362489,9.38089039 15.4362489,9.51358441 15.5154091,9.59435469 L19.1285091,13.2809408 C19.2076694,13.361711 19.3377184,13.361711 19.4168786,13.2809408 L20.2480613,12.4328529 C20.3272215,12.3520826 20.3272215,12.2193886 20.2480613,12.1386183 Z" id="_480116832" fill="#5A9EE1"></path>
                            <g id="Group" transform="translate(19.168089, 1.153861)" fill="#3F7AAA">
                                <path d="M8.1252343,2.15195087 C8.00649393,2.03079546 7.8142476,2.03079546 7.69550723,2.15195087 L2.10340095,7.8577938 C1.98466057,7.97894921 1.98466057,8.17510559 2.10340095,8.296261 C2.22214132,8.41741641 2.41438765,8.41741641 2.53312802,8.296261 L8.1252343,2.59041807 C8.24397468,2.47503197 8.24397468,2.27310628 8.1252343,2.15195087 Z" id="_480116568"></path>
                                <path d="M7.12442256,1.13078384 C7.00568219,1.00962842 6.81343586,1.00962842 6.69469549,1.13078384 L1.10258921,6.83662676 C0.98384883,6.95778217 0.98384883,7.15393855 1.10258921,7.27509396 C1.22132958,7.39624937 1.41357591,7.39624937 1.53231628,7.27509396 L7.12442256,1.56925104 C7.24316294,1.44809563 7.24316294,1.25193925 7.12442256,1.13078384 Z" id="_480116808"></path>
                                <path d="M6.12361082,0.1096168 C6.00487045,-0.0115386106 5.81262412,-0.0115386106 5.69388375,0.1096168 L0.101777465,5.81545973 C-0.0169629109,5.93661514 -0.0169629109,6.13277152 0.101777465,6.25392693 C0.220517841,6.37508234 0.412764164,6.37508234 0.53150454,6.25392693 L6.12361082,0.548084002 C6.2423512,0.426928591 6.2423512,0.230772211 6.12361082,0.1096168 Z" id="_480116424"></path>
                            </g>
                        </g>
                        <g id="Group" transform="translate(0.000000, 0.057693)">
                            <g id="_480116760_1_" transform="translate(12.269839, 12.519392)" fill="#78909C">
                                <path d="M14.7181523,12.6405479 L14.9330159,13.4482506 L15.1478794,14.2559534 L14.5654861,14.8501918 L13.9830929,15.4444302 L13.1914903,15.2251966 L12.3998878,15.005963 L12.1850243,14.1982603 L11.9701608,13.3905576 L12.552554,12.7963191 L13.1349473,12.2020807 L13.9265498,12.4213143 L14.7181523,12.6405479 Z M0.00565430362,3.15004068 L10.1381664,13.4886358 C10.0476975,14.4924949 10.0816234,15.2251966 11.1276695,16.2925181 C12.1737157,17.3598396 14.6389921,17.6598435 15.979062,16.2925181 C17.319132,14.9251928 17.0251082,12.4097757 15.979062,11.3424542 C14.9330159,10.2751327 14.2149193,10.2405169 13.2310705,10.3328258 L3.09855838,0 L0.00565430362,3.15004068 Z" id="_480117048_1_"></path>
                            </g>
                            <g id="_480116760">
                                <path d="M17.9580683,15.1617343 L7.82555621,4.81736991 L7.85382773,4.54044326 C7.91037077,3.95774342 7.84817343,3.36350498 7.66723571,2.80388237 C7.11311395,1.07309078 5.16803351,-0.70962455 3.34169344,0.351927622 L5.72780957,2.78657445 L5.3150454,5.16929753 L2.73668295,5.83853695 L0.344912521,3.39812081 C-0.701133649,5.26737572 1.05735478,7.24624744 2.75364586,7.81163935 C3.30211331,7.99625712 3.88450659,8.05971948 4.45559125,8.00202643 L4.72699783,7.9731799 L14.8595099,18.311775" id="_480117048" fill="#78909C"></path>
                                <path d="M10.7771027,9.91166648 C10.4887332,9.61743191 10.0137717,9.61743191 9.72540223,9.91166648 C9.43703274,10.205901 9.43703274,10.6905227 9.72540223,10.9847573 L19.5695448,21.0291178 C19.8579143,21.3233523 20.3328758,21.3233523 20.6212453,21.0291178 C20.9096148,20.7348832 20.9096148,20.2502615 20.6212453,19.956027 L10.7771027,9.91166648 Z" id="_480117528" fill="#546E7A"></path>
                            </g>
                        </g>
                    </g>
                    <g id="Layer_x0020_1_1_">
                        <path d="M63.5854592,66.9145408 C64.3660714,67.6951531 66.5414541,66.3290816 67.3278061,65.5484694 C68.1084184,64.7678571 68.1084184,63.4993622 67.3278061,62.71875 L50.6422194,46.0331633 C49.8616071,45.252551 48.5931122,45.252551 47.8125,46.0331633 C47.0318878,46.8137755 46.1192602,49.4483418 46.8998724,50.2289541 L63.5854592,66.9145408 Z" id="Shape" fill="#929292"></path>
                        <path d="M52.9897959,60.5089286 L60.4917092,53.0070153 C61.2723214,52.2264031 62.5408163,52.2264031 63.3214286,53.0070153 L63.3329082,53.0184949 L89.3743622,79.059949 C90.1549745,79.8405612 90.1549745,81.1090561 89.3743622,81.8896684 L89.3628827,81.901148 L81.8609694,89.4030612 C81.0803571,90.1836735 79.8118622,90.1836735 79.03125,89.4030612 L79.0197704,89.3915816 L52.9783163,63.3443878 C52.1977041,62.5637755 52.1977041,61.2952806 52.9783163,60.5146684 L52.9897959,60.5089286 Z" id="Shape" fill="#DC6141"></path>
                        <g id="_276209376" transform="translate(60.095663, 60.095663)" fill="#D97F68">
                            <path d="M7.11734694,2.39923469 C7.65688776,1.85969388 7.65688776,0.987244898 7.11734694,0.447704082 C6.57780612,-0.0918367347 5.70535714,-0.0918367347 5.16581633,0.447704082 L0.419005102,5.19451531 C-0.120535714,5.73405612 -0.120535714,6.6065051 0.419005102,7.14604592 C0.958545918,7.68558673 1.8309949,7.68558673 2.37053571,7.14604592 L7.11734694,2.39923469 Z" id="_276208872"></path>
                            <path d="M11.9904337,7.27232143 C12.5299745,6.73278061 12.5299745,5.86033163 11.9904337,5.32079082 C11.4508929,4.78125 10.5784439,4.78125 10.0389031,5.32079082 L5.29209184,10.067602 C4.75255102,10.6071429 4.75255102,11.4795918 5.29209184,12.0191327 C5.83163265,12.5586735 6.70408163,12.5586735 7.24362245,12.0191327 L11.9904337,7.27232143 Z" id="_276209040"></path>
                            <path d="M16.8635204,12.1454082 C17.4030612,11.6058673 17.4030612,10.7334184 16.8635204,10.1938776 C16.3239796,9.65433673 15.4515306,9.65433673 14.9119898,10.1938776 L10.1651786,14.9406888 C9.62563776,15.4802296 9.62563776,16.3526786 10.1651786,16.8922194 C10.7047194,17.4317602 11.5771684,17.4317602 12.1167092,16.8922194 L16.8635204,12.1454082 Z" id="_276209472"></path>
                            <path d="M21.7366071,17.0127551 C22.276148,16.4732143 22.276148,15.6007653 21.7366071,15.0612245 C21.1970663,14.5216837 20.3246173,14.5216837 19.7850765,15.0612245 L15.0382653,19.8080357 C14.4987245,20.3475765 14.4987245,21.2200255 15.0382653,21.7595663 C15.5778061,22.2991071 16.4502551,22.2991071 16.9897959,21.7595663 L21.7366071,17.0127551 Z" id="_276208968"></path>
                        </g>
                        <path d="M8.74744898,8.77614796 C14.3609694,3.16262755 21.908801,0.0344387755 29.8469388,0.0344387755 C37.7850765,0.0344387755 45.3329082,3.16262755 50.9464286,8.77614796 C56.559949,14.3896684 59.6881378,21.9375 59.6881378,29.8756378 C59.6881378,37.8137755 56.559949,45.3616071 50.9464286,50.9751276 C45.3329082,56.588648 37.7850765,59.7168367 29.8469388,59.7168367 C21.908801,59.7168367 14.3609694,56.588648 8.74744898,50.9751276 C3.13392857,45.3616071 0.00573979592,37.8137755 0.00573979592,29.8756378 C0.00573979592,21.9375 3.13392857,14.3896684 8.74744898,8.77614796 Z M29.8526786,6.53762755 C23.6422194,6.53762755 17.7417092,8.98278061 13.3450255,13.3737245 C8.95408163,17.7646684 6.50892857,23.6651786 6.50892857,29.8756378 C6.50892857,36.0860969 8.95408163,41.9866071 13.3450255,46.3832908 C17.7359694,50.7742347 23.6364796,53.2193878 29.8526786,53.2193878 C36.0631378,53.2193878 41.963648,50.7742347 46.3603316,46.3832908 C50.7512755,41.9923469 53.1964286,36.0918367 53.1964286,29.8756378 C53.1964286,23.6651786 50.7512755,17.7646684 46.3603316,13.3679847 C41.963648,8.97704082 36.0631378,6.53762755 29.8526786,6.53762755 Z" id="Shape" fill="#929292"></path>
                    </g>
                </g>
            </g>
        </g>
    </g>
</svg>