<?xml version="1.0" encoding="UTF-8"?>
<svg width="90px" height="90px" viewBox="0 0 90 90" version="1.1" xmlns="http://www.w3.org/2000/svg" xmlns:xlink="http://www.w3.org/1999/xlink">
    <!-- Generator: Sketch 49.1 (51147) - http://www.bohemiancoding.com/sketch -->
    <title>Group Copy 3</title>
    <desc>Created with Sketch.</desc>
    <defs></defs>
    <g id="Sidebar-+-Homepage" stroke="none" stroke-width="1" fill="none" fill-rule="evenodd">
        <g id="Homepage-Mouseover-Organisation" transform="translate(-118.000000, -200.000000)">
            <g id="Group-2" transform="translate(61.000000, 124.000000)">
                <g id="Group-Copy-3" transform="translate(57.000000, 76.000000)">
                    <path d="M44.9992803,90 C20.1469765,90 0,69.8530235 0,45.0007197 C0,20.1469765 20.1469765,0 44.9992803,0 C69.8515841,0 90,20.1469765 90,45.0007197 C90,69.8530235 69.8515841,90 44.9992803,90 Z" id="Fill-582" fill="#5A9EE1"></path>
                    <path d="M55.4851504,66.9613127 C37.1618661,66.9613127 22.3089225,52.1069298 22.3089225,33.7850848 C22.3089225,16.3297455 35.7958962,2.05399268 52.9129816,0.738401011 C50.3595247,0.253330561 47.7096294,0 44.9992803,0 C20.1469765,0 0,20.1469765 0,45.0007197 C0,69.8530235 20.1469765,90 44.9992803,90 C69.8530235,90 90,69.8530235 90,45.0007197 C90,41.2295488 89.5293233,37.5706495 88.6556208,34.0715211 C88.4138052,52.3300334 73.6673757,66.9613127 55.4851504,66.9613127 Z" id="Fill-583" fill="#44609D"></path>
                    <path d="M55.4851504,66.9613127 C37.1618661,66.9613127 22.3089225,52.1069298 22.3089225,33.7850848 C22.3089225,16.3297455 35.7958962,2.05399268 52.9129816,0.738401011 C50.3595247,0.253330561 47.7096294,0 44.9992803,0 C20.1469765,0 0,20.1469765 0,45.0007197 C0,69.8530235 20.1469765,90 44.9992803,90 C69.8530235,90 90,69.8530235 90,45.0007197 C90,41.2295488 89.5293233,37.5706495 88.6556208,34.0715211 C88.4138052,52.3300334 73.6673757,66.9613127 55.4851504,66.9613127 Z" id="Fill-584" fill="#5374BE"></path>
                    <path d="M82.0665,47.4962546 C81.8145,47.0485046 81.405,47.3455046 81,47.3590046 C81.356625,48.0148796 81.545625,47.6548796 82.0665,47.4962546" id="Fill-585" fill="#95D9B3"></path>
                    <path d="M60.75,54.0823149 C60.8355,54.9046899 61.5375,53.6840649 60.75,54.0823149" id="Fill-586" fill="#95D9B3"></path>
                    <path d="M60.75,52.9548736 C60.890625,53.9403736 61.615125,52.5374986 60.75,52.9548736" id="Fill-587" fill="#95D9B3"></path>
                    <path d="M52.4739814,17.0701206 C52.9103609,16.5229894 52.4828871,16.1054419 52.1058789,15.7814826 C51.5463038,15.2991433 51.2360885,15.4388057 50.9436845,14.6944193 C50.7091676,14.0983343 51.881752,14.3359044 52.1162689,14.458289 C52.947468,14.8873551 52.8762224,14.9262302 53.5129802,14.2480755 C53.2680733,14.1458483 53.0558207,13.9399542 52.8034924,13.8593244 C53.2428405,13.2833968 53.6821886,12.7060294 54.1215367,12.1301019 C54.4911234,11.6448829 53.9701397,10.7982694 53.3155704,10.9552096 C53.349709,10.2381798 55.6696449,8.88762966 56.25,8.39377177 C55.2911525,7.38733835 53.841007,7.57739445 52.8613795,8.52911475 C52.9994179,8.23107224 53.1374563,7.93302972 53.276979,7.63642702 C52.5674913,7.46364875 52.2780559,7.25631483 51.9975262,8.05109487 C51.552241,7.40893564 50.7640861,7.7184967 50.105064,7.78904783 C50.3677823,6.92083702 52.3775029,7.28367139 53.1196449,7.26063429 C52.2246217,6.10301988 51.8772992,6.1346959 50.3959837,5.86544976 C49.86461,5.76898189 47.8459837,5.3888697 48.2363504,6.3708262 C47.7405995,6.2110063 47.1513388,6.24412213 47.3517171,5.625 C46.7639406,5.74594479 46.1405413,5.69411131 46.0722643,6.41978004 C46.3334983,6.507609 46.593248,6.59687777 46.854482,6.68470672 C46.3409197,7.18864334 46.2236612,7.17712479 45.7976717,6.70774382 C45.4651921,6.34346964 44.9961583,6.30891398 44.5167346,6.17501083 C44.5271246,6.66310944 44.4647846,6.87908228 44.001688,6.87908228 C43.3619616,6.87908228 43.6365541,6.22396467 43.1942375,6.15917282 C42.5485739,6.06414477 40.7021246,5.64227783 40.8342258,6.82724879 C40.0178696,6.72358183 39.1688591,6.5767203 39.2222934,7.56443608 C39.2608847,8.26274825 38.0378347,8.10148853 37.6637951,7.68682069 C36.9335274,8.84155546 37.7409779,9.06472739 38.8838766,8.93082423 C38.8942666,9.84510924 37.4574796,8.73356904 37.125,9.54418709 L37.5880966,10.5995744 C38.1224389,11.2762892 37.987369,11.0113626 38.7740396,10.9062558 C39.6779686,10.7867508 40.3651921,11.2057381 40.7065774,12.096986 C41.2305297,13.4633742 41.3032596,13.6174348 40.6561118,14.9233506 C41.1563155,14.8427207 42.0854773,14.5374791 41.9964203,15.3581759 C41.6298021,15.3740139 41.2646682,15.3898519 40.8980501,15.4056899 C41.2691211,15.7656446 41.5630093,16.2163079 42.1389115,16.2105487 C41.1251455,17.5222237 40.328085,18.3098046 40.8743015,19.9785548 C40.9589057,20.2362824 40.6323632,20.4608941 40.7169674,20.7171819 C40.8357101,21.074257 40.9054715,21.5450777 41.0999127,21.869037 C41.4130966,22.3888116 41.9043946,22.9474614 42.5366997,22.5889465 C42.4372526,23.3520505 42.836525,23.6702505 43.53117,23.6198568 C43.8755239,23.5939401 43.9334109,22.2909039 44.0922293,21.9914216 C44.8269499,20.604876 45.950553,20.2420416 47.3368743,19.7107484 C47.6812282,19.293201 48.0270664,18.8770933 48.3714203,18.4609856 C48.56883,18.2219757 49.2605064,18.5228978 49.6568102,18.5228978 C50.4212165,18.5228978 50.5206636,18.2882074 51.0668801,17.7497151 C51.421624,17.3983993 52.1979045,17.4185567 52.4739814,17.0701206 Z" id="Fill-588" fill="#95D9B3"></path>
                    <path d="M50.7739231,15.0688613 C51.0146731,15.1903613 51.2565481,15.3107363 51.4984231,15.4322363 C51.5377981,14.8663613 51.6514231,14.8067363 51.1102981,14.6469863 C50.7919231,14.5536113 50.4082981,14.7696113 50.7739231,15.0688613" id="Fill-589" fill="#95D9B3"></path>
                    <path d="M83.5091513,63 C83.4292763,63.10575 83.3010263,63.216 83.2515263,63.3375 C83.2402763,63.47925 83.2942763,63.64125 83.3134013,63.783 C83.5091513,63.622125 83.7060263,63.462375 83.9017763,63.302625 C83.8264013,63.20025 83.6272763,63.048375 83.5091513,63" id="Fill-590" fill="#95D9B3"></path>
                    <path d="M81.0429013,63.0338381 C80.8415263,63.5817131 81.3972763,63.5299631 81.7100263,63.2880881 C81.5649013,63.0383381 81.3162763,62.9427131 81.0429013,63.0338381" id="Fill-591" fill="#95D9B3"></path>
                    <path d="M78.4086873,61.3864692 C78.2041693,61.7852382 77.0029498,61.2631089 77.0430767,62.2055236 C77.062493,62.6573663 77.0806148,63.1092089 77.1000311,63.5610516 C77.1142697,63.8766242 76.6405129,64.0760088 76.5486092,64.3600242 C76.3958679,64.8348176 76.6055636,66.1200589 77.1427469,66.318009 C77.9129253,66.6034588 78.4035096,65.7571503 78.2857176,65.1001855 C78.193814,64.5823594 79.0701347,63.4419946 79.3044242,62.9915864 C79.4506934,62.7133087 79.6357951,62.5885141 79.4312772,62.3417936 C79.0080026,61.8311397 79.771709,61.8469183 79.7768867,61.8368774 C80.0551864,61.2200763 79.6746277,60.2475388 79.4623432,59.625 C78.9691701,59.6938522 78.6481545,60.9188479 78.4086873,61.3864692" id="Fill-592" fill="#95D9B3"></path>
                    <path d="M77.625,58.52925 C77.68575,58.90725 78.521625,59.680125 78.52275,58.804875 C78.39675,58.852125 78.237,58.81725 78.111,58.865625 C78.181875,58.759875 78.18075,58.606875 78.2505,58.5 C78.04125,58.510125 77.833125,58.519125 77.625,58.52925" id="Fill-593" fill="#95D9B3"></path>
                    <path d="M81.5464113,57.616875 C81.4069113,57.5415 81.2505363,57.411 81.0986613,57.375 C80.7836613,57.733875 81.3022863,58.125375 81.5464113,57.616875" id="Fill-594" fill="#95D9B3"></path>
                    <path d="M83.8755,55.771875 C83.79225,55.555875 83.709,55.339875 83.624625,55.125 C83.50875,55.20825 83.34,55.2825 83.25,55.39275 C83.334375,55.70325 83.563875,55.85625 83.8755,55.771875" id="Fill-595" fill="#95D9B3"></path>
                    <path d="M83.6881744,56.7817891 C83.9806744,55.8795391 82.9231744,56.3115391 83.3551744,56.7199141 C83.4665494,56.7401641 83.5779244,56.7604141 83.6881744,56.7817891" id="Fill-596" fill="#95D9B3"></path>
                    <path d="M45,35.1181773 C45.138375,35.2351773 45.342,35.3105523 45.500625,35.3994273 C45.705375,34.9381773 45.262125,34.6400523 45,35.1181773" id="Fill-597" fill="#95D9B3"></path>
                    <path d="M46.125,35.0616527 C46.33875,35.1797777 46.32975,35.2709027 46.5615,35.2551527 C46.3815,35.4992777 46.373625,35.7659027 46.616625,35.9537777 C47.02275,35.7850277 46.854,35.4981527 46.59525,35.2461527 L46.875375,35.1752777 C46.65825,34.8760277 46.38825,34.7365277 46.125,35.0616527" id="Fill-598" fill="#95D9B3"></path>
                    <path d="M47.905875,36.1582418 C47.60775,35.9624918 47.331,35.8961168 47.25,36.2684918 C47.45025,36.5249918 47.687625,36.3888668 47.905875,36.1582418" id="Fill-599" fill="#95D9B3"></path>
                    <path d="M50.625,39.675375 C50.747625,39.970125 50.968125,39.985875 51.195375,39.769875 C51.139125,39.64725 50.972625,39.452625 50.86125,39.375 C50.787,39.470625 50.675625,39.56625 50.625,39.675375" id="Fill-600" fill="#95D9B3"></path>
                    <path d="M50.8815,42.2055 C50.9805,42.012 51.080625,41.8185 51.179625,41.625 C50.995125,41.731875 50.8095,41.83875 50.625,41.945625 L50.8815,42.2055" id="Fill-601" fill="#95D9B3"></path>
                    <path d="M50.018625,41.9022122 C50.10525,42.1733372 50.31675,42.3049622 50.59125,42.2318372 C50.601375,41.8144622 50.382,41.6940872 50.020875,41.8977122 L50.10075,41.7154622 C49.86225,41.5512122 49.63725,41.6153372 49.5,41.8695872 C49.577625,41.9798372 49.764375,42.1474622 49.885875,42.2025872 L50.018625,41.9022122" id="Fill-602" fill="#95D9B3"></path>
                    <path d="M47.8935,46.3888909 C47.74725,46.0491409 47.4975,46.0513909 47.25,46.3157659 C47.4255,46.5677659 47.667375,46.5970159 47.8935,46.3888909" id="Fill-603" fill="#95D9B3"></path>
                    <path d="M47.25,46.3054591 C47.34,46.6744591 47.590875,46.6744591 47.8665,46.4348341 C47.7,46.1175841 47.466,45.9938341 47.25,46.3054591" id="Fill-604" fill="#95D9B3"></path>
                    <path d="M47.25,47.458125 C47.372625,47.78325 47.58525,47.953125 47.863125,47.707875 C47.82375,47.58075 47.691,47.3445 47.597625,47.25 C47.49075,47.314125 47.334375,47.367 47.25,47.458125" id="Fill-605" fill="#95D9B3"></path>
                    <path d="M50.2031531,21.0258363 C50.6991371,21.0718757 51.1288198,21.4296679 51.6171536,21.3678435 C52.0927372,21.3060191 52.8666761,20.603589 52.8743262,20.1116248 C52.8832514,19.6341301 52.80675,19.6354456 52.4497436,19.3236928 C51.9690599,18.9040763 52.2202395,19.4881194 51.8708832,19.464442 C51.6286288,19.448657 51.6503042,19.2000441 51.3761743,19.2276678 C51.0688937,19.2579222 50.8330145,19.5525746 50.6290108,19.7827717 C51.4080498,18.1674455 48.4665719,20.0445388 49.8996977,19.9735065 C49.4330393,20.6601517 50.3893065,20.3207753 50.2031531,21.0258363" id="Fill-606" fill="#95D9B3"></path>
                    <path d="M62.7621553,11.2616312 C62.8154682,11.0809765 62.9880334,10.8909544 63.0876443,10.7290342 L63.2251353,10.8213688 C62.8940345,11.3673477 62.8351097,11.886563 63.2882689,12.375 C63.6039371,11.8705048 63.8985607,11.3941114 64.2885862,10.9418054 C64.5916276,10.5912013 64.7669988,10.5845103 64.4022267,10.2820808 C64.3685555,10.253979 64.2450941,10.1629825 64.1076031,10.0666333 L64.4176594,10.0291641 C64.9255344,10.6795214 65.4853192,10.5697903 66.0815813,10.0840297 C66.8700502,9.44036335 65.865524,8.72844968 65.448842,9.26773767 C65.1598303,8.90776628 64.8694156,9.01883552 64.759984,9.46445066 C64.2100199,8.42869655 63.5885044,9.38282146 63.7863231,9.84717117 L63.6348024,9.7628656 C63.469252,9.74546922 61.903538,10.2151717 61.9231795,10.1402334 C61.7730618,10.6835359 61.9526419,11.4529915 62.7621553,11.2616312" id="Fill-607" fill="#95D9B3"></path>
                    <path d="M64.3767038,11.4919097 C63.7118288,11.7686597 64.5263288,12.3649097 64.9560788,11.9137847 C65.4038288,11.4446597 64.7187038,10.9384097 64.3767038,11.4919097" id="Fill-608" fill="#95D9B3"></path>
                    <path d="M76.4419145,15.3021542 C76.7259813,15.3035913 77.1994261,16.1170038 77.5075409,15.5479025 C77.8968177,14.8336516 77.2099471,15.0190406 77.0175632,14.3838316 C76.7575443,13.5273054 76.7425143,13.5948502 75.8151638,13.5 C75.9474278,13.9368859 75.9639608,14.3752088 75.3943241,14.3795202 C75.2635631,15.1368848 75.8166668,15.2964057 76.4419145,15.3021542" id="Fill-609" fill="#95D9B3"></path>
                    <path d="M72.5159609,37.8071445 C72.7038359,37.6293945 72.8917109,37.4516445 73.0795859,37.2738945 C72.8039609,36.9363945 72.5024609,37.2750195 72.1447109,37.2975195 C71.7959609,37.3211445 72.1402109,37.8588945 72.5159609,37.8071445" id="Fill-610" fill="#95D9B3"></path>
                    <path d="M56.0008742,26.5922457 C56.0185428,26.768599 55.9869918,26.9621575 55.9806816,27.1399445 C55.7434182,26.7198509 55.4607214,27.0825939 55.1843347,27.008038 C55.3168489,27.0438822 54.4208009,27.7923083 54.4283731,27.640329 L54.5268122,28.3830201 C54.4801167,28.5220954 54.0055899,28.6267604 54.0005417,28.7658358 C53.9828732,29.2318099 54.4006082,29.4712489 54.7830062,29.3063657 C55.2045274,29.1242774 55.8557397,29.0740956 55.927676,28.5321318 C55.961751,28.2683188 55.9567029,27.5600381 56.1800838,27.4396017 C56.7379053,27.1399445 56.8148897,28.1421473 56.5940328,28.1722564 C56.2040626,28.223872 56.090479,28.9722981 55.833023,29.4024281 C56.0349493,29.3923917 56.2419238,29.4870203 56.442588,29.4698151 C56.1119337,29.6863139 55.7812794,29.9042464 55.450625,30.1221789 C55.9806816,30.674179 56.4703529,30.1909997 57.0092437,29.9114152 C57.5228938,29.6461684 58.010041,30.2411815 58.3697223,29.4210671 L58.1614857,29.2848592 C59.0461754,28.8160176 57.9305325,28.3185006 57.8144249,28.0116746 C57.6680283,27.6274251 57.5127975,27.2603809 57.3449462,26.8904691 C57.2023358,26.5764743 57.3588287,26.1922248 57.3070851,26.0158716 C57.2376729,25.7764325 57.4623159,25.577139 57.1581644,25.577139 L56.6937339,25.5183546 C56.633156,25.4093883 57.2515553,24.8573882 56.6609209,24.7555908 C56.0134946,24.643757 55.769921,26.2424067 55.6702199,26.6223548 L56.0008742,26.5922457" id="Fill-611" fill="#95D9B3"></path>
                    <path d="M65.8369386,24.9391423 C65.7120636,24.7625173 65.3520636,24.6196423 65.2598136,24.9425173 C65.1698136,25.2552673 65.7255636,25.1573923 65.8369386,24.9391423" id="Fill-612" fill="#95D9B3"></path>
                    <path d="M60.1920221,35.0681772 C59.2492721,34.3268022 59.6486471,36.0266772 60.1920221,35.0681772" id="Fill-613" fill="#95D9B3"></path>
                    <path d="M61.8809941,35.8949807 C62.3579941,36.1098557 62.7809941,35.3268557 62.4603691,35.0264807 C61.8517441,34.4572307 61.8618691,35.6587307 61.8809941,35.8949807" id="Fill-614" fill="#95D9B3"></path>
                    <path d="M62.3005493,34.165125 C62.3016743,34.030125 62.2420493,33.881625 62.2139243,33.75 C61.3735493,34.302375 62.3691743,34.927875 62.3005493,34.165125" id="Fill-615" fill="#95D9B3"></path>
                    <path d="M62.4236908,27.4932229 C62.8421908,26.2197229 61.0016908,27.8577229 62.4236908,27.4932229" id="Fill-616" fill="#95D9B3"></path>
                    <path d="M64.4842368,24.75 C64.0848618,24.921 64.0173618,25.19775 64.2873618,25.536375 C64.6271118,25.3575 64.7081118,25.06275 64.4842368,24.75" id="Fill-617" fill="#95D9B3"></path>
                    <path d="M63.7150757,36 C63.4338257,36.045 62.8387007,35.973 63.0412007,36.401625 C63.1210757,36.5715 63.7758257,36.792 63.9704507,36.82575 C63.9648257,36.480375 64.0874507,36.13725 63.7150757,36" id="Fill-618" fill="#95D9B3"></path>
                    <path d="M64.1396673,37.5588482 C64.5075423,37.7062232 64.5997923,37.5914732 64.5052923,37.2337232 C64.4355423,36.9682232 64.0451673,37.2325982 64.1396673,37.5588482" id="Fill-619" fill="#95D9B3"></path>
                    <path d="M69.55875,37.5572814 C70.050375,37.0229064 68.7465,37.0319064 68.625,37.3244064 C68.88825,37.6326564 69.16725,37.5707814 69.55875,37.5572814" id="Fill-620" fill="#95D9B3"></path>
                    <polyline id="Fill-621" fill="#FFFFFE" points="59.625 28.125 59.652 28.166625 59.657625 28.161 59.625 28.125"></polyline>
                    <path d="M78.9980373,34.9404462 C79.0569185,35.1364022 79.592738,35.1882729 79.6589794,35.382788 L79.4381747,36.3251055 C78.9774289,36.7026088 78.2001963,36.0455801 77.8675172,35.8078394 C77.4303238,35.4966153 77.6437684,34.6580392 78.2988224,34.9577365 C78.3061825,34.3828363 77.7144259,34.0773756 77.3375859,33.7200442 C76.968106,33.369917 76.7929342,33.3036378 76.7929342,32.8123071 C76.7929342,32.3411484 76.3748773,32.4261587 76.4028459,32.1711278 C76.454367,31.7316678 76.7502453,31.2187243 77.1756624,31.0400586 C78.1133464,30.6481467 78.3532875,30.606362 78.4018646,31.6437758 C76.592738,31.4305296 78.8213935,33.5932492 78.7875368,33.8569252 C79.173209,33.6998723 79.5147203,33.2863476 79.7296369,33.8021728 C79.7531894,34.6248996 78.6683023,33.8453984 78.9980373,34.9404462 Z M76.4617272,47.9585485 C76.0171737,47.6343566 75.5726202,47.3101648 75.1280667,46.9845322 C74.9160942,46.830361 74.6790972,46.0177202 74.531894,45.755485 C74.3125613,45.3635731 73.3689892,43.5293679 73.0539745,43.6835391 C72.9950932,42.278708 71.2831207,41.6317652 71.3552502,40.2816864 C71.5392542,40.4862875 71.5363101,41.0410157 71.7512267,41.2542618 C72.0515211,41.5496366 72.2384691,41.2009503 72.423945,41.4199599 C73.0201178,42.1245367 74.1329735,43.0077793 74.4789009,43.850678 C74.6216879,44.1993643 74.4332679,44.476008 74.6540726,44.8290169 C74.8380765,45.1243916 75.2546614,45.1056605 75.4563297,45.4298523 C75.937684,46.2035901 76.5971541,46.9931773 76.4617272,47.9585485 Z M71.8042198,33.9304087 C70.6192345,33.9030325 69.3032385,35.3568526 68.9219823,33.6119803 C68.8071639,33.0860691 69.7301276,32.8771455 69.5652601,32.3959008 C69.4077527,31.9362688 70.1687929,31.3411967 70.6059863,31.7518397 C70.267419,32.012634 70.3837095,32.6711036 70.8061825,32.8310382 C71.4715407,33.0831874 71.4008832,32.3310624 71.9911678,32.3267398 C72.2001963,33.253208 73.3763494,33.145144 73.9283611,33.8511618 C74.6879293,34.8208555 72.2090285,34.1681493 71.8042198,33.9304087 Z M72.6418057,31.0342952 C72.6859666,31.3628095 72.1810599,31.6163996 72.0765456,32.0097523 C72.0206084,31.5357118 71.3994112,31.9233011 71.2639843,31.5357118 C71.8542689,31.6293672 72.2399411,31.4607875 72.6418057,31.0342952 Z M78.749264,15.8693227 C78.4887144,15.8333014 78.232581,15.8030435 77.9926398,15.759818 C77.5142296,15.6733668 77.8248283,16.1805469 77.5230618,16.3909113 C77.1741904,16.6329746 76.5780177,16.7251891 76.1746811,16.8678335 C75.9700687,16.9398761 75.9479882,16.4326961 75.8037291,16.5105021 C75.3621197,16.7496836 74.9219823,16.9888651 74.4803729,17.2266058 C74.2713445,17.3404331 73.6648675,17.5263031 73.6516192,17.7856565 C73.6280667,18.2279983 73.6943081,18.5550718 73.0966634,18.4715023 C73.7237488,17.3764544 72.607949,16.8548658 71.6849853,17.3678093 C71.9470069,17.8576992 72.5063788,18.5493084 72.4946026,19.1098 C72.2752699,18.9685964 72.0824338,19.0564884 71.8792934,18.8490057 C71.5157017,19.2308316 70.873896,19.5737545 71.4082434,20.0737303 C70.9430815,20.0607626 70.4779195,20.047795 70.0127576,20.0333864 C70.1614328,20.2250198 70.6501472,20.6169317 70.4911678,20.8561132 C70.3204122,21.1125849 69.5387635,20.6846518 69.422473,20.5348031 C69.2428852,20.3028258 69.4946026,19.6068941 69.1840039,19.4916259 C68.81158,19.3518632 68.5201178,19.3446589 68.4156035,19.0175854 C69.0500491,19.1429396 72.3238469,20.0074511 71.3994112,18.3720835 C70.8473994,17.3937447 68.8027478,16.9384353 67.7576055,17.1934662 C67.6707556,17.0695529 67.5632974,16.7857049 67.5500491,16.6473831 C68.1197252,16.3534492 67.3454367,16.1085043 66.8832188,16.0724829 C66.3400393,16.0292574 65.5495584,16.0076446 65.531894,16.6473831 C65.3758587,16.3865888 65.1918548,16.3030193 64.873896,16.3203096 C64.3940137,16.3433632 64.4867517,16.6113618 64.3439647,16.9629298 L64.1835132,16.6473831 C63.7286555,17.0061554 63.2737978,17.3649276 62.8174681,17.7236999 L63.0309127,17.9585588 C62.3773307,18.1458697 61.9165849,19.4757765 61.6943081,20.0535584 C61.6089303,20.2740088 60.9553484,20.4036855 61.5191364,20.68177 C61.9607458,20.8993388 61.2438665,21.0837679 60.9612365,20.68177 C60.6697743,21.0621551 60.3209028,21.5981522 60.0441609,21.8690325 C59.718842,22.1874609 59.5392542,21.7883448 59.3714426,22.3084925 C59.2669284,22.6283618 59.1756624,22.8286402 59.2198234,23.1542729 C59.294897,23.7234096 59.2787046,24.5864803 59.7217861,25.0230586 C60.2988224,25.5921953 61.1319921,24.6152973 61.4160942,24.149902 C61.4367026,24.9265215 61.7163886,25.1037463 62.1771344,25.7895921 C62.3169774,25.9999566 62.2374877,26.6785981 62.4170756,26.7895437 C62.9411187,27.1151764 62.9617272,26.3486429 63.2531894,26.2492241 C63.8876349,26.034537 63.8478901,26.0777626 63.8331698,25.4164113 C63.8169774,24.7132753 63.9524043,24.842952 64.3101079,24.3141592 C65.0564279,23.2090253 63.3017664,23.2522509 64.0142296,22.079397 C64.2468106,21.697571 64.4661433,21.7969899 64.7252208,21.4410993 C64.8680079,21.2451434 65.1064769,20.3878361 65.1889107,20.3316429 C66.142787,19.6789367 66.5711482,20.0881388 65.7894995,20.9252741 C65.3199215,21.4281316 64.4396467,22.5606417 65.3096173,23.1974985 C65.9278705,23.6499262 65.954367,23.8329144 66.6388616,23.514486 C67.0937193,23.3026807 67.4470069,23.1931759 67.9578018,23.1542729 C67.9842983,23.5288946 67.9165849,23.4251532 68.250736,23.6974743 C67.7693817,24.0058167 67.1290481,23.6009372 66.6771344,23.8718174 C65.5495584,24.5461364 66.7772326,24.6095339 66.5682041,25.5648191 L66.2782139,25.5749051 C66.2958783,24.8415112 65.3287537,25.0648433 65.109421,25.6483886 C64.9754661,26.0042791 65.7453386,27.1036496 64.7561335,27.089241 L64.922473,26.7607267 C64.6074583,26.7722535 64.3380765,26.845737 64.0421982,26.9422741 C63.749264,27.0373704 63.2782139,27.5517547 63.0618253,27.5704858 C62.7821394,27.5949803 62.5819431,27.0272844 62.1609421,27.2059501 C61.826791,27.3471536 61.6162905,27.4177554 61.3704612,27.0834776 C61.033366,26.6252865 62.1844946,25.458196 61.3660451,25.0951012 C60.6447498,24.7766728 60.3047105,26.2002351 60.4872424,26.6685121 C60.8243376,27.5272602 60.656526,27.3990243 60.0309127,27.7001625 C59.6334642,27.8932367 59.4421001,28.0416445 59.2919529,28.2102243 C59.3699706,28.2837078 59.436212,28.3082023 59.4317959,28.4422015 L59.2845927,28.2174285 C59.110893,28.417707 58.9916585,28.6453617 58.6633955,29.0084566 C58.501472,29.1871223 57.6609421,30.1294398 57.3886163,30.1481709 C57.0750736,30.1683428 56.8498528,29.6856572 56.673209,30.2259769 C56.5480864,30.6106845 55.9121688,30.4536316 55.5338567,30.4637176 C55.4470069,31.4535832 57.747792,31.4824003 57.0161923,32.7402645 C56.5598626,33.5240883 56.4038273,33.369917 55.4749755,33.369917 C55.1128557,33.369917 54.0044161,33.0918325 53.860157,33.3886481 C53.62316,33.8742154 53.7762512,34.1969664 53.7394504,34.7012647 C53.7158979,35.0326608 53.3581943,36.0037954 53.3876349,36.1622892 C53.4803729,36.6593833 53.4568204,36.8884788 53.7836114,37.1276603 C53.8542689,37.1809719 55.2497547,37.3409065 55.4205103,37.3524333 C56.6334642,37.433121 57.5740922,36.7443936 57.5947007,35.5758622 C57.6035329,35.1464882 58.451423,34.8309415 58.6913641,34.4880186 C58.8591757,34.2488371 58.9062807,33.1076819 59.6040236,33.7402161 C60.1530913,34.2373102 60.4430815,33.3598311 60.752208,33.3194872 C61.4705594,33.2243909 61.6251227,33.6595284 62.0726202,34.1681493 C62.5996075,34.7661031 62.857213,34.6119319 63.4504416,35.0240157 C64.0274779,35.4260135 63.9465162,35.9403979 64.0186457,36.5830181 C64.5279686,36.4288469 64.7679097,35.8741187 64.6663395,35.3914331 C65.9087341,35.3871105 63.8596663,34.3381699 63.5578999,34.0471177 C63.2752699,33.7747966 61.7546614,32.3224173 62.9234544,32.3382667 C62.5466143,33.1998964 63.3974485,32.6955981 63.513739,33.0903917 C63.6653582,33.6076577 64.5132483,34.1984072 64.9975466,33.9635483 C65.250736,34.1206012 65.4406281,34.2891809 65.4406281,34.630663 C65.4406281,34.9750267 65.4685967,35.3986373 65.8277723,35.4620348 C65.7468106,35.9403979 66.4151129,36.0643112 66.8155054,36.2256867 C65.7453386,36.1579666 66.5004907,37.2616596 67.2615309,37.2832724 C67.1481845,36.6766735 67.7752699,36.4432554 67.4087341,36.0196448 C67.3086359,35.9029357 66.47105,34.7416086 67.0834151,35.225735 C67.3042198,35.3986373 67.8164868,34.9202743 68.2684004,34.9245969 C68.5642787,34.9260377 68.9028459,34.8208555 69.1957802,34.6565983 C69.1133464,35.3611752 68.1903827,34.6623617 67.8650638,35.4173684 L68.1064769,36.6204802 C68.8999019,36.2645897 68.3037291,36.9907793 68.6746811,37.2904766 C69.0883219,37.6247544 70.3189401,37.502282 70.2894995,36.9014465 C71.0799804,37.2155523 71.5215898,37.4633789 72.2737978,36.954758 C72.141315,37.5555935 72.1972522,39.4128524 71.2934249,39.4128524 C71.0343474,39.4128524 70.8665358,39.1967245 70.6030422,39.1967245 C70.2423945,39.1967245 70.0421982,39.5554968 69.6315015,39.5785504 C69.2311089,39.601604 67.9636899,39.3753902 67.5500491,39.2241007 C67.1364082,39.0728112 67.4087341,38.7644687 66.8655545,38.7644687 C66.2929342,38.7644687 66.2134446,38.7702322 65.7836114,39.1290044 C65.6157998,39.2687671 66.3002944,40.4862875 65.389107,40.0785262 C64.6251227,39.7356033 64.1614328,39.1246819 63.4268891,38.9171991 C63.1000981,38.8249845 62.7526987,38.7471785 62.4435721,38.6405554 C61.8518155,38.4359544 62.1344455,38.4964702 62.1344455,38.0224297 C62.1344455,37.8120652 62.1491658,36.7746515 62.0475957,36.7098131 C61.6633955,36.4648682 61.548577,36.613276 61.1128557,36.7847374 C60.6226693,36.9778117 60.5564279,36.7098131 60.0662414,36.6968454 C59.249264,36.6752326 58.2865554,37.0239189 57.4828263,37.1708859 C57.138371,37.2342834 56.9735034,37.5772063 56.6584887,37.6867111 C56.2816487,37.8163878 55.6221786,37.6867111 55.2232581,37.6867111 C54.4828263,37.6867111 54.3503435,38.4820617 53.6010795,38.8293071 C52.9916585,39.1117142 53.2227674,40.4545887 52.5647694,40.8407372 C51.7139352,41.3392721 51.4519136,41.5438732 50.9484789,42.3550731 C50.5274779,43.0337147 50.0902846,44.0869778 49.5,44.5840719 L49.5073602,44.6762865 C50.3081452,45.0970154 49.8930324,46.497524 49.8400393,47.1905741 C49.7958783,47.7597108 49.732581,47.7294529 49.9033366,48.2510415 C49.9533857,48.402331 50.0917566,48.8734898 50.2227674,49.1342841 C50.5495584,49.7812268 50.9867517,50.3618904 51.5387635,50.8849199 C52.2482826,51.5549163 53.3213935,51.997258 53.9484789,52.6989531 C54.422473,52.3790839 54.9980373,51.8690221 55.6781158,52.0116665 C56.6908734,52.2263535 56.6908734,52.2494072 57.6138371,51.821474 C58.0053974,51.6399266 59.0122669,51.147155 59.3964671,51.5664431 C59.767419,51.9698818 59.9617272,52.2883102 60.5019627,52.4107826 C60.8949951,52.5015563 61.1349362,51.9353013 61.5294406,52.4338363 C59.9293425,52.3272132 62.3125613,53.8516351 61.5529931,52.4554491 C61.9062807,52.7954902 61.7693817,53.5519378 61.5559372,53.9582582 C61.3660451,54.3227939 60.9656526,54.6873296 61.2703631,55.0144031 C61.6589794,55.4308094 62.1153091,55.8328073 62.4568204,56.2881167 C62.9793916,56.9854893 63.5049068,58.345654 63.4857704,59.3153477 C63.4739941,59.8455815 63.2634936,59.9608497 62.8895976,60.3542024 C62.5922473,60.6668674 62.6481845,60.9838549 62.6099117,61.413229 C62.530422,62.3195252 62.5642787,62.8699308 63.1118744,63.6638406 C63.6903827,64.5024167 63.18842,64.8655115 63.5299313,65.7026468 C63.889107,66.5830077 64.2482826,67.4518417 64.5662414,68.3451703 C64.6825319,68.6693621 65.296369,69.0223709 65.3243376,69.2586708 C65.3729146,69.6635503 64.7384691,69.5655723 64.9769382,70.0929243 C65.2095191,70.6087495 65.2345437,70.6318032 65.7718351,70.8320817 C66.326791,71.0395644 66.2841021,70.4272021 66.7654563,70.4300838 C67.7163886,70.4358472 68.3287537,70.3191382 69.185476,70.1707304 C69.8846909,70.0511396 70.8900883,68.6045237 71.3876349,68.1203973 C71.5569185,67.9546993 71.9381747,67.7212812 71.9352306,67.469132 C71.9322866,67.2501224 71.8189401,66.5815668 71.9146222,66.4273956 C72.1045142,66.1190532 72.7639843,66.1003221 72.9730128,65.8020656 C73.1614328,65.5340671 73.1555447,64.9044145 73.1555447,64.5672551 C73.1555447,63.2373482 73.4352306,63.1926818 74.4995093,62.3353746 C74.9367026,61.9823657 76.0628067,61.7143671 76.0009814,60.9492745 C75.9553484,60.3916646 76.0407262,59.5271531 75.7993131,59.0718437 C75.4165849,58.3442132 74.8881256,57.5488626 75.2090285,56.6886737 C75.7257115,55.2996919 77.0431796,54.2752458 78.1104024,53.1571442 C79.3734053,51.8330008 80.483317,50.8157589 80.5686948,48.8893392 C80.6025515,48.128569 76.2600589,50.6111579 76.9121688,48.4167395 C77.4023553,48.8187374 79.1334642,47.7697968 79.6943081,47.5464646 C80.155054,47.3620355 80.6157998,47.1776064 81.0765456,46.9946181 L81.142787,46.5263411 C81.3680079,46.4182771 81.7536801,46.6127922 81.9744848,46.497524 C82.407262,46.272751 83.7365064,44.2757295 83.7365064,43.7944848 C83.7365064,42.7786838 81.5534838,43.05965 82.1908734,41.7052487 C81.7713445,41.7585602 81.513739,41.8536565 81.2914622,42.1821708 C80.9013739,42.7585118 80.8321884,42.7066411 80.1182532,42.7397808 C80.1506379,42.4285566 80.3346418,41.9761289 80.0578999,41.7816138 C79.6221786,41.4747123 79.3895976,42.1230959 79.4396467,42.4775456 C79.1069676,42.0236771 78.5049068,41.4703897 78.3194308,40.9473603 C78.2031403,40.6217276 78.092738,39.6981412 78.8272816,40.0367415 C79.1746811,40.1966761 79.1526006,40.3465248 79.1643768,40.6894477 C79.173209,40.9761773 79.6148184,41.0986498 79.8473994,41.2340899 C80.4568204,41.5885396 81.0765456,42.1115691 81.7124632,41.5525183 C82.1069676,41.2067137 82.360157,42.0179137 82.8724239,42.0856337 C83.626104,42.1879342 84.2134446,42.2642994 84.9214917,42.2167513 C85.2865554,42.1922568 86.0063788,41.8867961 86.3375859,42.1634398 C86.9337586,42.6619747 87.3179588,43.2700145 88.1216879,43.010661 C88.0024534,43.1158432 87.8596663,43.3045949 87.6020608,43.3968095 C88.0024534,44.1374077 88.8518155,44.8203717 89.2713445,43.6662489 C89.5260059,42.9659946 89.3567223,45.0235319 89.3876349,45.0869295 C89.5878312,45.4932499 89.7880275,45.8995703 89.9867517,46.3058907 C89.9941119,45.9975482 90,45.6892058 90,45.3794225 C90,34.0917841 85.7576055,23.7738395 78.749264,15.8693227 Z" id="Fill-622" fill="#95D9B3"></path>
                    <path d="M42.2441815,16.5470191 C42.4838065,16.1206441 42.3094315,15.5862691 41.8144315,15.7977691 C41.3453065,15.9991441 41.8470565,16.6246441 42.2441815,16.5470191" id="Fill-623" fill="#A7D6DE"></path>
                    <path d="M30.9508659,45.806625 L31.2377409,45.556875 C31.1657409,45.401625 31.0262409,45.2565 30.9272409,45.115875 L30.8608659,45.201375 L30.6606159,45 C30.3478659,45.050625 30.2972409,45.208125 30.4828659,45.4635 L30.8349909,45.24525 C30.7247409,45.442125 30.7494909,45.646875 30.9508659,45.806625" id="Fill-624" fill="#95D9B3"></path>
                    <path d="M31.9245546,46.7835848 L32.1900546,46.684443 C32.1529296,46.5173183 32.0303046,46.2510517 31.9346796,46.125 C31.6500546,46.320451 31.7333046,47.139079 31.8851796,47.3869335 C31.6140546,47.6277064 31.6860546,47.589466 31.8053046,47.9435439 C30.9401796,47.9265481 32.2226796,48.8740605 31.8953046,48.0129431 C32.0055546,47.9732864 32.0933046,47.8429858 32.2013046,47.7976638 L31.9830546,47.4308391 L32.2789296,47.2311392 C32.1675546,47.0909244 32.0584296,46.8855592 31.9245546,46.7835848" id="Fill-625" fill="#95D9B3"></path>
                    <path d="M31.6764362,48.5010973 C31.3456862,48.6540973 31.5234362,48.9589723 31.8519362,49.1434723 C32.0971862,48.8588473 32.1759362,48.0702223 31.6764362,48.5010973" id="Fill-626" fill="#95D9B3"></path>
                    <path d="M29.25,45.201826 L29.462625,45.451576 C29.628,45.514576 29.85075,45.508951 30.02625,45.533701 C30.2175,44.964451 29.583,44.845201 29.25,45.201826" id="Fill-627" fill="#95D9B3"></path>
                    <path d="M28.1556208,46.125 C28.3814593,45.8090662 28.8223251,45.7637858 29.2079324,45.8975688 C29.5550992,45.3099525 27.6522891,44.6101642 27.2126246,45.2615848 C27.424048,45.3325927 27.4624886,45.4674048 27.5573888,45.5178308 C27.3808023,45.4890159 27.1777878,45.5878096 27,45.561053 C27.0240254,45.6670503 27.0192203,45.8059789 27.0744787,45.9016852 C27.3699909,46.0282646 27.9706254,45.6701376 28.1556208,46.125" id="Fill-628" fill="#95D9B3"></path>
                    <path d="M35.301375,79.8774827 C35.15175,79.9258577 35.006625,80.0754827 34.875,80.1643577 C34.932375,80.2791077 35.125875,80.4816077 35.233875,80.5536077 C35.429625,80.3466077 35.625375,80.1407327 35.82,79.9348577 C35.656875,79.9168577 35.4645,79.8628577 35.301375,79.8774827" id="Fill-629" fill="#95D9B3"></path>
                    <path d="M36.2958378,80.301375 C36.0573378,80.41275 35.9482128,80.58375 36.0235878,80.82 C36.4004628,80.674875 36.7357128,80.605125 36.9359628,80.2215 C36.8212128,80.103375 36.5827128,79.93575 36.4285878,79.875 C36.3869628,80.008875 36.3037128,80.163 36.2958378,80.301375" id="Fill-630" fill="#95D9B3"></path>
                    <path d="M25.875,44.3451015 C25.015701,43.915934 24.2103745,43.3675534 23.3908447,42.8653679 C23.0925757,42.6820777 22.6054028,42.7461548 22.2929305,42.8579171 C22.2204937,42.8847401 20.9152114,43.544883 21.5472578,43.5568043 C22.4775732,43.5746863 23.1337652,43.2587714 23.9177868,44.0008734 C24.1535614,44.222908 24.0782839,44.8562279 24.2515641,44.9009329 C24.7643028,45.0365379 25.0171213,45.0723018 25.4900909,44.7504262 C25.6363847,44.6565459 25.754272,44.4717655 25.875,44.3451015" id="Fill-631" fill="#95D9B3"></path>
                    <path d="M25.8853225,43.1744466 C26.1283225,43.3931665 26.2183225,43.5999759 26.4275725,43.875 C26.6548225,43.6974254 26.6503225,43.4592156 26.4871975,43.2318335 L26.2295725,43.3704283 C26.5141975,43.0975698 26.2419475,42.7954764 25.9033225,42.75 C25.8976975,42.8831809 25.8560725,43.0455967 25.8853225,43.1744466" id="Fill-632" fill="#95D9B3"></path>
                    <path d="M27,42.7621501 C27.019125,42.9939001 27.113625,43.1964001 27.277875,43.3662751 C27.687375,43.1030251 27.446625,42.6721501 27,42.7621501" id="Fill-633" fill="#95D9B3"></path>
                    <path d="M26.4285,41.7457659 C26.195625,41.5199647 26.01225,41.6152246 25.875,41.9944999 C26.1945,42.2361777 26.13375,42.4725633 26.470125,42.6401501 C25.9335,42.9682673 26.55225,43.7797401 26.897625,43.875 C26.937,43.329902 26.7345,43.1693715 26.593875,42.7248255 C26.47575,42.3508424 26.836875,42.0033203 26.4285,41.7457659" id="Fill-634" fill="#95D9B3"></path>
                    <path d="M24.7513108,45.3335927 C25.0539358,45.6215927 25.4791858,45.6744677 25.6681858,45.2435927 C25.4308108,44.9567177 24.7153108,44.8509677 24.7513108,45.3335927" id="Fill-635" fill="#95D9B3"></path>
                    <path d="M18.1998908,54 C18.1976408,54.136125 17.7611408,55.03275 18.1852658,54.865125 C18.6577658,54.6795 18.6802658,54.235125 18.1998908,54" id="Fill-636" fill="#95D9B3"></path>
                    <path d="M24.7318036,12.1501325 C24.5920442,11.6786924 24.2536795,12.0388203 24.2622612,11.4023761 C24.2757467,10.5262832 24.508679,9.90424418 23.7645217,9.40268427 C23.6186325,9.61221321 23.4727434,9.82305171 23.3268542,10.0325807 C22.4784903,9.25077579 22.095991,8.62480808 20.9448152,9.26387135 C20.3379653,9.60042721 20.2472443,9.93043529 20.3036384,10.5721177 C20.3293836,10.8615295 21.1949109,10.97808 21.4511364,11.060582 C21.433973,11.1849898 21.342026,11.3905901 21.2709204,11.4901163 C20.9877238,11.3015403 20.7057531,11.1129643 20.4237825,10.9243882 C19.9052016,11.9720329 20.7155608,11.3657085 20.6836858,12.1056076 C20.649359,12.8900316 20.9080364,12.7616951 21.5957996,12.9659858 C22.0236594,12.9384851 22.6427689,13.0969414 22.8303407,12.6241917 C22.9799077,12.8036009 23.3403397,13.4374259 23.5475269,13.4858795 C23.9802905,13.5867153 24.3174293,13.1283707 24.2634871,12.7197893 C24.3664677,12.8428876 24.5479097,12.888722 24.6521162,13.0105107 C24.6729576,12.7800289 24.7955535,12.3675188 24.7318036,12.1501325" id="Fill-642" fill="#95D9B3"></path>
                    <path d="M28.125,10.4923363 C27.7020349,10.0482274 26.7165698,9.903604 26.6453488,10.652318 C26.309593,10.4040265 26.0261628,10.5166536 25.875,10.8737325 C26.2892442,11.4535059 26.3924419,11.6889988 26.4302326,12.375 C26.7252907,12.2188579 27.5247093,11.9654471 27.6860465,11.7081966 C27.9825581,11.2308115 27.4055233,10.8660534 28.125,10.4923363" id="Fill-643" fill="#95D9B3"></path>
                    <path d="M28.8921963,10.9526777 C29.3253311,11.4780527 30.0199075,10.7119277 30.375,10.4531777 C29.2407853,10.1235527 27.7813943,9.6713027 28.1976199,11.1979277 C28.5071876,11.2766777 28.7998463,11.2238027 28.8921963,10.9526777" id="Fill-644" fill="#95D9B3"></path>
                    <path d="M29.933912,7.18573381 C30.0199298,7.86558657 30.9731762,7.81191398 30.4923226,8.53442956 C29.9663449,8.3321252 29.3896027,7.86833901 29.25,8.67893268 C29.7548258,8.85921752 30.2808035,9.2679549 30.4951429,8.55369664 C30.3470795,9.54595137 32.1830659,9.67256363 32.8937704,9.89963995 C33.925984,10.2285566 34.0232828,10.2643383 34.875,9.54870382 C34.632458,9.35740921 34.1868576,8.82894068 33.8893206,8.77251565 C33.5607608,8.70920952 33.0982389,8.98170111 32.7175044,8.94729561 C31.2693031,8.81380225 32.194347,8.25780931 31.5964527,7.42244368 C31.3200677,7.0343496 29.8168714,6.26229009 29.933912,7.18573381" id="Fill-645" fill="#95D9B3"></path>
                    <path d="M29.219532,7.06601001 C28.4601744,6.4908651 27.7794287,6.79668829 27,7.22385423 C27.3629529,7.23273297 27.7259057,7.24161171 28.0888586,7.25049045 C28.0135918,7.36591404 27.9701044,7.51882563 27.8496777,7.61747828 C28.2226661,8.37217099 29.4587129,7.24555781 29.219532,7.06601001" id="Fill-646" fill="#95D9B3"></path>
                    <path d="M32.625,11.5458307 C32.8927716,12.1353307 34.0932508,12.0172057 34.875,12.0768307 C34.3538339,11.7325807 33.3240815,10.7673307 32.625,11.5458307" id="Fill-647" fill="#95D9B3"></path>
                    <path d="M34.2941884,4.52337013 C33.703888,5.85466242 35.9572174,5.25213789 36.4726065,5.12876382 C36.5400266,5.52470851 35.5437075,6.13584053 35.2515537,5.91634946 C34.5743563,5.4128111 34.458993,5.41137652 33.6050052,5.49458229 C33.8567069,5.83457827 34.1084086,6.17457425 34.358612,6.51457024 C33.7743045,6.66089762 33.9061483,5.96655983 33.2274526,6.40697657 C32.842409,6.65802846 33.5480727,7.46713282 34.0619636,7.31650169 C34.0065293,8.35513921 33.2019828,7.01810859 32.9367971,6.96215989 C32.7000777,6.91051493 32.3449985,6.98941695 32.3449985,7.21321177 C32.3449985,7.51877778 31.7786697,7.49869363 31.5,7.56038067 C31.7561964,8.30492883 32.7150599,8.42399916 33.4162289,8.49572827 C33.8447211,8.54020031 34.0424867,8.71808851 34.4020605,8.9605329 C34.6537622,9.13124818 35.1766425,8.70087352 35.4328389,8.56889196 C35.2785218,8.46416746 35.1796389,8.26619511 35.0163325,8.17581643 C35.4433264,8.26619511 36.1789546,7.68518932 36.7273047,7.59911439 C37.2936335,7.51017029 36.0096552,6.6221639 36.4471367,6.69102385 C38.0292616,6.9449449 38.8712637,6.51170107 40.3799756,5.94934485 C40.0503662,5.86183533 39.7222551,5.77432582 39.394144,5.6868163 C40.0833272,5.36546989 41.1755327,6.00529355 41.625,5.14310965 C40.3050644,4.69265083 38.9851287,4.2436266 37.6681896,3.79173321 C36.9160809,3.53350841 36.4411438,4.37704275 35.9692032,4.00261679 C35.5751702,3.68987787 34.345128,2.79182941 34.4814664,3.94953725 C33.9600843,3.30684442 33.657443,3.5263355 32.9412918,3.74582658 C32.9772492,4.47029059 33.717372,4.40573439 34.2941884,4.52337013" id="Fill-648" fill="#95D9B3"></path>
                    <path d="M29.2953107,17.9052141 C29.2810702,18.3123273 29.2655351,18.7194406 29.25,19.125 C29.6565017,18.8297652 29.9594361,18.526761 30.4630322,18.6510704 C31.1841197,18.8282113 30.6869965,19.4466506 31.5,18.6619475 C30.9912255,18.0668163 30.4824511,17.4701312 29.9749712,16.875 C29.7484177,17.2184047 29.5218642,17.5618094 29.2953107,17.9052141" id="Fill-649" fill="#95D9B3"></path>
                    <path d="M37.5118026,28.125 C37.2376336,28.3637121 36.023802,29.123649 36.0008539,29.4357268 C35.959789,30.011702 37.4115558,30.2175638 37.8222053,30.355535 C38.4104003,30.5526368 38.3053223,29.1871595 38.0226989,29.2189148 C36.7255295,29.3656461 38.126569,28.7141153 37.5118026,28.125" id="Fill-650" fill="#95D9B3"></path>
                    <path d="M9.29651049,23.625 C9.68238549,23.2762939 9.25038549,22.4783812 9.68351049,21.8860376 C9.41688549,20.6602366 8.68113549,21.9499924 9.17388549,22.5331996 C8.84313549,22.7189732 9.04113549,23.3676579 9.29651049,23.625" id="Fill-651" fill="#95D9B3"></path>
                    <path d="M32.3940931,81 C32.0960621,81.7039616 31.798031,82.4061936 31.5,83.1084256 C32.922494,83.2710114 33.6377685,83.4699195 34.875,82.5912646 C34.2547733,82.4563531 33.5878282,82.4442456 33.1077566,81.9651366 C32.8983294,81.6416948 32.6357399,81.3147937 32.3940931,81" id="Fill-652" fill="#95D9B3"></path>
                    <path d="M29.7061895,75.6135 L29.4418145,75.375 C28.9580645,75.839625 29.5194395,76.852125 29.7061895,75.6135" id="Fill-653" fill="#95D9B3"></path>
                    <path d="M25.2795535,55.7972948 L25.2941728,55.8205081 L25.2795535,55.7972948 Z M28.2692041,31.2462601 C28.165407,31.317351 27.9578127,31.4653362 27.8057717,31.5610913 C27.9607365,31.4551803 28.1142394,31.3507202 28.2692041,31.2462601 Z M42.710167,57.362746 C42.7496391,56.3355546 37.5846339,55.0776804 36.7644901,54.8223334 C36.3083674,54.7788084 35.8522446,54.7338325 35.3961219,54.6888566 C35.7060515,54.0432349 35.736752,53.8227079 35.6753509,53.1103478 C35.6168736,52.421201 35.4282844,52.5749896 34.8888316,52.2412975 C34.2543531,51.8495719 34.1768707,51.7494643 33.5014582,51.6740209 C33.0219446,51.62034 33.1008889,52.0526889 32.6213753,51.6217908 C31.7412923,50.8296347 30.8919099,50.2768665 30.1477866,49.3671928 C29.988436,49.1727808 29.0513377,49.5427438 28.6873166,49.444087 C27.9022592,49.2322651 27.7326751,49.1205508 27.2063797,48.5082983 C26.8087342,48.9188847 26.405241,49.2046992 26.4534848,49.8343617 C25.5280819,49.6994341 26.4242461,48.6998085 26.6756984,48.3559606 C25.8657882,48.0483835 24.9754717,49.2308143 24.4272472,49.6791224 C23.9842819,50.0418312 24.0208302,50.1172746 23.4813773,49.8967476 C22.7679546,49.6036789 23.0077114,49.8082467 22.3659233,49.893846 C21.6422671,49.9896011 21.278246,50.1216271 20.8864483,49.3193152 C20.8016562,49.1423133 21.342571,47.3606876 21.3586523,47.3519826 C21.0516466,46.9892737 20.871829,46.5453181 20.3791579,46.5627282 C19.8397051,46.5830399 19.2008409,46.7818043 18.9055306,46.3117337 C19.1876835,45.8373105 21.0501847,43.1837328 19.5005369,43.5377366 C18.3631539,43.7959853 18.1614073,43.6813693 17.782767,44.7723974 C17.6161067,45.2526239 16.0372203,44.9232843 15.9144181,44.5359113 C15.3983561,42.8993691 15.6117982,41.7865784 16.410013,40.3038247 C16.5752113,39.9991493 17.7418329,39.0865739 18.0766153,39.0532047 C18.3149102,39.0285405 18.8368198,39.4057577 19.0590335,39.508767 C19.3806585,39.658203 19.863096,39.605973 20.2139596,39.6349897 C19.9771267,38.6469709 21.3908148,39.0604589 22.0106739,39.0735164 C22.887833,39.0909265 22.2358114,40.6201068 22.243121,40.9349381 C22.2592023,41.6197324 22.8951427,42.6019478 23.4565245,41.73725 C23.7649921,41.261376 24.0222921,41.12935 23.7518347,40.6288119 C23.6100273,40.3647598 23.4521387,39.89614 23.4609103,39.6016205 C23.4843012,38.7006518 24.2064955,38.2436386 24.8146592,37.7242396 C25.2941728,37.3151041 26.6815461,37.0379945 26.6157592,36.5693747 C26.4520228,35.386944 27.007557,35.1432036 27.8291626,34.2625466 C28.3452246,33.7112292 29.172678,33.7736151 29.9051059,33.6531958 C29.6609633,32.7464238 29.5176939,32.7449729 30.3349138,32.2850581 C30.8422042,31.9992436 31.3202559,31.6684531 31.8918713,31.5349763 C30.8699809,32.154483 31.8830997,33.2295519 32.4927253,32.3401899 C32.7938832,31.9005868 33.0628787,32.0064978 33.5994077,31.9818336 C33.8888702,31.968776 34.1944139,31.0649057 34.3303736,30.8110095 C33.5760168,30.5904825 32.8055787,32.0123011 32.7266343,30.4250873 C32.7047054,30.0043451 33.163752,29.5952095 32.8699037,29.2441074 C32.583365,28.9017102 31.7310588,29.2629682 31.3027127,29.3674284 C32.3801565,28.5346489 32.7880355,28.6275024 34.1008503,28.9220219 C34.7806486,29.0758105 34.815735,28.8277177 35.3040202,28.3126711 C35.6168736,27.9833315 36.5071901,27.9470606 36.9457697,27.838248 C37.8039237,27.6235244 35.6958179,25.3065404 35.587635,25.1774161 C35.1242026,24.6246478 35.2046088,22.9184655 35.0920401,22.1930479 C34.7587196,22.4150257 33.8479361,23.2942319 33.4692957,23.275371 C32.5073446,23.2289443 33.3830417,22.3091147 33.3172548,21.8854708 C33.1871429,21.0483389 31.0337173,19.5090026 30.5629752,20.421578 C30.1916445,21.1426431 29.8188519,21.8622575 29.4475212,22.5833226 C29.2253076,23.0127698 29.5293894,23.654039 29.301328,24.0892896 C29.2106882,24.261939 29.0747286,24.7276571 28.9139161,24.8335681 C28.700474,24.9728483 28.0616098,24.6957388 27.8920257,24.8741915 C27.5440859,25.2383512 27.9943609,26.2727967 27.6157206,26.7689824 C26.4637183,28.2793019 27.4724513,24.7218538 27.177141,24.5941803 C25.8102348,23.9993378 24.6918569,23.5205622 24.11147,22.0668252 C23.8834086,21.496647 22.9126858,21.8999792 23.5573978,21.0454372 C23.9491955,20.5289398 24.3000592,19.8949248 24.817583,19.4944943 C25.4286706,19.0229728 25.8292399,18.6457556 26.5762871,18.4760079 C27.1522882,18.3454327 27.9300359,17.8884196 27.5046138,17.1789612 C27.8598632,17.1035177 28.6054485,16.7799814 28.9358451,16.9366717 C29.7369837,17.3196922 29.7603746,17.2602079 30.5512798,16.8293098 C30.888986,16.6450538 30.931382,15.5003447 31.0132502,15.1289309 C31.0702656,14.8692314 30.2574315,14.238118 30.0396036,14.0204927 C30.6433815,14.1162479 31.1389764,14.2917989 31.853861,14.6414502 C32.5775173,14.9940032 32.6447662,16.1619256 33.6549611,15.8282335 C33.4868389,16.6943822 32.4284003,19.2870248 31.2471593,17.7984678 C30.4255536,18.8923976 31.0790372,19.672947 32.2939025,18.9112585 C32.4415576,19.2884757 32.6155275,20.2692403 32.9517719,20.4854148 C33.163752,20.6217933 34.5277344,21.6141646 34.6271458,21.4879419 C34.8025776,21.267415 35.8697878,20.174936 35.7440617,19.9718191 C35.4268225,19.4596742 34.4809526,18.5978781 35.2484668,18.1408649 C35.4911475,18.545648 35.7323662,18.9489802 35.9750469,19.3523124 C36.2776668,19.0897112 37.3931208,18.4237778 37.4676793,18.0567165 C37.6577305,17.1252802 36.6241447,17.5315141 36.2455043,17.6490318 C35.802539,16.4433877 35.5715537,16.2315657 36.2338089,15.1434392 C36.3507634,14.9504782 35.4604469,14.2018471 35.3069441,14.0379028 C34.9049128,13.6142589 34.8040395,13.6853498 34.3289117,14.1133462 C33.9444236,13.2791159 34.0116724,12.7510119 33.0628787,12.8772345 C32.0190593,13.0150639 32.241273,12.1851861 32.0424502,11.2537499 C31.6448048,11.5265069 31.2471593,11.7992639 30.8495139,12.0734718 C30.4723354,12.3317205 31.0483366,13.1688524 30.2998275,12.9947522 C30.2121116,12.1967928 30.8626712,11.578737 31.2807837,10.9635828 C30.5205792,10.891041 29.6551155,10.8054417 29.1463632,11.4945885 C28.8832155,11.851494 28.5922911,13.9058768 29.0206371,13.9261884 C29.4051252,13.9450493 29.7252883,13.9711643 30.0205985,14.0175911 C29.6843542,14.5413426 29.2282314,15.9094803 28.4782604,15.5264598 C28.6259155,15.2754653 29.152211,14.7038362 28.8656723,14.5311868 C28.4358644,14.2729381 28.2268081,14.2976023 27.9007973,14.7734763 C27.864249,13.506897 28.3262195,11.2929224 26.5163478,12.1967928 C25.6538081,12.6276909 26.5251194,13.1427374 26.4988047,13.6955056 C26.4578706,14.5326376 25.9695853,14.5747118 25.5792495,15.2537027 C25.5353916,14.8576247 25.8219302,14.5485968 26.019291,14.2047488 C26.256124,13.7898099 26.0514535,13.5576763 25.8847933,13.1122699 C25.6245694,13.2718617 25.3643456,13.4300028 25.1041217,13.5895947 C24.839512,13.7506374 25.1275126,14.1989455 24.9725478,14.4151199 C24.5471256,15.0070607 24.1392467,14.7125412 23.5588597,14.441235 C23.273783,14.3077581 22.3410705,13.3255426 22.3147557,13.3327968 C21.3528046,13.5852422 21.4946119,13.7042106 21.3966625,14.6849753 C20.9873216,14.6182369 21.1130477,14.3715949 21.0925807,13.9769677 C21.0794233,13.7085632 20.2592795,13.6897023 20.0253704,13.6418247 C19.0400284,13.4445111 19.1072772,13.4488636 19.6379585,12.60883 C19.0283329,12.238867 18.6160681,11.9690116 18.1570215,11.4336534 C17.6862795,10.8852377 17.3588067,10.1699759 16.5240437,10.3223136 C16.645384,10.7285475 16.2214238,11.1608964 16.1848755,10.8547701 C16.1556368,10.6124807 16.1263982,10.3687403 16.0971596,10.125 C12.7741885,12.7727744 9.82985771,15.8717586 7.36211675,19.329099 L7.53754857,19.6221678 C8.1632554,20.1198043 8.06530597,18.439737 8.14132642,18.3178669 C8.16471733,19.2246389 8.18664631,20.131411 8.21003722,21.0396338 C8.21734688,21.3283501 8.19249404,21.5082536 8.2275804,21.795519 C8.28167188,22.2220646 8.63984518,22.3453856 8.6910128,22.7240536 C8.77726678,23.3464619 8.17641279,24.1241097 8.74364234,24.6348037 C9.35619179,25.1861211 10.0827719,25.7475943 9.64419236,26.6674239 L9.23485145,26.3859619 C10.3766202,26.3438876 8.72902303,24.0689779 7.97174233,24.6565662 C8.56967245,25.1701619 8.44540825,25.8955795 9.05941962,26.3569452 C8.57844405,26.3656502 7.28755822,30.1030019 7.03610594,30.6630243 C6.40601332,32.065982 6.9834764,33.6589991 7.18814686,35.1562612 C7.22177129,35.4014523 7.52877698,35.4522316 7.73783323,35.5581425 C8.00098096,35.6930702 7.9015696,36.3938237 7.95858494,36.6694824 C8.10331619,37.3847442 8.42786506,38.1957611 8.66177416,38.9269821 C8.77726678,39.2867892 8.36792586,39.1025331 8.39131677,39.4492828 C8.43517472,40.1065112 8.82697246,39.8859842 9.07988667,40.398129 C9.21292247,40.6650827 8.90884064,41.1786784 9.14128781,41.3992054 C9.48922759,41.7270942 9.83716737,42.0549829 10.1851071,42.3828717 C10.0111373,41.2294577 9.89125885,40.0803961 9.55062873,38.9647038 C9.35619179,38.3306888 9.33572474,38.02021 9.41028327,37.3586291 C9.43513611,37.1424547 9.65150202,37.2962432 9.7055935,37.4181134 C9.82985771,37.6981246 9.68658839,38.0738909 9.6412685,38.3698613 C9.51408043,39.2142475 11.0140225,41.1322517 11.410206,41.8939402 C11.6996685,42.4525118 11.7084401,42.6875471 11.7084401,43.3389722 C11.7084401,44.0861523 12.054918,44.3139335 12.549051,44.8971693 C12.9964021,45.4252733 14.5986794,47.1488656 15.3881226,46.6889508 C16.2214238,46.202921 16.2711294,46.5743348 17.010867,47.1517673 C17.3412636,47.410016 17.7739954,47.7495114 18.1350926,47.9642351 C18.4567176,48.1557453 19.069267,48.2689105 19.3031761,48.5344133 C19.5897147,48.8579496 19.4376738,49.5369405 19.670121,49.7516641 C20.5955239,50.6062061 21.0779614,50.906529 22.329375,51.1212526 C22.2138824,50.3290966 22.9653154,50.1056679 23.3556512,50.7440355 C23.639266,51.2112044 23.5003824,52.1629524 23.3015597,52.6475313 C22.9185336,53.5804184 22.8366654,53.9286189 21.9887449,54.4509196 C21.5677085,54.7106191 21.7343688,55.7378105 22.1188568,55.9322224 C21.1598295,56.8128794 21.7007443,57.3729019 22.2884409,58.4363641 C22.8761375,59.4983756 23.488687,61.4918232 24.539816,62.1650108 C25.4462137,62.7438941 27.0470291,63.2009072 27.0981967,64.3499688 C27.1800649,66.1852754 27.2619331,68.020582 27.3438013,69.8544378 C27.4198217,71.5780301 27.4958422,73.3016225 27.5733246,75.0252148 C27.5981774,75.6069997 27.5660149,75.5707288 28.1113155,75.8783059 C28.6697735,76.194588 28.3306053,77.3334937 28.3028286,77.9225328 C28.2823615,78.3940543 27.1610598,78.4187185 28.0221377,79.0512827 C28.6566161,79.51555 28.7984235,79.673691 28.2355797,80.3947562 C27.6946649,81.0897063 30.2267309,82.9714396 30.7237877,83.25 C30.675544,82.5028198 31.0571082,82.2010461 31.4839923,81.7092129 C30.6506911,81.1506413 31.3421849,80.6007748 31.6872008,79.9333905 C31.8523991,79.6156576 31.9635059,79.2587521 32.0980037,78.9279617 C32.2105724,78.6552047 31.4386724,78.4694977 31.3684997,78.2301099 C31.1726008,77.5496682 32.0819224,76.7168887 31.8567849,75.9290852 C31.6842769,75.322636 32.0950798,75.4053336 32.6520758,75.2022167 C32.8830611,75.1180682 32.6199133,74.3839456 32.5804412,74.1561644 C33.4342094,74.2635262 33.7748395,73.8761532 34.1607895,73.2145723 C34.6797753,72.3252103 34.3961605,72.3121528 33.7280577,71.5170951 C34.1242412,71.6302602 34.5759781,71.9363865 34.8873696,71.6273585 C35.2952486,71.2211247 35.8142344,70.8279483 36.1563265,70.3651318 C36.8083481,69.4801223 37.1445924,68.4398734 37.1694452,67.3386894 C37.1884504,66.5218692 38.5071129,65.6832864 39.3243328,65.6832864 C40.5801322,65.6832864 40.865209,64.3499688 40.9266101,63.2676456 C40.9573107,62.7279349 41.056722,62.14615 41.0201737,61.6078901 C40.9675442,60.8273407 40.5099595,61.1421719 41.2116868,60.5081569 C41.5888652,60.1672106 42.4207044,59.6753775 42.6399942,59.2169135 C42.8490505,58.7787613 42.6926238,57.8502267 42.710167,57.362746 Z" id="Fill-654" fill="#95D9B3"></path>
                    <path d="M19.327649,8.76944298 C19.5809603,8.62046768 19.6331126,8.20546506 19.9400662,8.11560694 C20.8594371,7.84366789 21.5195364,7.73252759 22.5,7.68168681 C22.0529801,7.29387809 21.6715232,6.5903836 21.0740066,6.94863374 C20.7655629,7.13426169 20.7640728,6.89306358 20.6672185,6.75 C19.755298,7.21702575 18.8657285,7.70651603 18,8.22083552 C18.0134106,8.40055176 18.111755,8.62283237 18.2533113,9 C18.5498344,8.93733579 19.0847682,8.91250657 19.327649,8.76944298" id="Fill-655" fill="#95D9B3"></path>
                    <path d="M45.4142547,5.79510657 C45.4259062,6.29383159 45.3559969,6.51450638 44.8366701,6.51450638 C44.1192667,6.51450638 44.4272009,5.84512619 43.9311772,5.77892375 C43.2071158,5.68182685 41.1364666,5.25077543 41.2846079,6.46154443 C40.369128,6.35562053 39.4170289,6.20556168 39.4769512,7.21478105 C39.5202284,7.9282962 38.148673,7.76352569 37.7292168,7.33983009 C36.9102783,8.51970463 37.8157712,8.74773524 39.0974431,8.61091687 C39.1090947,9.54510681 37.49785,8.40936723 37.125,9.23763327 L37.6443268,10.3159974 C38.24355,11.0074451 38.0920797,10.7367507 38.9742695,10.6293556 C39.9879554,10.5072489 40.7586231,10.935358 41.1414601,11.8460093 C41.7290318,13.2421451 41.8105928,13.3995598 41.0848668,14.7339067 C41.6458064,14.6515214 42.687789,14.3396344 42.5879184,15.1781986 C42.1767847,15.1943814 41.7673155,15.2105642 41.3561818,15.226747 C41.772309,15.5945384 42.1018818,16.0550131 42.7477113,16.0491284 C41.6108517,17.38936 40.7170104,18.1940874 41.3295497,19.8991679 C41.4244267,20.1625065 41.0582347,20.3920083 41.1531117,20.6538757 C41.2862724,21.0187247 41.3645043,21.4997957 41.582555,21.8308079 C41.9337664,22.3618985 42.4847189,22.9327107 43.1937997,22.5663905 C43.0822776,23.3461081 43.5300305,23.6712356 44.3090207,23.6197448 C44.6951868,23.5932639 44.7601026,22.2618593 44.9382051,21.9558569 C45.2677779,21.3909295 45.6655955,20.9937148 46.125,20.683299 L46.125,5.95987708 C45.8986268,5.89955931 45.657273,5.85689551 45.4142547,5.79510657" id="Fill-656" fill="#95D9B3"></path>
                </g>
            </g>
        </g>
    </g>
</svg>