<?xml version="1.0" encoding="utf-8"?>
<!-- Generator: Adobe Illustrator 21.1.0, SVG Export Plug-In . SVG Version: 6.00 Build 0)  -->
<svg version="1.1" id="Layer_1" xmlns="http://www.w3.org/2000/svg" xmlns:xlink="http://www.w3.org/1999/xlink" x="0px" y="0px"
	 viewBox="0 0 2048 2048" style="enable-background:new 0 0 2048 2048;" xml:space="preserve">
<style type="text/css">
	.st0{fill-rule:evenodd;clip-rule:evenodd;fill:#C8E649;}
	.st1{fill-rule:evenodd;clip-rule:evenodd;fill:#A4BE3D;}
	.st2{fill-rule:evenodd;clip-rule:evenodd;fill:#DFDDD8;}
	.st3{fill:#7CCF7F;}
	.st4{fill:#F05540;}
	.st5{fill:#F3705A;}
	.st6{fill:#FFD15C;}
	.st7{fill:#F7B64C;}
	.st8{fill:#344A5E;}
	.st9{fill:#8AD7F8;}
	.st10{fill:#415A6B;}
	.st11{fill-rule:evenodd;clip-rule:evenodd;fill:#415A6B;}
	.st12{fill-rule:evenodd;clip-rule:evenodd;fill:#F05540;}
	.st13{fill-rule:evenodd;clip-rule:evenodd;fill:#8AD7F8;}
	.st14{fill:#873913;}
	.st15{fill:#DC955F;}
	.st16{fill-rule:evenodd;clip-rule:evenodd;fill:#B86A3A;}
	.st17{fill-rule:evenodd;clip-rule:evenodd;fill:#EEEEEE;}
</style>
<g>
	<path class="st0" d="M696.1,1108.5h612.2c-277.7,0-493.7-741.3-612.2-741.3c-108.7,0-299.4,623.4-544.4,726.8
		c-4.9,2.1-1.7,5.3-6.7,7c-17.4,5.8,2.6,7.5-15.3,7.5H696.1L696.1,1108.5z"/>
	<path class="st0" d="M1061.8,152.7c-147.1,0-337.6,935.8-707.5,935.8h707.5l579.7-10c-45.1,0-10.2-0.5-3.5-26.4
		c0.7-2.6-0.8-4.8-3.1-6.3C1351,862.7,1190,152.7,1061.8,152.7L1061.8,152.7z"/>
	<path class="st1" d="M929.7,322.3c25.9-35.7,50.7-57,74.9-57c129.4,0,191.4,823.2,546,823.2l68-9c-44.7,0,57.7,2.6,18-21.5
		c-2.6-1.6,1-10.5-1.6-12.2c-283.9-183.1-445-893.1-573.1-893.1C1021.9,152.7,978.7,221.8,929.7,322.3L929.7,322.3z"/>
	<path class="st1" d="M1099.7,1108.5h208.7c-277.7,0-493.7-741.3-612.2-741.3c-32.6,0-72.5,56-119,137.2
		c22.2-32.3,42-51.8,59.4-51.8C781.1,448.1,843.3,1108.5,1099.7,1108.5L1099.7,1108.5z"/>
	<path class="st2" d="M920.6,341.1H977c0,20.8,9.5,37.6,21.3,37.6c7.5,0,14.1-6.9,17.9-17.2c3.7-9.9,4.9-20.4,17.1-20.4
		c10.5,0,14.7,16.7,20.1,33c6.6,21.2,19.4,35.6,34,35.6c13.2,0,25-11.5,31.9-29.5c11.7-30.6,17.2-39.1,33.2-39.1
		c14.1,0,34.1,22.8,42,42.7c7.1,16.6,12.8,35.3,26.4,35.3c5.5,0,10.5-3.4,14.4-9.1c-66.7-145.9-122.6-257.4-173.4-257.4
		C1019.4,152.7,973.4,230.5,920.6,341.1L920.6,341.1z"/>
	<path class="st3" d="M1605.9,1033.8H159.5c-24.2,0-44,19.8-44,44v191c0,24.2,19.8,44,44,44h1446.3c24.2,0,44-19.8,44-44v-191
		C1649.9,1053.6,1630.1,1033.8,1605.9,1033.8z"/>
	<g>
		<rect x="1441.4" y="712.1" class="st4" width="70.2" height="122.6"/>
		<path class="st5" d="M1434.6,649.5h83.9c11,0,20,9,20,20v26.4c0,11-9,20-20,20h-83.9c-11,0-20-9-20-20v-26.4
			C1414.6,658.5,1423.5,649.5,1434.6,649.5z"/>
		<path class="st6" d="M1036.6,958.9v268c0,5.5,4.5,10,10,10h480.5c5.5,0,10-4.5,10-10v-268c0-2.7-1.1-5.2-2.9-7.1l-247.3-247.3l0,0
			c-96.1,97.3-150.8,152.1-247.3,247.3C1037.7,953.6,1036.6,956.2,1036.6,958.9z"/>
		<path class="st7" d="M1538.4,954.7c-98.3-98.3-153.2-153.2-250.3-250.3c-49.8,48.5-88.1,86.8-126.4,125.1
			c-38.3,38.3-76.6,76.6-125.1,125.1v57.5c98.3-98.3,153.2-153.2,250.3-250.3c98.3,98.3,153.2,153.2,250.3,250.3v7.7l0,0v-65.1
			L1538.4,954.7L1538.4,954.7z"/>
		<path class="st5" d="M1242.2,1236.9h-150.7v-148.1c0-42.1,34.5-75.3,75.3-75.3l0,0c42.1,0,75.3,34.5,75.3,75.3V1236.9z"/>
		<path class="st8" d="M1306.9,1013.4h156.6c11,0,20,9,20,20v132.4c0,11-9,20-20,20h-156.6c-11,0-20-9-20-20v-132.4
			C1286.9,1022.4,1295.8,1013.4,1306.9,1013.4z"/>
		<g>
			<path class="st9" d="M1317.3,1033.8h47.7c5.5,0,10,4.5,10,10v111.5c0,5.5-4.5,10-10,10h-47.7c-5.5,0-10-4.5-10-10v-111.5
				C1307.3,1038.3,1311.8,1033.8,1317.3,1033.8z"/>
			<path class="st9" d="M1405.4,1033.8h47.7c5.5,0,10,4.5,10,10v111.5c0,5.5-4.5,10-10,10h-47.7c-5.5,0-10-4.5-10-10v-111.5
				C1395.4,1038.3,1399.9,1033.8,1405.4,1033.8z"/>
		</g>
		<path class="st5" d="M1584.4,902.3l-266.9-266.9c-15.3-15.3-42.1-15.3-57.5,0L994.5,902.3c-15.3,15.3-15.3,42.1,0,57.5
			c15.3,15.3,42.1,15.3,57.5,0l237.5-237.5l237.5,237.5c15.3,15.3,42.1,15.3,57.5,0C1599.7,943.2,1599.7,917.7,1584.4,902.3z"/>
	</g>
	<g>
		<g>
			<g>
				<path class="st5" d="M717,1119.3c-5.3,5.6-11.7,10.1-18.8,13.2c-6.9,3-14.5,4.6-22.4,4.6h-12.3l-0.2-0.9
					c-46.4,0-384.3,5.8-415.8,0h0c0,0-27.7-13.6-30-15.8c-10.3-10.3-16.7-24.6-16.7-40.2V916.2c0-15.7,6.4-29.9,16.7-40.2
					c10.3-10.3,24.6-16.7,40.2-16.7h204.9h11l3.9,10.3l27.3,72.1l170.9-0.4c8.4,0,16.3,1.8,23.4,5c7.5,3.4,14,8.3,19.3,14.3
					l-10.4,9.2c2,25.5,1.6,118.3,1.5,142.4L717,1119.3z"/>
			</g>
			<g>
				<path class="st4" d="M659.2,1136.2c-26,0.1-103.2,1.2-184,1.9c0.2-1.2,0.4-2.3,0.7-3.5c1-4.9,2.4-9.6,4.2-14.3
					c4.7-12.2,11.9-23.3,21.2-32.5c17.6-17.6,41.2-27.4,66.1-27.4c24.9,0,48.5,9.8,66.1,27.4c8.1,8.1,14.7,17.7,19.4,28.2
					c2.7,6,4.7,12.2,6,18.7C659,1135.2,659.1,1135.7,659.2,1136.2z"/>
			</g>
			<g>
				<path class="st4" d="M440.1,1138.4c-79.9,0.6-156.6,0.6-184.2-1.4c0.1-0.8,0.3-1.6,0.5-2.4c1-4.9,2.4-9.6,4.2-14.3
					c4.7-12.2,11.9-23.3,21.2-32.5c17.6-17.6,41.2-27.4,66.1-27.4c24.9,0,48.5,9.8,66.1,27.4c8.1,8.1,14.7,17.7,19.4,28.2
					c2.7,6,4.7,12.2,6,18.7C439.6,1135.9,439.9,1137.2,440.1,1138.4z"/>
			</g>
			<g>
				<path class="st10" d="M724.5,721.3v423.1c0,5.5,4.5,10,10,10h222.3c5.5,0,10,4.5,10,10v11.9c0,5.5-4.5,10-10,10H708.5h-6
					c-5.5,0-10-4.5-10-10v-6v-449c0-5.5,4.5-10,10-10h11.9C720,711.3,724.5,715.8,724.5,721.3z"/>
			</g>
			<g>
				<path class="st5" d="M560.7,636.4l111.4,309.3c1.2,3.4,0.5,7.1-1.8,9.9l-38.8,45.5c-2.9,3.4-7.8,4.5-11.9,2.6L380.4,891.6
					c-1.2-0.6-2.3-1.4-3.2-2.4l-9.5-10.6c-1.9-2.1-4.6-3.3-7.5-3.3h-12.8h-21.9c-5.5,0-10-4.5-10-10v-18.2V697
					c0-18.5,7.6-35.3,19.7-47.5c12.2-12.2,29-19.7,47.5-19.7h159.7h8.9C555.5,629.8,559.3,632.4,560.7,636.4z"/>
			</g>
			<g>
				<path class="st11" d="M405.5,1096.3c-14.8-14.8-35.1-23.9-57.7-23.9c-22.5,0-42.9,9.1-57.7,23.9c-8,8-14.3,17.6-18.5,28.4
					c-1.5,4-2.8,8.2-3.7,12.4c-1.1,5.4-1.7,11.1-1.7,16.8c0,22.5,9.1,42.9,23.9,57.7c14.8,14.8,35.1,23.9,57.7,23.9
					c22.5,0,42.9-9.1,57.7-23.9c14.8-14.8,23.9-35.1,23.9-57.7c0-5.8-0.6-11.4-1.7-16.8c-1.2-5.7-3-11.1-5.3-16.3
					C418.3,1111.7,412.5,1103.3,405.5,1096.3z"/>
			</g>
			<g>
				<path class="st11" d="M625,1096.3c-14.8-14.8-35.1-23.9-57.7-23.9c-22.5,0-42.9,9.1-57.7,23.9c-8,8-14.3,17.6-18.5,28.4
					c-1.5,4-2.8,8.2-3.7,12.4c-1.1,5.4-1.7,11.1-1.7,16.8c0,22.5,9.1,42.9,23.9,57.7c14.8,14.8,35.1,23.9,57.7,23.9
					c22.5,0,42.9-9.1,57.7-23.9c14.8-14.8,23.9-35.1,23.9-57.7c0-5.8-0.6-11.4-1.7-16.8c-1.2-5.7-3-11.1-5.3-16.3
					C637.8,1111.7,632.1,1103.3,625,1096.3z"/>
			</g>
			<g>
				<g>
					<rect x="257.6" y="932.5" class="st12" width="130.3" height="7.5"/>
				</g>
				<g>
					<rect x="257.6" y="951.5" class="st12" width="130.3" height="7.5"/>
				</g>
				<g>
					<rect x="257.6" y="970.5" class="st12" width="130.3" height="7.5"/>
				</g>
				<g>
					<rect x="257.6" y="989.6" class="st12" width="130.3" height="7.5"/>
				</g>
				<g>
					<rect x="257.6" y="1008.6" class="st12" width="130.3" height="7.5"/>
				</g>
			</g>
			<g>
				<path class="st12" d="M380.2,738.5v108.6v2.2c0,5.5,4.5,10,10,10h56h4.1c4.2,0,7.9,2.6,9.4,6.5l1.5,3.9l24.8,65.6
					c1.5,3.9,5.2,6.5,9.4,6.5l110.9-0.3c6.9,0,11.7-6.9,9.4-13.4l-74.3-206.2c-1.4-4-5.2-6.6-9.4-6.6H526H403.5
					c-6.4,0-12.2,2.6-16.5,6.9C382.8,726.3,380.2,732.1,380.2,738.5z"/>
			</g>
			<g>
				<path class="st13" d="M402.1,847.3h56.4c4.2,0,7.9,2.6,9.4,6.5l4.4,11.6l21.9,57.9c1.5,3.9,5.2,6.5,9.4,6.5l85.6-0.2
					c6.9,0,11.7-6.9,9.4-13.4l-65.7-182.4c-1.4-4-5.2-6.6-9.4-6.6h-120c-3,0-5.9,1.2-8,3.4c-2.1,2.1-3.4,5-3.4,8v98.8
					C392.1,842.9,396.6,847.3,402.1,847.3z"/>
			</g>
			<g>
				<g>
					<polygon class="st14" points="757.7,892.8 938.1,892.8 954,892.8 954,904.7 954,1125.2 954,1137.1 938.1,1137.1 757.7,1137.1 
						741.8,1137.1 741.8,1125.2 741.8,904.7 741.8,892.8 					"/>
				</g>
				<g>
					<polygon class="st15" points="757.7,892.8 938.1,892.8 954,892.8 954,904.7 930.9,904.7 930.9,908.7 954,908.7 954,1121.3 
						933.3,1121.3 933.3,1125.2 954,1125.2 954,1137.1 938.1,1137.1 757.7,1137.1 741.8,1137.1 741.8,1125.2 763.8,1125.2 
						763.8,1121.3 741.8,1121.3 741.8,908.7 763.8,908.7 763.8,904.7 741.8,904.7 741.8,892.8 					"/>
				</g>
				<g>
					<rect x="757.7" y="904.7" class="st16" width="180.3" height="220.5"/>
				</g>
			</g>
			<g>
				<path class="st17" d="M385,1116.8c-9.5-9.5-22.6-15.4-37.1-15.4c-14.5,0-27.6,5.9-37.1,15.4c-5.2,5.1-9.2,11.4-11.9,18.3
					c-1,2.6-1.8,5.3-2.4,8c-0.7,3.5-1.1,7.1-1.1,10.8c0,14.5,5.9,27.6,15.4,37.1c9.5,9.5,22.6,15.4,37.1,15.4
					c14.5,0,27.6-5.9,37.1-15.4c9.5-9.5,15.4-22.6,15.4-37.1c0-3.7-0.4-7.3-1.1-10.8c-0.8-3.6-1.9-7.2-3.4-10.5
					C393.2,1126.7,389.5,1121.4,385,1116.8z"/>
			</g>
			<g>
				<path class="st17" d="M604.5,1116.8c-9.5-9.5-22.6-15.4-37.1-15.4c-14.5,0-27.6,5.9-37.1,15.4c-5.1,5.1-9.2,11.4-11.9,18.3
					c-1,2.6-1.8,5.3-2.4,8c-0.7,3.5-1.1,7.1-1.1,10.8c0,14.5,5.9,27.6,15.4,37.1c9.5,9.5,22.6,15.4,37.1,15.4
					c14.5,0,27.6-5.9,37.1-15.4c9.5-9.5,15.4-22.6,15.4-37.1c0-3.7-0.4-7.3-1.1-10.8c-0.8-3.6-1.9-7.2-3.4-10.5
					C612.8,1126.7,609.1,1121.4,604.5,1116.8z"/>
			</g>
		</g>
	</g>
</g>
</svg>
