<?xml version="1.0" encoding="UTF-8"?>
<svg width="99px" height="91px" viewBox="0 0 99 91" version="1.1" xmlns="http://www.w3.org/2000/svg" xmlns:xlink="http://www.w3.org/1999/xlink">
    <!-- Generator: Sketch 49.1 (51147) - http://www.bohemiancoding.com/sketch -->
    <title>1147 - Apartments</title>
    <desc>Created with Sketch.</desc>
    <defs></defs>
    <g id="Sidebar-+-Homepage" stroke="none" stroke-width="1" fill="none" fill-rule="evenodd">
        <g id="Homepage--&gt;-Organisation" transform="translate(-110.000000, -207.000000)">
            <g id="Group-9" transform="translate(60.000000, 124.000000)">
                <g id="Group-2">
                    <g id="Group-4" transform="translate(32.000000, 83.000000)">
                        <g id="1147---Apartments" transform="translate(18.000000, 0.000000)">
                            <g id="_461729672" fill="#4FC3F7">
                                <polygon id="_461750000" points="83.6046298 37.2274258 96.9369126 37.2274258 99 37.2274258 99 39.2955472 99 88.9298403 99 90.9982276 96.9369126 90.9982276 83.5312638 90.9982276 70.1203115 90.9982276 68.0740187 90.9982276 66.0100473 91 50.5404272 91 35.0677133 91 33.0033 91 31.069708 90.9982276 16.5049647 90.9982276 1.93535988 90.9982276 0 90.9982276 0 88.9298403 0 26.8869074 0 24.818786 1.93535988 24.818786 16.5028433 24.818786 31.0871582 24.0037994 33.0033 24.0037994 33.0033 2.06962793 33.0033 0 35.0677133 0 50.5386593 0 66.0100473 0 68.0740187 0 68.0740187 2.06962793 68.0740187 37.2274258 70.1203115 37.2274258"></polygon>
                            </g>
                            <polygon id="Shape" fill="#4FC3F7" points="84 37 84.0737017 37 96.9997715 37 99 37 99 39.0769368 99 88.9227962 99 91 96.9997715 91 84.002571 91 84 91"></polygon>
                            <polygon id="Shape" fill="#81D4FA" points="70.9994858 37 84 37 84 91 70.9994858 91 69 91 69 88.9227962 69 39.0769368 69 37"></polygon>
                            <polygon id="Shape" fill="#29B6F6" points="51 91 35.1191148 91 33 91 33 88.9298403 33 2.06962793 33 0 35.1191148 0 51 0"></polygon>
                            <polygon id="Shape" fill="#039BE5" points="69 2.06962793 69 88.9298403 69 91 66.8813388 91 51.0018147 91 51 0 51.0734953 0 66.8813388 0 69 0"></polygon>
                            <polygon id="Shape" fill="#81D4FA" points="16 91 1.87638927 91 0 91 0 88.9059668 0 26.093764 0 24 1.87638927 24 16 24"></polygon>
                            <polygon id="Shape" fill="#4FC3F7" points="32 26.093764 32 88.9059668 32 91 30.123616 91 16.0020569 91 16 24 16.0659057 24 30.123616 24 32 24"></polygon>
                            <polygon id="Shape" fill="#039BE5" points="21 52 28 52 28 59 21 59"></polygon>
                            <polygon id="Shape" fill="#29B6F6" points="7 52 14 52 14 59 7 59"></polygon>
                            <polygon id="Shape" fill="#039BE5" points="21 42 28 42 28 49 21 49"></polygon>
                            <polygon id="Shape" fill="#29B6F6" points="7 42 14 42 14 49 7 49"></polygon>
                            <polygon id="Shape" fill="#039BE5" points="21 31 28 31 28 38 21 38"></polygon>
                            <polygon id="Shape" fill="#29B6F6" points="7 31 14 31 14 38 7 38"></polygon>
                            <polygon id="Shape" fill="#29B6F6" points="75 46 82 46 82 53 75 53"></polygon>
                            <polygon id="Shape" fill="#039BE5" points="87 46 94 46 94 53 87 53"></polygon>
                            <polygon id="Shape" fill="#039BE5" points="87 58 94 58 94 65 87 65"></polygon>
                            <polygon id="Shape" fill="#29B6F6" points="75 58 82 58 82 65 75 65"></polygon>
                            <polygon id="Shape" fill="#039BE5" points="40 7 47 7 47 14 40 14"></polygon>
                            <polygon id="Shape" fill="#0288D1" points="56 37 63 37 63 44 56 44"></polygon>
                            <polygon id="Shape" fill="#039BE5" points="40 37 47 37 47 44 40 44"></polygon>
                            <polygon id="Shape" fill="#0288D1" points="56 26 63 26 63 33 56 33"></polygon>
                            <polygon id="Shape" fill="#039BE5" points="40 26 47 26 47 33 40 33"></polygon>
                            <polygon id="Shape" fill="#0288D1" points="56 16 63 16 63 23 56 23"></polygon>
                            <polygon id="Shape" fill="#039BE5" points="40 16 47 16 47 23 40 23"></polygon>
                            <polygon id="Shape" fill="#0288D1" points="56 7 63 7 63 14 56 14"></polygon>
                        </g>
                    </g>
                </g>
            </g>
        </g>
    </g>
</svg>