<?xml version="1.0" encoding="UTF-8"?>
<svg width="104px" height="72px" viewBox="0 0 104 72" version="1.1" xmlns="http://www.w3.org/2000/svg" xmlns:xlink="http://www.w3.org/1999/xlink">
    <!-- Generator: Sketch 49.1 (51147) - http://www.bohemiancoding.com/sketch -->
    <title>Group 10</title>
    <desc>Created with Sketch.</desc>
    <defs></defs>
    <g id="Sidebar-+-Homepage" stroke="none" stroke-width="1" fill="none" fill-rule="evenodd">
        <g id="Homepage--&gt;-Organisation" transform="translate(-474.000000, -485.000000)">
            <g id="Group-9" transform="translate(60.000000, 124.000000)">
                <g id="Group-10" transform="translate(414.000000, 361.000000)">
                    <g id="Output-2" transform="translate(14.000000, 0.000000)">
                        <path d="M80.0893504,0.136985259 L80.0893504,0 L79.6818401,0 L4.97162521,0 L4.56411495,0 L4.56411495,0.136985259 C2.11905337,0.30136757 0.29884086,2.2739553 0,4.6574988 L0,5.06845458 L0,54.7119124 C0,55.6708092 0.244506158,56.4927208 0.652016421,57.2050441 C1.6028737,58.9036613 3.01557595,59.7529699 4.97162521,59.7529699 L32.2204781,59.7529699 L32.2204781,66.684424 L27.0315141,66.684424 C25.7546486,66.684424 24.7494567,67.6981149 24.7494567,68.9857764 C24.7494567,70.2734378 25.7546486,71.2871287 27.0315141,71.2871287 L57.5676165,71.2871287 C58.844482,71.2871287 59.8768413,70.2734378 59.8768413,68.9857764 C59.8768413,67.6981149 58.844482,66.684424 57.5676165,66.684424 L52.3786525,66.684424 L52.3786525,59.7529699 L79.6275054,59.7529699 C81.5835547,59.7529699 82.9962569,58.9036613 83.9471142,57.2050441 C84.3817918,56.4379267 84.6534653,55.6160151 84.6534653,54.7119124 L84.6534653,5.06845458 L84.6534653,4.6574988 C84.4089592,2.2739553 82.4529099,0.30136757 80.0893504,0.136985259 Z M80.0893504,5.06845458 L80.0893504,54.7119124 C80.0893504,55.01328 79.9535136,55.1228682 79.6818401,55.1228682 L4.97162521,55.1228682 C4.67278435,55.1228682 4.56411495,54.9858829 4.56411495,54.7119124 L4.56411495,5.06845458 L4.56411495,4.6574988 L80.0893504,4.6574988 L80.0893504,5.06845458 Z" id="Shape" fill="#626262" fill-rule="nonzero"></path>
                        <path d="M40.1118007,36.5346535 C38.6280733,36.5346535 37.4257426,37.8582125 37.4257426,39.4915406 L37.4257426,49.009901 L42.7722772,49.009901 L42.7722772,39.4915406 C42.7466957,37.8582125 41.544365,36.5346535 40.1118007,36.5346535 Z" id="Shape" fill="#6B9CD1" fill-rule="nonzero"></path>
                        <path d="M49.9137809,28.5148515 C48.4300535,28.5148515 47.2277228,29.8254193 47.2277228,31.4427157 L47.2277228,49.009901 L52.5742574,49.009901 L52.5742574,31.4427157 C52.5742574,29.8254193 51.3463452,28.5148515 49.9137809,28.5148515 Z" id="Shape" fill="#ABC66A" fill-rule="nonzero"></path>
                        <path d="M58.8375857,39.2079208 C57.3467251,39.2079208 56.1386139,40.4632153 56.1386139,42.012302 L56.1386139,49.009901 L61.4851485,49.009901 L61.4851485,42.012302 C61.4851485,40.4632153 60.3284463,39.2079208 58.8375857,39.2079208 Z" id="Shape" fill="#DB6E6E" fill-rule="nonzero"></path>
                        <path d="M69.5177412,32.970297 C68.0340139,32.970297 66.8316832,34.2061354 66.8316832,35.7312125 L66.8316832,49.009901 L72.1782178,49.009901 L72.1782178,35.7312125 C72.1782178,34.2061354 71.0014686,32.970297 69.5177412,32.970297 Z" id="Shape" fill="#FFE669" fill-rule="nonzero"></path>
                        <circle id="Oval" fill="#424242" fill-rule="nonzero" cx="15.1485149" cy="20.4950495" r="8.91089109"></circle>
                        <circle id="Oval" fill="#999999" fill-rule="nonzero" cx="15.1485149" cy="20.4950495" r="6.23762376"></circle>
                        <circle id="Oval" fill="#424242" fill-rule="nonzero" cx="15.1485149" cy="41.8811881" r="8.91089109"></circle>
                        <circle id="Oval" fill="#999999" fill-rule="nonzero" cx="15.1485149" cy="41.8811881" r="6.23762376"></circle>
                        <path d="M20.8442841,31.1881188 L6.80461058,31.1881188 C6.48061811,31.1881188 6.23762376,30.9971711 6.23762376,30.7425743 C6.23762376,30.4879774 6.48061811,30.2970297 6.80461058,30.2970297 L20.8172848,30.2970297 C21.1412772,30.2970297 21.3842716,30.4879774 21.3842716,30.7425743 C21.4112709,30.9971711 21.1412772,31.1881188 20.8442841,31.1881188 Z" id="Shape" fill="#BDC3C7" fill-rule="nonzero"></path>
                        <path d="M20.8442841,10.6930693 L6.80461058,10.6930693 C6.48061811,10.6930693 6.23762376,10.5021216 6.23762376,10.2475248 C6.23762376,9.99292786 6.48061811,9.8019802 6.80461058,9.8019802 L20.8172848,9.8019802 C21.1412772,9.8019802 21.3842716,9.99292786 21.3842716,10.2475248 C21.4112709,10.5021216 21.1412772,10.6930693 20.8442841,10.6930693 Z" id="Shape" fill="#BDC3C7" fill-rule="nonzero"></path>
                        <path d="M19.1139507,6.23762376 L6.72556878,6.23762376 C6.45448822,6.23762376 6.23762376,6.03960396 6.23762376,5.79207921 C6.23762376,5.54455446 6.45448822,5.34653465 6.72556878,5.34653465 L19.1139507,5.34653465 C19.3850313,5.34653465 19.6018957,5.54455446 19.6018957,5.79207921 C19.6290038,6.03960396 19.3850313,6.23762376 19.1139507,6.23762376 Z" id="Shape" fill="#BDC3C7" fill-rule="nonzero"></path>
                        <path d="M46.7646011,6.23762376 L34.3493228,6.23762376 C34.0782469,6.23762376 33.8613861,6.03960396 33.8613861,5.79207921 C33.8613861,5.54455446 34.0782469,5.34653465 34.3493228,5.34653465 L46.7374935,5.34653465 C47.0085694,5.34653465 47.2254302,5.54455446 47.2254302,5.79207921 C47.2525378,6.03960396 47.035677,6.23762376 46.7646011,6.23762376 Z" id="Shape" fill="#BDC3C7" fill-rule="nonzero"></path>
                        <path d="M46.6858683,10.6930693 L32.6461947,10.6930693 C32.3222023,10.6930693 32.0792079,10.5021216 32.0792079,10.2475248 C32.0792079,9.99292786 32.3222023,9.8019802 32.6461947,9.8019802 L46.6588689,9.8019802 C46.9828614,9.8019802 47.2258557,9.99292786 47.2258557,10.2475248 C47.2528551,10.5021216 46.9828614,10.6930693 46.6858683,10.6930693 Z" id="Shape" fill="#BDC3C7" fill-rule="nonzero"></path>
                        <path d="M42.4026091,52.5742574 L32.4722308,52.5742574 C32.2626186,52.5742574 32.0792079,52.3663366 32.0792079,52.1287129 C32.0792079,51.8910891 32.2626186,51.6831683 32.4722308,51.6831683 L42.3764076,51.6831683 C42.5860198,51.6831683 42.7694305,51.8910891 42.7694305,52.1287129 C42.795632,52.3663366 42.6384229,52.5742574 42.4026091,52.5742574 Z" id="Shape" fill="#BDC3C7" fill-rule="nonzero"></path>
                        <path d="M78.816921,6.23762376 L66.4285391,6.23762376 C66.1574585,6.23762376 65.9405941,6.03960396 65.9405941,5.79207921 C65.9405941,5.54455446 66.1574585,5.34653465 66.4285391,5.34653465 L78.816921,5.34653465 C79.0880016,5.34653465 79.304866,5.54455446 79.304866,5.79207921 C79.3319741,6.03960396 79.0880016,6.23762376 78.816921,6.23762376 Z" id="Shape" fill="#BDC3C7" fill-rule="nonzero"></path>
                        <path d="M34.5945678,48.2733615 L34.5945678,24.4276757 C34.5945678,23.7158642 34.0477504,23.1683168 33.3368879,23.1683168 C32.6260253,23.1683168 32.0792079,23.7158642 32.0792079,24.4276757 L32.0792079,48.2733615 L32.0792079,49.5327204 C32.0792079,50.2445319 32.6260253,50.7920792 33.3368879,50.7920792 L34.5945678,50.7920792 L74.4848943,50.7920792 C75.1957569,50.7920792 75.7425743,50.2445319 75.7425743,49.5327204 C75.7425743,48.8209089 75.1957569,48.2733615 74.4848943,48.2733615 L34.5945678,48.2733615 Z" id="Shape" fill="#707070" fill-rule="nonzero"></path>
                        <circle id="Oval" fill="#2CCE7A" fill-rule="nonzero" cx="32.5247525" cy="5.79207921" r="1"></circle>
                        <path d="M3.11881188,8.01980198 L81.980198,8.01980198" id="Shape" stroke="#626262" stroke-width="1.83500004"></path>
                        <path d="M26.7326733,3.11881188 L26.7326733,56.1386139" id="Shape" stroke="#626262" stroke-width="1.83500004"></path>
                        <g id="Group" transform="translate(69.504950, 27.623762)" fill-rule="nonzero">
                            <g id="iPhone_6">
                                <path d="M17.0614633,43.4996287 L3.30050148,43.4996287 C1.54378295,43.4996287 0.10646779,42.0259901 0.10646779,40.2248762 L0.10646779,3.52035891 C0.10646779,1.71924505 1.54378295,0.245606436 3.30050148,0.245606436 L17.0614633,0.245606436 C18.8181818,0.245606436 20.255497,1.71924505 20.255497,3.52035891 L20.255497,40.2248762 C20.255497,42.0532797 18.8181818,43.4996287 17.0614633,43.4996287 Z" id="Shape" fill="#999999"></path>
                                <rect id="Rectangle-path" fill="#FFFFFF" x="1.0646779" y="5.45792079" width="18.232609" height="32.9658416"></rect>
                                <path d="M12.6962839,3.08372525 L7.63906391,3.08372525 C7.42612833,3.08372525 7.26642664,2.91998762 7.26642664,2.70167079 C7.26642664,2.48335396 7.42612833,2.31961634 7.63906391,2.31961634 L12.6962839,2.31961634 C12.9092195,2.31961634 13.0689212,2.48335396 13.0689212,2.70167079 C13.0689212,2.89269802 12.9092195,3.08372525 12.6962839,3.08372525 Z" id="Shape" fill="#626262"></path>
                                <rect id="Rectangle-path" fill="#FFFFFF" x="1.0646779" y="5.45792079" width="18.232609" height="1.50092822"></rect>
                                <rect id="Rectangle-path" fill="#5A9EE1" x="1.0646779" y="6.95884901" width="18.232609" height="2.89269802"></rect>
                            </g>
                            <ellipse id="Oval" fill="#626262" cx="10.11444" cy="40.9616955" rx="1.49054905" ry="1.52821782"></ellipse>
                            <path d="M9.52886717,11.5707921 L2.28905748,11.5707921 C2.12935579,11.5707921 1.99627106,11.4343441 1.99627106,11.2706064 C1.99627106,11.1068688 2.12935579,10.9704208 2.28905748,10.9704208 L9.52886717,10.9704208 C9.68856886,10.9704208 9.82165359,11.1068688 9.82165359,11.2706064 C9.82165359,11.4343441 9.68856886,11.5707921 9.52886717,11.5707921 Z" id="Shape" fill="#BDC3C7"></path>
                            <path d="M9.52886717,27.6443688 L2.28905748,27.6443688 C2.12935579,27.6443688 1.99627106,27.5079208 1.99627106,27.3441832 C1.99627106,27.1804455 2.12935579,27.0439975 2.28905748,27.0439975 L9.52886717,27.0439975 C9.68856886,27.0439975 9.82165359,27.1804455 9.82165359,27.3441832 C9.82165359,27.5079208 9.68856886,27.6443688 9.52886717,27.6443688 Z" id="Shape" fill="#BDC3C7"></path>
                            <path d="M15.9169346,27.6443688 L8.67712486,27.6443688 C8.51742317,27.6443688 8.38433843,27.5079208 8.38433843,27.3441832 C8.38433843,27.1804455 8.51742317,27.0439975 8.67712486,27.0439975 L15.9169346,27.0439975 C16.0766362,27.0439975 16.209721,27.1804455 16.209721,27.3441832 C16.209721,27.5079208 16.0766362,27.6443688 15.9169346,27.6443688 Z" id="Shape" fill="#BDC3C7"></path>
                            <path d="M9.52886717,29.5000619 L2.28905748,29.5000619 C2.12935579,29.5000619 1.99627106,29.3636139 1.99627106,29.1998762 C1.99627106,29.0361386 2.12935579,28.8996906 2.28905748,28.8996906 L9.52886717,28.8996906 C9.68856886,28.8996906 9.82165359,29.0361386 9.82165359,29.1998762 C9.82165359,29.3636139 9.68856886,29.5000619 9.52886717,29.5000619 Z" id="Shape" fill="#BDC3C7"></path>
                            <path d="M15.9169346,29.5000619 L8.67712486,29.5000619 C8.51742317,29.5000619 8.38433843,29.3636139 8.38433843,29.1998762 C8.38433843,29.0361386 8.51742317,28.8996906 8.67712486,28.8996906 L15.9169346,28.8996906 C16.0766362,28.8996906 16.209721,29.0361386 16.209721,29.1998762 C16.209721,29.3636139 16.0766362,29.5000619 15.9169346,29.5000619 Z" id="Shape" fill="#BDC3C7"></path>
                            <path d="M9.52886717,31.0009901 L2.28905748,31.0009901 C2.12935579,31.0009901 1.99627106,30.8645421 1.99627106,30.7008045 C1.99627106,30.5370668 2.12935579,30.4006188 2.28905748,30.4006188 L9.52886717,30.4006188 C9.68856886,30.4006188 9.82165359,30.5370668 9.82165359,30.7008045 C9.82165359,30.8645421 9.68856886,31.0009901 9.52886717,31.0009901 Z" id="Shape" fill="#BDC3C7"></path>
                            <path d="M15.9169346,31.0009901 L8.67712486,31.0009901 C8.51742317,31.0009901 8.38433843,30.8645421 8.38433843,30.7008045 C8.38433843,30.5370668 8.51742317,30.4006188 8.67712486,30.4006188 L15.9169346,30.4006188 C16.0766362,30.4006188 16.209721,30.5370668 16.209721,30.7008045 C16.209721,30.8645421 16.0766362,31.0009901 15.9169346,31.0009901 Z" id="Shape" fill="#BDC3C7"></path>
                            <path d="M14.665938,25.843255 L2.50199306,25.843255 C2.23582358,25.843255 2.022888,25.6249381 2.022888,25.3520421 C2.022888,25.079146 2.23582358,24.8608292 2.50199306,24.8608292 L14.6393211,24.8608292 C14.9054905,24.8608292 15.1184261,25.079146 15.1184261,25.3520421 C15.1450431,25.6249381 14.9321075,25.843255 14.665938,25.843255 Z" id="Shape" fill="#BDC3C7"></path>
                            <path d="M16.8219108,16.810396 L9.58210107,16.810396 C9.42239938,16.810396 9.28931465,16.673948 9.28931465,16.5102104 C9.28931465,16.3464728 9.42239938,16.2100248 9.58210107,16.2100248 L16.8219108,16.2100248 C16.9816124,16.2100248 17.1146972,16.3464728 17.1146972,16.5102104 C17.1146972,16.673948 16.9816124,16.810396 16.8219108,16.810396 Z" id="Shape" fill="#BDC3C7"></path>
                            <path d="M6.36145043,6.68595297 L2.04950495,6.68595297 C1.88980327,6.68595297 1.75671853,6.54950495 1.75671853,6.38576733 C1.75671853,6.2220297 1.88980327,6.08558168 2.04950495,6.08558168 L6.36145043,6.08558168 C6.52115212,6.08558168 6.65423685,6.2220297 6.65423685,6.38576733 C6.65423685,6.54950495 6.52115212,6.68595297 6.36145043,6.68595297 Z" id="Shape" fill="#626262"></path>
                            <path d="M18.3390768,6.68595297 L15.9169346,6.68595297 C15.7572329,6.68595297 15.6241481,6.54950495 15.6241481,6.38576733 C15.6241481,6.2220297 15.7572329,6.08558168 15.9169346,6.08558168 L18.3390768,6.08558168 C18.4987784,6.08558168 18.6318632,6.2220297 18.6318632,6.38576733 C18.6052462,6.54950495 18.4987784,6.68595297 18.3390768,6.68595297 Z" id="Shape" fill="#626262"></path>
                            <path d="M2.66169474,23.1961634 L17.70027,23.1961634 C18.205992,23.1961634 18.6052462,22.7868193 18.6052462,22.2683168 L18.6052462,13.8085396 C18.6052462,13.2900371 18.205992,12.8806931 17.70027,12.8806931 L2.66169474,12.8806931 C2.15597274,12.8806931 1.75671853,13.2900371 1.75671853,13.8085396 L1.75671853,22.2683168 C1.75671853,22.7868193 2.15597274,23.1961634 2.66169474,23.1961634 Z" id="Shape" fill="#FFFFFF"></path>
                            <path d="M2.68831169,20.2215965 L2.68831169,13.4810644 C2.68831169,13.2900371 2.52861,13.1262995 2.34229137,13.1262995 C2.15597274,13.1262995 1.99627106,13.2900371 1.99627106,13.4810644 L1.99627106,20.2215965 L1.99627106,20.5763614 C1.99627106,20.7673886 2.15597274,20.9311262 2.34229137,20.9311262 L2.68831169,20.9311262 L13.681111,20.9311262 C13.8674296,20.9311262 14.0271313,20.7673886 14.0271313,20.5763614 C14.0271313,20.3853342 13.8674296,20.2215965 13.681111,20.2215965 L2.68831169,20.2215965 Z" id="Shape" fill="#707070"></path>
                            <path d="M4.47164716,17.0560025 C4.07239295,17.0560025 3.72637264,17.4107673 3.72637264,17.8201114 L3.72637264,20.2488861 L5.19030474,20.2488861 L5.19030474,17.8201114 C5.19030474,17.3834777 4.87090138,17.0560025 4.47164716,17.0560025 Z" id="Shape" fill="#6B9CD1"></path>
                            <path d="M6.92040633,14.9274134 C6.52115212,14.9274134 6.1751318,15.2821782 6.1751318,15.6915223 L6.1751318,20.2215965 L7.63906391,20.2215965 L7.63906391,15.6915223 C7.63906391,15.2821782 7.31966054,14.9274134 6.92040633,14.9274134 Z" id="Shape" fill="#ABC66A"></path>
                            <path d="M14.3997685,14.9274134 C14.0005143,14.9274134 13.654494,15.2821782 13.654494,15.6915223 L13.654494,20.2215965 L15.1184261,20.2215965 L15.1184261,15.6915223 C15.1450431,15.2821782 14.7990228,14.9274134 14.3997685,14.9274134 Z" id="Shape" fill="#F7B452"></path>
                            <path d="M9.36916549,17.574505 C8.96991128,17.574505 8.62389096,17.9292698 8.62389096,18.3386139 L8.62389096,20.2215965 L10.0878231,20.2215965 L10.0878231,18.3386139 C10.0878231,17.9292698 9.7684197,17.574505 9.36916549,17.574505 Z" id="Shape" fill="#DB6E6E"></path>
                            <path d="M11.8179246,15.8552599 C11.4186704,15.8552599 11.0726501,16.2100248 11.0726501,16.6193688 L11.0726501,20.2761757 L12.5365822,20.2761757 L12.5365822,16.6193688 C12.5365822,16.1827351 12.2171789,15.8552599 11.8179246,15.8552599 Z" id="Shape" fill="#FFE669"></path>
                            <path d="M4.07239295,20.5763614 C4.07239295,20.7673886 4.23209464,20.9311262 4.41841327,20.9311262 L4.76443359,20.9311262 L15.7572329,20.9311262 C15.9435515,20.9311262 16.1032532,20.7673886 16.1032532,20.5763614 C16.1032532,20.3853342 15.9435515,20.2215965 15.7572329,20.2215965 L4.76443359,20.2215965 L4.07239295,20.5763614 Z" id="Shape" fill="#707070"></path>
                        </g>
                    </g>
                    <g id="Test-Copy" transform="translate(0.000000, 33.000000)" fill-rule="nonzero">
                        <g id="objects">
                            <g id="Group">
                                <path d="M17.1167746,21.8951327 L32.6321287,36 L38,31.120117 L22.4846459,17.0152496 C20.9956131,15.6615835 18.6058074,15.6615835 17.1167746,17.0152496 C15.6277418,18.3522039 15.6277418,20.5414665 17.1167746,21.8951327 Z" id="Shape" fill="#EFCAA6"></path>
                                <path d="M21.0892614,15.7748977 L37.7643734,31 L43,26.2196453 L26.3248879,10.994543 C24.8725395,9.66848568 22.5416098,9.66848568 21.0892614,10.994543 C19.6369129,12.3206003 19.6369129,14.4488404 21.0892614,15.7748977 Z" id="Shape" fill="#EFCAA6"></path>
                                <path d="M28.1036789,10.8951327 L43.6287625,25 L49,20.120117 L33.4749164,6.01524963 C31.9849498,4.66158346 29.5936455,4.66158346 28.1036789,6.01524963 C26.632107,7.36891581 26.632107,9.5581784 28.1036789,10.8951327 Z" id="Shape" fill="#EFCAA6"></path>
                                <path d="M36.9116719,10.0304942 L48.5667718,21 L53,16.8275499 L41.3449001,5.85804416 C40.1293375,4.71398528 38.1451104,4.71398528 36.9116719,5.85804416 C35.6961094,7.01892744 35.6961094,8.86961094 36.9116719,10.0304942 Z" id="Shape" fill="#EFCAA6"></path>
                                <g>
                                    <path d="M0,3.58878505 L0,34.411215 C0,36.3925234 1.55421687,38 3.46987952,38 L56.5301205,38 C58.4457831,38 60,36.3925234 60,34.411215 L60,3.58878505 C60,1.60747664 58.4457831,0 56.5301205,0 L3.45180723,0 C1.53614458,0.0186915888 0,1.60747664 0,3.58878505 Z" id="Shape" fill="#999999"></path>
                                    <rect id="Rectangle-path" fill="#FFFFFF" transform="translate(29.000000, 20.500000) rotate(-90.000000) translate(-29.000000, -20.500000) " x="13.5" y="-1.5" width="31" height="44"></rect>
                                    <circle id="Oval" fill="#626262" cx="56" cy="18" r="2"></circle>
                                </g>
                            </g>
                            <circle id="Oval" fill="#DC6141" cx="38" cy="31" r="4"></circle>
                            <circle id="Oval" fill="#7CCF7F" cx="19" cy="31" r="4"></circle>
                            <path d="M33.0530526,13 L8.96426574,13 C8.42856255,13 8,12.5555556 8,12 C8,11.4444444 8.42856255,11 8.96426574,11 L33.0351958,11 C33.570899,11 33.9994616,11.4444444 33.9994616,12 C34.0173183,12.5555556 33.5887558,13 33.0530526,13 Z" id="Shape" fill="#BDC3C7"></path>
                            <path d="M30.0463919,16 L8.97104826,16 C8.431577,16 8,15.5555556 8,15 C8,14.4444444 8.431577,14 8.97104826,14 L30.0284095,14 C30.5678808,14 30.9994578,14.4444444 30.9994578,15 C31.0174401,15.537037 30.5858631,16 30.0463919,16 Z" id="Shape" fill="#BDC3C7"></path>
                            <rect id="Rectangle-path" fill="#7CCF7F" x="7" y="2" width="44" height="4"></rect>
                            <rect id="Rectangle-path" fill="#727272" x="7" y="6" width="44" height="3"></rect>
                        </g>
                    </g>
                </g>
            </g>
        </g>
    </g>
</svg>