<?xml version="1.0" encoding="UTF-8"?>
<svg width="100px" height="76px" viewBox="0 0 100 76" version="1.1" xmlns="http://www.w3.org/2000/svg" xmlns:xlink="http://www.w3.org/1999/xlink">
    <!-- Generator: Sketch 49.1 (51147) - http://www.bohemiancoding.com/sketch -->
    <title>team</title>
    <desc>Created with Sketch.</desc>
    <defs></defs>
    <g id="Sidebar-+-Homepage" stroke="none" stroke-width="1" fill="none" fill-rule="evenodd">
        <g id="Homepage--&gt;-Organisation" transform="translate(-540.000000, -215.000000)" fill-rule="nonzero">
            <g id="Group-9" transform="translate(60.000000, 124.000000)">
                <g id="Group-2">
                    <g id="Group-5" transform="translate(468.000000, 91.000000)">
                        <g id="team" transform="translate(62.000000, 38.000000) scale(-1, 1) translate(-62.000000, -38.000000) translate(12.000000, 0.000000)">
                            <ellipse id="Oval" fill="#785550" cx="85" cy="27.5" rx="6" ry="5.5"></ellipse>
                            <path d="M83.3636852,27.5 C83.3636852,25.1929932 84.8696139,23.2243707 87,22.4078013 C86.3252495,22.1490824 85.5910779,22 84.8182469,22 C81.6048593,22 79,24.4624701 79,27.5 C79,30.5375299 81.6048593,33 84.8182469,33 C85.5910779,33 86.3254284,32.8509176 87,32.5921987 C84.8696139,31.7756293 83.3636852,29.8070068 83.3636852,27.5 Z" id="Shape" fill="#694B4B"></path>
                            <path d="M97.328097,59.4114372 L92.1143377,56.7822844 C91.0226201,56.2318199 90.3329368,55.1062969 90.3331351,53.875 L90.3333333,49 L80.6666667,49 L80.6666667,53.8752 C80.6666667,55.106097 79.9771817,56.23142 78.8854641,56.7820844 L73.6717047,59.4114372 C72.0342275,60.2372339 71,61.9252184 71,63.7717639 L71,73.375 C71,74.2723791 71.7212037,75 72.6111111,75 L98.3888889,75 C99.2787963,75 100,74.2723791 100,73.375 L100,63.7717639 C100,61.9252184 98.9655743,60.2372339 97.328097,59.4114372 Z" id="Shape" fill="#E6AF78"></path>
                            <path d="M85.0004029,55 C86.4108024,55 87.761569,54.6670256 89,54.0743532 C88.9674436,53.8853478 88.9295687,53.6972652 88.9295687,53.5001384 L88.9297298,49 L81.0707537,49 L81.0707537,53.500323 C81.0707537,53.6983727 81.0328787,53.8873781 81,54.0773064 C82.239398,54.666841 83.5896811,55 85.0004029,55 Z" id="Shape" fill="#D29B6E"></path>
                            <path d="M97.328097,58.931089 L93.6138386,57.0002061 C91.8915139,59.7654414 88.9044064,61.5992442 85.5,61.5992442 C82.0955936,61.5992442 79.1082879,59.7652353 77.3859631,57 L73.6717047,58.931089 C72.0342275,59.7823428 71,61.5223634 71,63.425833 L71,73.3249055 C71,74.2499485 71.7214019,75 72.6111111,75 L98.3888889,75 C99.2785981,75 100,74.2499485 100,73.3249055 L100,63.425833 C100,61.5223634 98.9655743,59.7823428 97.328097,58.931089 Z" id="Shape" fill="#D5DCED"></path>
                            <circle id="Oval" fill="#5A4146" cx="85" cy="37" r="11"></circle>
                            <path d="M95.8968304,35.576747 C95.2916751,31.046011 91.8531696,27.258118 87.4310447,26.2723511 C86.6243645,26.0925523 85.8302676,26.004998 85.055723,26.0001122 C79.779489,25.9668885 78.0176469,33.3216393 82.7609339,35.654725 C83.0158889,35.7801934 83.1777283,35.8364782 83.1777283,35.8364782 L88.6581974,45.8534248 C88.6581974,45.8534248 90.1186234,45.9540731 91.5914389,46 C94.6359934,43.6889983 96.4653976,39.8340715 95.8968304,35.576747 Z" id="Shape" fill="#694B4B"></path>
                            <path d="M85.4798983,52 C80.6269018,52 76.6199302,48.2968486 76.0140887,43.5032282 C75.9263933,42.8086746 76.2527061,42.1277319 76.8642244,41.8122805 C77.5967152,41.4343793 78.6609997,40.7974717 79.6800664,39.8677307 C80.8148203,38.8323055 81.480561,37.7404353 81.8565938,36.9389966 C82.1803618,36.2486464 82.9247933,35.8583353 83.6502372,36.0476862 C89.2515802,37.5084504 93.0649565,40.4884254 94.4483111,41.7047949 C94.8198417,42.0314552 95.0337948,42.513039 94.9956238,43.0126372 C94.6103908,48.0416452 90.4973236,52 85.4798983,52 Z" id="Shape" fill="#F0C087"></path>
                            <path d="M83.5930588,36.0450128 C82.8730369,35.8661481 82.1341694,36.2352341 81.8128212,36.8878539 C81.5301359,37.4619246 81.0630737,38.1932828 80.3698632,38.9397829 C80.1540121,39.1824333 79.9249495,39.4203519 79.6525613,39.657324 C78.6411112,40.5366951 77.5847812,41.1387785 76.8577651,41.4961295 C76.2508173,41.7944267 75.9269435,42.4385292 76.0139834,43.0951237 C76.5540969,47.1660479 79.8241154,50.3822068 83.9726926,51 C82.0822952,49.7470003 80.6721714,48.0486367 80.6721714,44.9768946 L80.6721714,42.7837665 C81.0308223,42.5257849 81.391999,42.2685603 81.7549242,41.9530391 C82.6325116,41.190072 83.3985791,40.3076725 84.013104,39.3577019 C86.8801538,38.1541667 89.1523427,37.4263409 83.5930588,36.0450128 Z" id="Shape" fill="#E6AF78"></path>
                            <path d="M99.0856405,61 C99.663529,61.821366 100,62.8293882 100,63.896729 L100,73.3930569 C100,74.2804644 99.3283499,75 98.5,75 L94,75 L94,66.9029998 C94,65.9266143 94.4143595,65.0032202 95.1258767,64.3934241 L99.0856405,61 Z" id="Shape" fill="#C7CFE2"></path>
                            <path d="M5,33.6363636 L5,34.7208631 C5,36.049722 5.22187769,37.3698334 5.65677372,38.630614 L8.2,46 L13,46 L13,29 L9.8,29 C7.1490833,29 5,31.0756289 5,33.6363636 Z" id="Shape" fill="#5A4146"></path>
                            <path d="M26.5125508,35.622448 L23.8333333,45 L11.1666667,33.9167478 C9.41773307,33.9167478 8,32.4990002 8,30.7500487 C8,28.1267188 10.126697,26 12.75,26 L23.8333333,26 C25.5822669,26 27,27.4177476 27,29.1666991 L27,32.1426638 C27,33.3196067 26.8359583,34.4907048 26.5125508,35.622448 Z" id="Shape" fill="#694B4B"></path>
                            <rect id="Rectangle-path" fill="#E6AF78" x="11" y="50" width="10" height="7"></rect>
                            <path d="M11,52.2716068 C12.3912883,52.737675 13.9082687,53 15.5,53 C17.0917313,53 18.6087117,52.737675 20,52.2716068 L20,50 L11,50 L11,52.2716068 Z" id="Shape" fill="#D29B6E"></path>
                            <path d="M27.6272671,57.1923867 L20.1494278,55.0001957 L15.5,58.1664546 L10.85,55 L3.37254214,57.1923867 C1.376252,57.7775712 0,59.6499658 0,61.7805069 L0,73.4094334 C0,74.2877972 0.694038391,75 1.55,75 L29.45,75 C30.3059616,75 31,74.2877972 31,73.4094334 L31,61.7805069 C31,59.6499658 29.6235573,57.7775712 27.6272671,57.1923867 Z" id="Shape" fill="#D5DCED"></path>
                            <polygon id="Shape" fill="#AFB9D2" points="17 75 14 75 14.7499077 58 16.2499077 58"></polygon>
                            <path d="M15.5,52 C10.2531992,52 6,47.8438808 6,42.7168392 L6,40.9042603 C6,40.0835452 6.33353841,39.2965269 6.92755629,38.716258 L9.7986752,35.9106729 C10.4067204,35.3165064 11.2380337,34.9749702 12.0974017,35.0014326 C17.1587302,35.1573513 21.6387043,36.2169894 24.08764,38.5542472 C24.6871129,39.1263299 25,39.9266746 25,40.7454859 L25,42.7168392 C25,47.8438808 20.746606,52 15.5,52 Z" id="Shape" fill="#F0C087"></path>
                            <path d="M10.6558598,41.4276043 C10.6558598,39.6032676 12.2327769,39.1307224 13.9459548,38.2693127 C16.9623661,36.752619 16.9375753,35.1610322 11.9765573,35.0014636 C11.1342211,34.9744148 10.3191926,35.3237144 9.72338926,35.9308536 L6.90917306,38.7988081 C6.32692801,39.3919365 6,40.1965906 6,41.0354935 L6,42.8882412 C6,47.215665 8.84534311,50.8590842 12.7316235,52 C11.4380427,50.3735674 10.6558598,48.309294 10.6558598,46.0512031 C10.6558598,46.0512031 10.6558598,41.4276043 10.6558598,41.4276043 Z" id="Shape" fill="#E6AF78"></path>
                            <path d="M6,66.492545 C6,65.2229749 5.52583979,64.00524 4.68198597,63.1075483 L0.820782577,59 C0.304724991,59.7845967 0,60.7294113 0,61.7378419 L0,73.4043 C0,74.2854987 0.671650055,75 1.5,75 L6,75 L6,66.492545 Z" id="Shape" fill="#C7CFE2"></path>
                            <path d="M16.2499077,61 L14.7499077,61 C14.3357327,61 14,60.6642673 14,60.2499077 L14,58 L17,58 L17,60.2499077 C17,60.6640827 16.6642673,61 16.2499077,61 Z" id="Shape" fill="#959CB5"></path>
                            <g id="Group" transform="translate(9.000000, 53.000000)" fill="#C7CFE2">
                                <path d="M6,4.63826477 L3.52315023,6.79460564 C3.09646678,7.16615534 2.47972669,7.01716657 2.22188259,6.48043813 L0,1.85584318 L0.894363032,0.300990667 C1.09269082,-0.0439173043 1.5154185,-0.102529117 1.78063472,0.177823887 L6,4.63826477 Z" id="Shape"></path>
                                <path d="M7,4.63826477 L9.47684977,6.79460564 C9.90353322,7.16615534 10.5202733,7.01716657 10.7781174,6.48043813 L13,1.85584318 L12.105637,0.300990667 C11.9073092,-0.0439173043 11.4845815,-0.102529117 11.2193653,0.177823887 L7,4.63826477 Z" id="Shape"></path>
                            </g>
                            <path d="M51.0001983,55 C61.5457957,55 71.0134296,50.796182 74.1132441,49.2641987 C74.7453453,48.9519239 75.0946174,48.2840619 74.9775984,47.6026648 C74.4773915,44.6887447 73.1308792,35.9609063 71.9545403,20.4285714 C70.9977609,7.79372111 62.5729849,0 51,0 C39.4270151,0 31.0022391,7.79372111 30.0454597,20.4285714 C28.8693191,35.9610997 27.5228068,44.6887447 27.0224016,47.6026648 C26.9053826,48.2840619 27.2546547,48.9517306 27.8867559,49.2641987 C30.9869671,50.796182 40.454601,55 51.0001983,55 Z" id="Shape" fill="#5A4146"></path>
                            <path d="M73.1109195,49.2642336 C73.7446777,48.9517653 74.0948654,48.2840962 73.9775396,47.6026986 C73.4760215,44.6887764 72.1259793,35.9609318 70.9465567,20.4285859 C69.9872691,7.79372663 61.5402088,0 49.9370844,0 C49.1239569,0 48.3263403,0.0382851086 47.5458254,0.11388853 C38.5133292,0.988645254 37.1571225,13.3910869 45.8386355,15.9681774 C45.9768413,16.0091695 46.0534014,16.0285054 46.0534014,16.0285054 L49.2842359,54.9841835 C49.2886107,54.9882441 49.2913947,54.9907578 49.2959685,54.9948183 C60.1247426,55.1705818 69.9401399,50.8269622 73.1109195,49.2642336 Z" id="Shape" fill="#694B4B"></path>
                            <path d="M24,72.45 L24,64.089498 C24,61.6341393 25.5123627,59.4101267 27.8563456,58.4179894 L41.4835333,52.650929 C42.6555248,52.1548603 43.4117062,51.0429494 43.4117062,49.8152701 L43.4117062,43 L59.5882938,43 L59.5882938,49.8152701 C59.5882938,51.0429494 60.3444752,52.1550511 61.5164667,52.650929 L75.1436544,58.4179894 C77.4878364,59.409936 79,61.6341393 79,64.089498 L79,72.45 C79,73.3059616 78.2756663,74 77.3823412,74 L25.6176588,74 C24.7241347,74 24,73.3061523 24,72.45 Z" id="Shape" fill="#E6AF78"></path>
                            <path d="M75.1438674,58.6105833 L65.0926038,54 C63.0024139,59.6901003 57.7131447,63.7396325 51.5000995,63.7396325 C45.2870544,63.7396325 39.9977852,59.690307 37.9075953,54 L27.8563317,58.6105833 C25.5123572,59.6857591 24,62.0965838 24,64.7579589 L24,73.8199475 C24,74.7477284 24.7241321,75.5 25.6176529,75.5 L77.3823471,75.5 C78.2758679,75.5 79,74.7477284 79,73.8199475 L79,64.7579589 C79.000199,62.0965838 77.4880409,59.6859658 75.1438674,58.6105833 Z" id="Shape" fill="#70A7DE"></path>
                            <path d="M43,47.3477298 C45.2855297,48.3981174 47.8198597,49 50.5,49 C53.1801403,49 55.7144703,48.3981174 58,47.3477298 L58,43 L43,43 L43,47.3477298 Z" id="Shape" fill="#D29B6E"></path>
                            <path d="M64.4370309,23.6883098 C61.9481051,21.4626609 56.3603236,17.5269356 46.7751938,16.0368942 C45.4487203,15.8305868 44.1109942,16.5018703 43.5208995,17.7408913 C42.5375354,19.805338 40.4460748,23.1109629 36.2930971,26.0239762 C35.4687954,26.6021075 35,27.5857937 35,28.6116435 L35,29.5162975 C35,38.0051015 41.2297527,45.4170671 49.4681924,45.9655859 C58.4956503,46.5666621 66,39.2154905 66,30.0622669 L66,27.2661349 C66,25.8963088 65.4421373,24.5870805 64.4370309,23.6883098 Z" id="Shape" fill="#F0C087"></path>
                            <path d="M46.9640206,16 C45.6112076,16 44.2572918,16.4676713 43.6575405,17.7136771 C43.4166711,18.2142885 43.0944138,18.7975463 42.7078213,19.4206478 C41.4988234,21.37536 39.5272986,23.8078031 36.3390247,26.0270228 C35.493947,26.6152116 35,27.6053888 35,28.6474417 L35,29.5573395 C35,37.7975068 40.9021727,45.0094284 48.8380738,46 C46.1253377,43.120202 44.4491347,39.2204426 44.4491347,34.9157363 L44.4491347,24.8376267 C44.4491347,23.188252 45.6658837,21.8110774 47.2779454,21.6453904 C51.0642265,21.2564204 53.4221503,16 46.9640206,16 Z" id="Shape" fill="#E6AF78"></path>
                            <g id="Group" transform="translate(24.000000, 60.000000)" fill="#5A9EE1">
                                <path d="M2.35027861,0 C0.89099826,1.18031641 0,2.96982212 0,4.90905207 L0,13.4217783 C0,14.2933249 0.703633391,15 1.57142857,15 L11,15 L11,10.6482872 C11,9.39262318 10.5032607,8.18822661 9.6192234,7.30036768 L2.35027861,0 Z" id="Shape"></path>
                                <path d="M51.6497214,0 C53.1090017,1.18031641 54,2.96982212 54,4.90905207 L54,13.4217783 C54,14.2933249 53.2963666,15 52.4285714,15 L43,15 L43,10.6482872 C43,9.39262318 43.4967393,8.18822661 44.3807766,7.30036768 L51.6497214,0 Z" id="Shape"></path>
                            </g>
                        </g>
                    </g>
                </g>
            </g>
        </g>
    </g>
</svg>