<?xml version="1.0" encoding="UTF-8"?>
<svg width="100px" height="95px" viewBox="0 0 100 95" version="1.1" xmlns="http://www.w3.org/2000/svg" xmlns:xlink="http://www.w3.org/1999/xlink">
    <!-- Generator: Sketch 49.1 (51147) - http://www.bohemiancoding.com/sketch -->
    <title>Site</title>
    <desc>Created with Sketch.</desc>
    <defs></defs>
    <g id="Sidebar-+-Homepage" stroke="none" stroke-width="1" fill="none" fill-rule="evenodd">
        <g id="Homepage--&gt;-Organisation" transform="translate(-325.000000, -195.000000)">
            <g id="Group-9" transform="translate(60.000000, 124.000000)">
                <g id="Group-2">
                    <g id="Group-3" transform="translate(265.000000, 71.000000)">
                        <g id="Site">
                            <rect id="Rectangle-path" fill="#FFB74D" x="14" y="32" width="71" height="59"></rect>
                            <polygon id="Shape" fill="#33691E" fill-rule="nonzero" points="21 48 21.6570342 48 38.9863118 48 56.3429658 48 57 48 57 49 56.3429658 49 38.9863118 49 21.6570342 49 21 49"></polygon>
                            <path d="M15.0479882,0 L83.978959,0 C85.110742,0 86,0.933040615 86,2.05817783 L86,25 L13,25 L13,2.05817783 C13,0.905598244 13.9162052,0 15.0479882,0 Z" id="Shape" fill="#F9A825" fill-rule="nonzero"></path>
                            <path d="M8.69767442,34 L90.3023256,34 C91.7860465,34 93,32.7264151 93,31.1698113 L93,27.8301887 C93,26.2735849 91.7860465,25 90.3023256,25 L8.69767442,25 C7.21395349,25 6,26.2735849 6,27.8301887 L6,31.1698113 C6,32.7264151 7.21395349,34 8.69767442,34 Z" id="Shape" fill="#FFB74D"></path>
                            <g id="Group" transform="translate(0.000000, 33.000000)">
                                <path d="M20,13 L20,1.25536481 C20.5310559,0.836909871 21.0900621,0.418454936 21.6490683,0 L29,0 C24.8913043,4.04506438 21.5093168,8.56437768 20.0279503,12.972103 C20.0279503,12.972103 20,13 20,13 Z M20,1 L20,13 L19.9730458,13 L10.0269542,13 L10,13 L10.0269542,12.9714964 C11.7520216,8.9239905 15.4447439,4.76247031 20,1 Z" id="Shape" fill="#F05540"></path>
                                <g transform="translate(0.000000, 13.000000)" id="Shape">
                                    <path d="M0,0 L10,0 L10,5.67919799 C10,8.60150376 7.75067751,11 5.01355014,11 C2.27642276,11 0.027100271,8.60150376 0.027100271,5.67919799 L0.027100271,0 L0,0 Z" fill="#70A7DE"></path>
                                    <path d="M80,0 L70,0 L70,5.67919799 C70,8.60150376 72.2493225,11 74.9864499,11 C77.7235772,11 79.9728997,8.60150376 79.9728997,5.67919799 L79.9728997,0 L80,0 Z" fill="#F3705A"></path>
                                    <path d="M80,0 L90,0 L90,5.67919799 C90,8.60150376 87.7506775,11 85.0135501,11 C82.2764228,11 80.0271003,8.60150376 80.0271003,5.67919799 L80.0271003,0 L80,0 Z" fill="#70A7DE"></path>
                                    <path d="M100,0 L90,0 L90,5.67919799 C90,8.60150376 92.2493225,11 94.9864499,11 C97.7235772,11 99.9728997,8.60150376 99.9728997,5.67919799 L99.9728997,0 L100,0 Z" fill="#F3705A"></path>
                                    <path d="M40,0 L30,0 L30,5.67919799 C30,8.60150376 32.2493225,11 34.9864499,11 C37.7235772,11 39.9728997,8.60150376 39.9728997,5.67919799 L39.9728997,0 L40,0 Z" fill="#F3705A"></path>
                                    <path d="M40,0 L50,0 L50,5.67919799 C50,8.60150376 47.7506775,11 45.0135501,11 C42.2764228,11 40.0271003,8.60150376 40.0271003,5.67919799 L40.0271003,0 L40,0 Z" fill="#70A7DE"></path>
                                    <path d="M20,0 L10,0 L10,5.67919799 C10,8.60150376 12.2493225,11 14.9864499,11 C17.7235772,11 19.9728997,8.60150376 19.9728997,5.67919799 L19.9728997,0 L20,0 Z" fill="#F3705A"></path>
                                    <path d="M60,0 L70,0 L70,5.67919799 C70,8.60150376 67.7506775,11 65.0135501,11 C62.2764228,11 60.0271003,8.60150376 60.0271003,5.67919799 L60.0271003,0 L60,0 Z" fill="#70A7DE"></path>
                                    <path d="M20,0 L30,0 L30,5.67919799 C30,8.60150376 27.7445652,11 25,11 C22.2554348,11 20,8.60150376 20,5.67919799 L20,0 Z" fill="#70A7DE"></path>
                                    <path d="M60,0 L50,0 L50,5.67919799 C50,8.60150376 52.2493225,11 54.9864499,11 C57.7235772,11 59.9728997,8.60150376 59.9728997,5.67919799 L59.9728997,0 L60,0 Z" fill="#F3705A"></path>
                                </g>
                                <path d="M49.9728752,13 L20,13 C21.4104882,8.59227468 24.7197107,4.04506438 28.7341772,0 L71.2658228,0 C75.2531646,4.04506438 78.562387,8.59227468 80,13 L49.9728752,13 Z" id="Shape" fill="#BF360C"></path>
                                <path d="M49.9864773,13 L30,13 C30.9465855,8.59227468 33.1643002,4.04506438 35.8147397,0 L64.1852603,0 C66.8356998,4.04506438 69.0534145,8.59227468 70,13 L49.9864773,13 Z" id="Shape" fill="#BF360C"></path>
                                <path d="M50,13 L40,13 C40.4632153,8.59227468 41.5803815,4.04506438 42.9155313,0 L57.0844687,0 C58.4196185,4.04506438 59.5095368,8.59227468 60,13 L50,13 Z" id="Shape" fill="#BF360C"></path>
                                <path d="M10.1580928,12.972103 C12.0903388,8.59227468 16.5897114,4.04506438 22,0 L14.7954831,0 C8.03262233,4.04506438 2.42910916,8.56437768 0.0276035132,12.972103 C0.0276035132,12.972103 0.0276035132,13 0,13 L10.1304893,13 C10.1580928,13 10.1580928,12.972103 10.1580928,12.972103 Z" id="Shape" fill="#70A7DE"></path>
                                <path d="M20,13 L30.0791738,13 C30.0791738,13 30.0791738,12.972103 30.0791738,12.972103 C31.0430293,8.59227468 33.3012048,4.04506438 36,0 L28.8399312,0 C24.8192771,4.01716738 21.4870912,8.56437768 20,12.972103 C20.0275387,12.972103 20,12.972103 20,13 C20,13 20,13 20,13 Z" id="Shape" fill="#70A7DE"></path>
                                <path d="M35.8350731,0 C33.1753653,4.04506438 30.9770355,8.56437768 30,12.972103 L30,13 L30.0542797,13 L40.0688935,13 L40.1231733,13 C40.1231733,13 40.1231733,12.972103 40.1231733,12.972103 C40.5845511,8.59227468 41.697286,4.04506438 43,0 L35.8350731,0 Z" id="Shape" fill="#F05540"></path>
                                <path d="M42.8882834,0 C41.5531335,4.04506438 40.4632153,8.56437768 40,12.972103 C40,12.972103 40,13 40,13 L43.2152589,13 L50,13 L50,12.972103 L50,9.15021459 L50,0 L42.8882834,0 Z" id="Shape" fill="#70A7DE"></path>
                                <path d="M50,0 L50,9.15021459 L50,12.972103 L50,13 L56.8032787,13 L60,13 C60,13 60,12.972103 60,12.972103 C59.5355191,8.59227468 58.4153005,4.04506438 57.1038251,0 L50,0 Z" id="Shape" fill="#F05540"></path>
                                <path d="M57,0 C58.3298539,4.04506438 59.4154489,8.56437768 59.8768267,12.972103 C59.8768267,12.972103 59.8768267,13 59.8768267,13 L59.9311065,13 L69.9457203,13 L70,13 C70,13 70,12.972103 70,12.972103 C69.0501044,8.59227468 66.8246347,4.04506438 64.1649269,0 L57,0 Z" id="Shape" fill="#70A7DE"></path>
                                <path d="M64,0 C66.6987952,4.04506438 68.929432,8.56437768 69.9208262,12.972103 L69.9208262,13 L80,13 C80,13 80,12.972103 80,12.972103 C78.5404475,8.59227468 75.2082616,4.04506438 71.1600688,0 L64,0 Z" id="Shape" fill="#F05540"></path>
                                <path d="M71,0 C75.0361272,4.04506438 78.3583815,8.56437768 79.8135838,12.972103 C79.8135838,12.972103 79.8135838,13 79.8135838,13 L79.8410405,13 L89.9725434,13 L90,13 C90,13 90,12.972103 89.9725434,12.972103 C88.050578,8.59227468 83.5751445,4.04506438 78.1936416,0 L71,0 Z" id="Shape" fill="#70A7DE"></path>
                                <path d="M78,0 C83.4102886,4.04506438 87.8820577,8.56437768 89.8419072,12.972103 C89.8419072,12.972103 89.8419072,13 89.8695107,13 L100,13 C100,13 100,12.972103 99.9723965,12.972103 C97.5432873,8.59227468 91.9397742,4.04506438 85.2045169,0 L78,0 Z" id="Shape" fill="#F05540"></path>
                            </g>
                            <g id="Group" transform="translate(23.000000, 6.000000)" fill="#FFFFFF" fill-rule="nonzero">
                                <path d="M8.78934625,4.35087719 C8.49636804,3.95789474 8.0968523,3.62105263 7.61743341,3.39649123 C7.13801453,3.17192982 6.65859564,3.03157895 6.23244552,3.03157895 C5.99273608,3.03157895 5.77966102,3.05964912 5.53995157,3.0877193 C5.30024213,3.14385965 5.08716707,3.2 4.90072639,3.34035088 C4.71428571,3.45263158 4.55447942,3.62105263 4.42130751,3.81754386 C4.28813559,4.01403509 4.23486683,4.26666667 4.23486683,4.54736842 C4.23486683,4.8 4.28813559,5.0245614 4.39467312,5.19298246 C4.50121065,5.36140351 4.63438257,5.50175439 4.84745763,5.64210526 C5.03389831,5.78245614 5.27360775,5.89473684 5.53995157,6.00701754 C5.8062954,6.11929825 6.12590799,6.23157895 6.44552058,6.34385965 C6.92493947,6.5122807 7.45762712,6.70877193 7.96368039,6.90526316 C8.49636804,7.10175439 8.97578692,7.38245614 9.40193705,7.71929825 C9.82808717,8.05614035 10.2009685,8.47719298 10.4939467,9.01052632 C10.7869249,9.51578947 10.9200969,10.1614035 10.9200969,10.9192982 C10.9200969,11.7894737 10.7602906,12.5473684 10.4673123,13.1929825 C10.1743341,13.8385965 9.74818402,14.3438596 9.24213075,14.7649123 C8.73607748,15.1859649 8.12348668,15.4947368 7.45762712,15.6912281 C6.79176755,15.8877193 6.09927361,16 5.40677966,16 C4.36803874,16 3.38256659,15.8035088 2.39709443,15.4385965 C1.43825666,15.045614 0.639225182,14.5122807 0,13.8105263 L2.2905569,11.3684211 C2.63680387,11.8175439 3.11622276,12.2105263 3.67554479,12.5192982 C4.26150121,12.8280702 4.82082324,12.9684211 5.40677966,12.9684211 C5.67312349,12.9684211 5.91283293,12.9403509 6.15254237,12.8842105 C6.39225182,12.8280702 6.60532688,12.7438596 6.79176755,12.6035088 C6.97820823,12.4631579 7.11138015,12.2947368 7.21791768,12.0982456 C7.32445521,11.8736842 7.37772397,11.6210526 7.37772397,11.3122807 C7.37772397,11.0315789 7.29782082,10.7789474 7.16464891,10.5824561 C7.031477,10.3859649 6.84503632,10.1894737 6.57869249,10.0210526 C6.33898305,9.85263158 6.01937046,9.7122807 5.6464891,9.57192982 C5.27360775,9.43157895 4.84745763,9.29122807 4.36803874,9.12280702 C3.91525424,8.95438596 3.46246973,8.78596491 3.00968523,8.56140351 C2.55690073,8.33684211 2.18401937,8.08421053 1.8377724,7.74736842 C1.49152542,7.41052632 1.2251816,6.98947368 1.01210654,6.5122807 C0.799031477,6.03508772 0.692493947,5.44561404 0.692493947,4.77192982 C0.692493947,3.92982456 0.852300242,3.2 1.17191283,2.61052632 C1.49152542,2.02105263 1.91767554,1.51578947 2.4503632,1.12280702 C2.98305085,0.729824561 3.56900726,0.449122807 4.23486683,0.280701754 C4.90072639,0.112280702 5.56658596,0 6.2590799,0 C7.08474576,0 7.91041162,0.168421053 8.76271186,0.477192982 C9.61501211,0.785964912 10.3607748,1.26315789 11,1.88070175 L8.78934625,4.35087719 Z" id="Shape"></path>
                                <polygon id="Shape" points="17 15 17 0 21 0 21 15"></polygon>
                                <polygon id="Shape" points="33.798627 3.099631 33.798627 15 30.201373 15 30.201373 3.099631 26 3.099631 26 0 38 0 38 3.099631"></polygon>
                                <polygon id="Shape" points="44 15 44 0 53.6296296 0 53.6296296 3.04428044 47.3333333 3.04428044 47.3333333 5.89483395 53.2857143 5.89483395 53.2857143 8.80073801 47.3333333 8.80073801 47.3333333 11.9280443 54 11.9280443 54 15"></polygon>
                            </g>
                            <path d="M24.3313609,71 L30.6686391,71 C31.4142012,71 32,70.4142012 32,69.6686391 L32,63.3313609 C32,62.5857988 31.4142012,62 30.6686391,62 L24.3313609,62 C23.5857988,62 23,62.5857988 23,63.3313609 L23,69.6686391 C23,70.387574 23.5857988,71 24.3313609,71 Z" id="Shape" fill="#70A7DE" fill-rule="nonzero"></path>
                            <path d="M35.3313609,71 L41.6686391,71 C42.4142012,71 43,70.4142012 43,69.6686391 L43,63.3313609 C43,62.5857988 42.4142012,62 41.6686391,62 L35.3313609,62 C34.5857988,62 34,62.5857988 34,63.3313609 L34,69.6686391 C34,70.387574 34.5857988,71 35.3313609,71 Z" id="Shape" fill="#70A7DE" fill-rule="nonzero"></path>
                            <path d="M58.3280212,95 L75.6719788,95 C76.4156707,95 77,94.4063778 77,93.6508585 L77,63.3491415 C77,62.5936222 76.4156707,62 75.6719788,62 L58.3280212,62 C57.5843293,62 57,62.5936222 57,63.3491415 L57,93.6238757 C57,94.3793949 57.5843293,95 58.3280212,95 Z" id="Shape" fill="#B86A3A" fill-rule="nonzero"></path>
                            <path d="M24.3313609,82 L30.6686391,82 C31.4142012,82 32,81.4142012 32,80.6686391 L32,74.3313609 C32,73.5857988 31.4142012,73 30.6686391,73 L24.3313609,73 C23.5857988,73 23,73.5857988 23,74.3313609 L23,80.6686391 C23,81.387574 23.5857988,82 24.3313609,82 Z" id="Shape" fill="#70A7DE" fill-rule="nonzero"></path>
                            <path d="M35.3313609,82 L41.6686391,82 C42.4142012,82 43,81.4142012 43,80.6686391 L43,74.3313609 C43,73.5857988 42.4142012,73 41.6686391,73 L35.3313609,73 C34.5857988,73 34,73.5857988 34,74.3313609 L34,80.6686391 C34,81.387574 34.5857988,82 35.3313609,82 Z" id="Shape" fill="#70A7DE" fill-rule="nonzero"></path>
                            <path d="M9.89127604,95 L89.108724,95 C90.1624349,95 91,94.1142857 91,93 L91,92 C91,90.8857143 90.1624349,90 89.108724,90 L9.89127604,90 C8.8375651,90 8,90.8857143 8,92 L8,93 C8,94.1142857 8.8375651,95 9.89127604,95 Z" id="Shape" fill="#F9A825"></path>
                        </g>
                    </g>
                </g>
            </g>
        </g>
    </g>
</svg>