<?xml version="1.0" encoding="UTF-8"?>
<svg width="99px" height="55px" viewBox="0 0 99 55" version="1.1" xmlns="http://www.w3.org/2000/svg" xmlns:xlink="http://www.w3.org/1999/xlink">
    <!-- Generator: Sketch 49.1 (51147) - http://www.bohemiancoding.com/sketch -->
    <title>Data Extracts</title>
    <desc>Created with Sketch.</desc>
    <defs></defs>
    <g id="Sidebar-+-Homepage" stroke="none" stroke-width="1" fill="none" fill-rule="evenodd">
        <g id="Homepage--&gt;-Organisation-Copy" transform="translate(-543.000000, -235.000000)">
            <g id="Group-2" transform="translate(60.000000, 114.000000)">
                <g id="Group-5" transform="translate(479.000000, 121.000000)">
                    <g id="Data-Extracts" transform="translate(4.000000, 0.000000)">
                        <g id="Group" transform="translate(58.168902, 0.000000)">
                            <g>
                                <path d="M0.133434959,51.6660163 L0.133434959,3.06900407 C0.133434959,1.44109756 1.44109756,0.133434959 3.06900407,0.133434959 L37.7887805,0.133434959 C39.416687,0.133434959 40.7243496,1.44109756 40.7243496,3.06900407 L40.7243496,51.6927033 C40.7243496,53.3206098 39.416687,54.6282724 37.7887805,54.6282724 L3.06900407,54.6282724 C1.46778455,54.6015854 0.133434959,53.2939228 0.133434959,51.6660163 Z" id="Shape" fill="#D0D5D8" fill-rule="nonzero"></path>
                                <path d="M35.5203862,50.5985366 L4.88371951,50.5985366 C3.97636179,50.5985366 3.22912602,49.8513008 3.22912602,48.9439431 L3.22912602,5.79107724 C3.22912602,4.88371951 3.97636179,4.13648374 4.88371951,4.13648374 L35.5203862,4.13648374 C36.4277439,4.13648374 37.1749797,4.88371951 37.1749797,5.79107724 L37.1749797,48.9439431 C37.1482927,49.8513008 36.4277439,50.5985366 35.5203862,50.5985366 Z" id="Shape" fill="#FFFFFF" fill-rule="nonzero"></path>
                                <g transform="translate(6.404878, 36.561179)">
                                    <rect id="Rectangle-path" x="0.0266869919" y="0.293556911" width="27.9946545" height="14.5710976"></rect>
                                    <path d="M7.17880081,2.88219512 C7.04536585,2.66869919 6.8852439,2.50857724 6.69843496,2.34845528 C6.51162602,2.18833333 6.29813008,2.08158537 6.05794715,2.00152439 C5.81776423,1.92146341 5.5775813,1.86808943 5.31071138,1.86808943 C4.83034553,1.86808943 4.43004065,1.94815041 4.08310976,2.13495935 C3.73617886,2.32176829 3.46930894,2.56195122 3.25581301,2.88219512 C3.04231707,3.20243902 2.90888211,3.54936992 2.80213415,3.9496748 C2.69538618,4.34997967 2.66869919,4.75028455 2.66869919,5.17727642 C2.66869919,5.5775813 2.72207317,5.97788618 2.80213415,6.37819106 C2.90888211,6.75180894 3.04231707,7.09873984 3.25581301,7.41898374 C3.46930894,7.73922764 3.73617886,7.97941057 4.08310976,8.16621951 C4.43004065,8.35302846 4.83034553,8.43308943 5.31071138,8.43308943 C5.95119919,8.43308943 6.48493902,8.24628049 6.83186992,7.84597561 C7.2054878,7.44567073 7.41898374,6.91193089 7.49904472,6.27144309 L9.55394309,6.27144309 C9.50056911,6.8852439 9.36713415,7.41898374 9.12695122,7.92603659 C8.88676829,8.43308943 8.59321138,8.83339431 8.2195935,9.1803252 C7.84597561,9.5272561 7.41898374,9.79412602 6.91193089,9.98093496 C6.40487805,10.1677439 5.87113821,10.2478049 5.2573374,10.2478049 C4.51010163,10.2478049 3.84292683,10.1143699 3.25581301,9.8475 C2.66869919,9.58063008 2.16164634,9.23369919 1.76134146,8.78002033 C1.36103659,8.32634146 1.04079268,7.79260163 0.827296748,7.17880081 C0.613800813,6.565 0.507052846,5.8978252 0.507052846,5.20396341 C0.507052846,4.48341463 0.613800813,3.81623984 0.827296748,3.17575203 C1.04079268,2.56195122 1.36103659,2.00152439 1.76134146,1.54784553 C2.16164634,1.09416667 2.66869919,0.72054878 3.25581301,0.453678862 C3.84292683,0.186808943 4.51010163,0.0533739837 5.2573374,0.0533739837 C5.79107724,0.0533739837 6.29813008,0.133434959 6.77849593,0.293556911 C7.25886179,0.453678862 7.68585366,0.667174797 8.05947154,0.960731707 C8.43308943,1.25428862 8.75333333,1.6279065 8.99351626,2.05489837 C9.23369919,2.48189024 9.39382114,2.98894309 9.44719512,3.54936992 L7.39229675,3.54936992 C7.39229675,3.30918699 7.31223577,3.09569106 7.17880081,2.88219512 Z" id="Shape" fill="#7CCF7F" fill-rule="nonzero"></path>
                                    <path d="M12.6496341,7.60579268 C12.7563821,7.81928862 12.9165041,8.00609756 13.13,8.16621951 C13.3168089,8.29965447 13.5569919,8.40640244 13.8238618,8.48646341 C14.0907317,8.56652439 14.3576016,8.59321138 14.6511585,8.59321138 C14.8379675,8.59321138 15.0514634,8.56652439 15.2649593,8.5398374 C15.4784553,8.51315041 15.6919512,8.45977642 15.8787602,8.35302846 C16.0655691,8.27296748 16.2256911,8.13953252 16.359126,7.97941057 C16.492561,7.81928862 16.545935,7.63247967 16.545935,7.36560976 C16.545935,7.09873984 16.465874,6.8852439 16.305752,6.72512195 C16.1456301,6.565 15.9054472,6.43156504 15.6385772,6.32481707 C15.3717073,6.21806911 15.0514634,6.11132114 14.7045325,6.03126016 C14.3576016,5.95119919 14.0106707,5.87113821 13.6637398,5.76439024 C13.290122,5.68432927 12.9431911,5.55089431 12.5962602,5.44414634 C12.2493293,5.31071138 11.9557724,5.15058943 11.6622154,4.9370935 C11.3953455,4.72359756 11.1818496,4.45672764 10.9950407,4.16317073 C10.8082317,3.86961382 10.7548577,3.46930894 10.7548577,3.01563008 C10.7548577,2.50857724 10.8616057,2.08158537 11.0751016,1.70796748 C11.2885976,1.33434959 11.5554675,1.04079268 11.9023984,0.800609756 C12.2493293,0.560426829 12.6496341,0.373617886 13.076626,0.266869919 C13.5036179,0.160121951 13.9572967,0.0800609756 14.3842886,0.0800609756 C14.8913415,0.0800609756 15.3717073,0.133434959 15.8520732,0.240182927 C16.305752,0.346930894 16.7327439,0.533739837 17.1063618,0.800609756 C17.4799797,1.06747967 17.7468496,1.38772358 17.9603455,1.76134146 C18.1738415,2.16164634 18.2805894,2.6420122 18.2805894,3.20243902 L16.2256911,3.20243902 C16.1990041,2.90888211 16.1456301,2.66869919 16.0388821,2.48189024 C15.9321341,2.2950813 15.7986992,2.13495935 15.6118902,2.02821138 C15.4517683,1.92146341 15.2382724,1.84140244 15.0247764,1.78802846 C14.8112805,1.73465447 14.5710976,1.70796748 14.3042276,1.70796748 C14.1441057,1.70796748 13.9572967,1.73465447 13.7971748,1.76134146 C13.6370528,1.78802846 13.4769309,1.86808943 13.3168089,1.94815041 C13.183374,2.02821138 13.049939,2.16164634 12.969878,2.2950813 C12.8898171,2.42851626 12.8364431,2.6153252 12.8364431,2.80213415 C12.8364431,2.98894309 12.8631301,3.14906504 12.9431911,3.25581301 C13.023252,3.36256098 13.156687,3.46930894 13.3701829,3.57605691 C13.5836789,3.68280488 13.8772358,3.76286585 14.2508537,3.86961382 C14.6244715,3.97636179 15.1048374,4.08310976 15.7186382,4.24323171 C15.9054472,4.2699187 16.1456301,4.34997967 16.465874,4.43004065 C16.7861179,4.53678862 17.1063618,4.67022358 17.4266057,4.88371951 C17.7468496,5.09721545 18.0137195,5.36408537 18.2539024,5.71101626 C18.4940854,6.05794715 18.6008333,6.51162602 18.6008333,7.04536585 C18.6008333,7.49904472 18.5207724,7.89934959 18.3339634,8.27296748 C18.1738415,8.64658537 17.9069715,8.99351626 17.5600407,9.26038618 C17.2131098,9.5272561 16.7861179,9.74075203 16.305752,9.90087398 C15.7986992,10.0609959 15.2115854,10.1410569 14.5710976,10.1410569 C14.0373577,10.1410569 13.5303049,10.0876829 13.023252,9.95424797 C12.5161992,9.82081301 12.0892073,9.60731707 11.6889024,9.34044715 C11.3152846,9.04689024 10.9950407,8.69995935 10.7815447,8.27296748 C10.5680488,7.84597561 10.4346138,7.31223577 10.4613008,6.72512195 L12.5161992,6.72512195 C12.4628252,7.09873984 12.5428862,7.39229675 12.6496341,7.60579268 Z" id="Shape" fill="#7CCF7F" fill-rule="nonzero"></path>
                                    <polygon id="Shape" fill="#7CCF7F" fill-rule="nonzero" points="21.9367073 10.007622 18.7876423 0.293556911 20.9759756 0.293556911 23.137622 7.12542683 23.1643089 7.12542683 25.3526423 0.293556911 27.5409756 0.293556911 24.3118496 10.007622"></polygon>
                                </g>
                                <g transform="translate(6.138008, 7.205488)">
                                    <rect id="Rectangle-path" x="0.293556911" y="0.0800609756" width="27.9946545" height="14.5710976"></rect>
                                    <polygon id="Shape" fill="#7CCF7F" fill-rule="nonzero" points="0.480365854 0.0800609756 2.9622561 0.0800609756 4.85703252 3.17575203 6.83186992 0.0800609756 9.1803252 0.0800609756 6.05794715 4.72359756 9.44719512 9.79412602 6.91193089 9.79412602 4.80365854 6.43156504 2.6420122 9.79412602 0.240182927 9.79412602 3.62943089 4.72359756"></polygon>
                                </g>
                            </g>
                            <path d="M34.1593496,11.6355285 L19.9351829,11.6355285 C19.775061,11.6355285 19.668313,11.8757114 19.668313,12.1692683 L19.668313,13.9306098 C19.668313,14.2241667 19.775061,14.4643496 19.9351829,14.4643496 L34.1593496,14.4643496 C34.3194715,14.4643496 34.4262195,14.2241667 34.4262195,13.9306098 L34.4262195,12.1692683 C34.4262195,11.8757114 34.2927846,11.6355285 34.1593496,11.6355285 Z" id="Shape" fill="#BDC3C7" fill-rule="nonzero"></path>
                            <path d="M34.1593496,7.28554878 L19.9351829,7.28554878 C19.775061,7.28554878 19.668313,7.52573171 19.668313,7.81928862 L19.668313,9.58063008 C19.668313,9.87418699 19.775061,10.1143699 19.9351829,10.1143699 L34.1593496,10.1143699 C34.3194715,10.1143699 34.4262195,9.87418699 34.4262195,9.58063008 L34.4262195,7.81928862 C34.4262195,7.5524187 34.2927846,7.28554878 34.1593496,7.28554878 Z" id="Shape" fill="#BDC3C7" fill-rule="nonzero"></path>
                            <path d="M33.8924797,20.4422358 L6.53831301,20.4422358 C6.2447561,20.4422358 6.03126016,20.6824187 6.03126016,20.9759756 L6.03126016,22.7373171 C6.03126016,23.030874 6.2447561,23.2710569 6.53831301,23.2710569 L33.8924797,23.2710569 C34.1860366,23.2710569 34.3995325,23.030874 34.3995325,22.7373171 L34.3995325,20.9759756 C34.4262195,20.6824187 34.1860366,20.4422358 33.8924797,20.4422358 Z" id="Shape" fill="#BDC3C7" fill-rule="nonzero"></path>
                            <path d="M34.1593496,16.1189431 L19.9351829,16.1189431 C19.775061,16.1189431 19.668313,16.359126 19.668313,16.6526829 L19.668313,18.4140244 C19.668313,18.7075813 19.775061,18.9477642 19.9351829,18.9477642 L34.1593496,18.9477642 C34.3194715,18.9477642 34.4262195,18.7075813 34.4262195,18.4140244 L34.4262195,16.6526829 C34.4262195,16.359126 34.2927846,16.1189431 34.1593496,16.1189431 Z" id="Shape" fill="#BDC3C7" fill-rule="nonzero"></path>
                            <path d="M33.8924797,29.515813 L6.53831301,29.515813 C6.2447561,29.515813 6.03126016,29.7559959 6.03126016,30.0495528 L6.03126016,31.8108943 C6.03126016,32.1044512 6.2447561,32.3446341 6.53831301,32.3446341 L33.8924797,32.3446341 C34.1860366,32.3446341 34.3995325,32.1044512 34.3995325,31.8108943 L34.3995325,30.0495528 C34.4262195,29.7559959 34.1860366,29.515813 33.8924797,29.515813 Z" id="Shape" fill="#BDC3C7" fill-rule="nonzero"></path>
                            <path d="M33.8924797,25.0057114 L6.53831301,25.0057114 C6.2447561,25.0057114 6.03126016,25.2458943 6.03126016,25.5394512 L6.03126016,27.3007927 C6.03126016,27.5943496 6.2447561,27.8345325 6.53831301,27.8345325 L33.8924797,27.8345325 C34.1860366,27.8345325 34.3995325,27.5943496 34.3995325,27.3007927 L34.3995325,25.5394512 C34.4262195,25.2458943 34.1860366,25.0057114 33.8924797,25.0057114 Z" id="Shape" fill="#BDC3C7" fill-rule="nonzero"></path>
                        </g>
                        <g id="Group" transform="translate(0.000000, 22.000000)">
                            <path d="M37.0322154,0.143597561 L37.0322154,0.0797764228 L36.840752,0.0797764228 L2.39329268,0.0797764228 L2.20182927,0.0797764228 L2.20182927,0.143597561 C1.06900407,0.223373984 0.239329268,1.11686992 0.0957317073,2.20182927 L0.0957317073,2.39329268 L0.0957317073,25.0976626 C0.0957317073,25.5444106 0.207418699,25.9113821 0.398882114,26.2464431 C0.845630081,27.028252 1.48384146,27.4111789 2.39329268,27.4111789 L14.9660569,27.4111789 L14.9660569,30.5862805 L12.5727642,30.5862805 C11.9824187,30.5862805 11.5197154,31.0489837 11.5197154,31.6393293 C11.5197154,32.2296748 11.9824187,32.692378 12.5727642,32.692378 L26.6453252,32.692378 C27.2356707,32.692378 27.7143293,32.2296748 27.7143293,31.6393293 C27.7143293,31.0489837 27.2356707,30.5862805 26.6453252,30.5862805 L24.2520325,30.5862805 L24.2520325,27.4111789 L36.8247967,27.4111789 C37.7182927,27.4111789 38.3724593,27.0122967 38.8192073,26.2464431 C39.0106707,25.8954268 39.138313,25.5284553 39.138313,25.0976626 L39.138313,2.39329268 L39.138313,2.20182927 C39.0106707,1.11686992 38.1171748,0.207418699 37.0322154,0.143597561 Z M37.0322154,2.39329268 L37.0322154,25.0976626 C37.0322154,25.2253049 36.9683943,25.289126 36.840752,25.289126 L2.39329268,25.289126 C2.26565041,25.289126 2.20182927,25.2253049 2.20182927,25.0976626 L2.20182927,2.39329268 L2.20182927,2.20182927 L37.0322154,2.20182927 L37.0322154,2.39329268 Z" id="Shape" fill="#626262" fill-rule="nonzero"></path>
                            <path d="M18.5240854,16.7370935 C17.7901423,16.7370935 17.1997967,17.327439 17.1997967,18.0613821 L17.1997967,22.2895325 L19.8164634,22.2895325 L19.8164634,18.0613821 C19.8164634,17.3433943 19.2261179,16.7370935 18.5240854,16.7370935 Z" id="Shape" fill="#6B9CD1" fill-rule="nonzero"></path>
                            <path d="M22.879878,13.0514228 C22.145935,13.0514228 21.5555894,13.6417683 21.5555894,14.3757114 L21.5555894,22.2735772 L24.1722561,22.2735772 L24.1722561,14.3757114 C24.1722561,13.6417683 23.5819106,13.0514228 22.879878,13.0514228 Z" id="Shape" fill="#ABC66A" fill-rule="nonzero"></path>
                            <path d="M27.251626,17.6625 C26.5176829,17.6625 25.9273374,18.2528455 25.9273374,18.9867886 L25.9273374,22.2735772 L28.5440041,22.2735772 L28.5440041,18.9867886 C28.5440041,18.2528455 27.9855691,17.6625 27.251626,17.6625 Z" id="Shape" fill="#DB6E6E" fill-rule="nonzero"></path>
                            <path d="M31.623374,14.6469512 C30.8894309,14.6469512 30.2990854,15.2372967 30.2990854,15.9712398 L30.2990854,22.3054878 L32.915752,22.3054878 L32.915752,15.9552846 C32.915752,15.2372967 32.3413618,14.6469512 31.623374,14.6469512 Z" id="Shape" fill="#FFE669" fill-rule="nonzero"></path>
                            <circle id="Oval" fill="#424242" fill-rule="nonzero" cx="7.06819106" cy="9.1902439" r="3.97286585"></circle>
                            <circle id="Oval" fill="#999999" fill-rule="nonzero" cx="7.06819106" cy="9.1902439" r="2.8879065"></circle>
                            <circle id="Oval" fill="#424242" fill-rule="nonzero" cx="7.06819106" cy="19.1622967" r="3.97286585"></circle>
                            <circle id="Oval" fill="#999999" fill-rule="nonzero" cx="7.06819106" cy="19.1622967" r="2.8879065"></circle>
                            <path d="M9.86036585,14.4395325 L3.35060976,14.4395325 C3.2070122,14.4395325 3.0953252,14.3278455 3.0953252,14.184248 C3.0953252,14.0406504 3.2070122,13.9289634 3.35060976,13.9289634 L9.86036585,13.9289634 C10.0039634,13.9289634 10.1156504,14.0406504 10.1156504,14.184248 C10.1316057,14.3278455 10.0039634,14.4395325 9.86036585,14.4395325 Z" id="Shape" fill="#BDC3C7" fill-rule="nonzero"></path>
                            <path d="M9.86036585,4.91422764 L3.35060976,4.91422764 C3.2070122,4.91422764 3.0953252,4.80254065 3.0953252,4.65894309 C3.0953252,4.51534553 3.2070122,4.40365854 3.35060976,4.40365854 L9.86036585,4.40365854 C10.0039634,4.40365854 10.1156504,4.51534553 10.1156504,4.65894309 C10.1316057,4.80254065 10.0039634,4.91422764 9.86036585,4.91422764 Z" id="Shape" fill="#BDC3C7" fill-rule="nonzero"></path>
                            <path d="M9.04664634,3.41981707 L3.31869919,3.41981707 C3.19105691,3.41981707 3.0953252,3.31267422 3.0953252,3.16981707 C3.0953252,3.02695993 3.19105691,2.91981707 3.31869919,2.91981707 L9.04664634,2.91981707 C9.17428862,2.91981707 9.27002033,3.02695993 9.27002033,3.16981707 C9.28597561,3.31267422 9.17428862,3.41981707 9.04664634,3.41981707 Z" id="Shape" fill="#BDC3C7" fill-rule="nonzero"></path>
                            <path d="M21.3800813,3.41981707 L15.6521341,3.41981707 C15.5244919,3.41981707 15.4287602,3.31267422 15.4287602,3.16981707 C15.4287602,3.02695993 15.5244919,2.91981707 15.6521341,2.91981707 L21.3800813,2.91981707 C21.5077236,2.91981707 21.6034553,3.02695993 21.6034553,3.16981707 C21.6034553,3.31267422 21.5077236,3.41981707 21.3800813,3.41981707 Z" id="Shape" fill="#BDC3C7" fill-rule="nonzero"></path>
                            <path d="M21.2683943,4.91422764 L14.7586382,4.91422764 C14.6150407,4.91422764 14.5033537,4.80254065 14.5033537,4.65894309 C14.5033537,4.51534553 14.6150407,4.40365854 14.7586382,4.40365854 L21.2683943,4.40365854 C21.4119919,4.40365854 21.5236789,4.51534553 21.5236789,4.65894309 C21.5396341,4.80254065 21.4119919,4.91422764 21.2683943,4.91422764 Z" id="Shape" fill="#BDC3C7" fill-rule="nonzero"></path>
                            <path d="M19.4335366,24.1457317 L14.6948171,24.1457317 C14.5831301,24.1457317 14.5033537,24.041565 14.5033537,23.8957317 C14.5033537,23.7498984 14.5831301,23.6457317 14.6948171,23.6457317 L19.4335366,23.6457317 C19.5452236,23.6457317 19.625,23.7498984 19.625,23.8957317 C19.625,24.0207317 19.5452236,24.1457317 19.4335366,24.1457317 Z" id="Shape" fill="#BDC3C7" fill-rule="nonzero"></path>
                            <path d="M35.771748,3.41981707 L30.0438008,3.41981707 C29.9161585,3.41981707 29.8204268,3.31267422 29.8204268,3.16981707 C29.8204268,3.02695993 29.9161585,2.91981707 30.0438008,2.91981707 L35.771748,2.91981707 C35.8993902,2.91981707 35.995122,3.02695993 35.995122,3.16981707 C36.0110772,3.31267422 35.8993902,3.41981707 35.771748,3.41981707 Z" id="Shape" fill="#BDC3C7" fill-rule="nonzero"></path>
                            <path d="M15.6680894,22.0023374 L15.6680894,11.0889228 C15.6680894,10.7698171 15.4128049,10.5145325 15.0936992,10.5145325 C14.7745935,10.5145325 14.5193089,10.7698171 14.5193089,11.0889228 L14.5193089,22.0023374 L14.5193089,22.5767276 C14.5193089,22.8958333 14.7745935,23.1511179 15.0936992,23.1511179 L15.6680894,23.1511179 L33.9368902,23.1511179 C34.2559959,23.1511179 34.5112805,22.8958333 34.5112805,22.5767276 C34.5112805,22.257622 34.2559959,22.0023374 33.9368902,22.0023374 L15.6680894,22.0023374 Z" id="Shape" fill="#707070" fill-rule="nonzero"></path>
                            <circle id="Oval" fill="#2CCE7A" fill-rule="nonzero" cx="14.7693089" cy="3.16981707" r="1"></circle>
                            <path d="M2.20182927,3.79735772 L37.0322154,3.79735772" id="Shape" stroke="#727272" stroke-width="0.5"></path>
                            <path d="M12.110061,2.20182927 L12.110061,25.2731707" id="Shape" stroke="#727272" stroke-width="0.835000038"></path>
                        </g>
                        <path d="M46.2069894,27.0314083 C46.0683332,27.0930333 45.9758957,27.2316895 45.9758957,27.385752 L45.9758957,31.5762517 L26.3851562,31.5762517 C26.1694687,31.5762517 26,31.7457204 26,31.9614079 L26,38.0930949 C26,38.3087824 26.1694687,38.4782512 26.3851562,38.4782512 L45.9758957,38.4782512 L45.9758957,42.6841571 C45.9758957,42.8382196 46.0683332,42.9768758 46.2069894,43.0385008 C46.3456456,43.1001258 46.5151144,43.0693133 46.6229581,42.9614696 L54.2798638,35.3199701 C54.356895,35.2429389 54.3877075,35.1505014 54.3877075,35.0426577 C54.3877075,34.9348139 54.3414888,34.8423764 54.2798638,34.7653452 L46.6229581,27.1084395 C46.5151144,27.0005958 46.3610519,26.9697833 46.2069894,27.0314083 Z" id="Shape" fill="#7CCF7F" fill-rule="nonzero"></path>
                    </g>
                </g>
            </g>
        </g>
    </g>
</svg>