<?xml version="1.0" encoding="utf-8"?>
<!-- Generator: Adobe Illustrator 21.1.0, SVG Export Plug-In . SVG Version: 6.00 Build 0)  -->
<svg version="1.1" id="Layer_1" xmlns="http://www.w3.org/2000/svg" xmlns:xlink="http://www.w3.org/1999/xlink" x="0px" y="0px"
	 viewBox="0 0 550 550" style="enable-background:new 0 0 550 550;" xml:space="preserve">
<style type="text/css">
	.st0{fill:#D0D5D8;}
	.st1{fill:#FFFFFF;}
	.st2{fill:#BDC3C7;}
	.st3{enable-background:new    ;}
	.st4{fill:#464646;}
	.st5{opacity:0.2;clip-path:url(#SVGID_2_);}
	.st6{fill:#1AD077;}
	.st7{opacity:0.2;clip-path:url(#SVGID_4_);}
	.st8{fill:#EDC84C;}
	.st9{fill:#4A90E2;}
	.st10{fill:#67C892;}
	.st11{fill:#E96A6A;}
	.st12{opacity:0.2;clip-path:url(#SVGID_6_);}
	.st13{opacity:0.2;clip-path:url(#SVGID_8_);}
</style>
<g>
	<g>
		<path class="st0" d="M209.1,398.5V130.7c0-4.5,3.7-8.2,8.2-8.2h195.4c4.5,0,8.2,3.7,8.2,8.2v267.8c0,4.5-3.7,8.2-8.2,8.2H217.2
			C212.7,406.6,209.1,403,209.1,398.5z"/>
		<path class="st1" d="M409.5,400.6H220.4c-3.4,0-6.2-2.8-6.2-6.2V134.7c0-3.4,2.8-6.2,6.2-6.2h189.2c3.4,0,6.2,2.8,6.2,6.2v259.8
			C415.7,397.9,412.9,400.6,409.5,400.6z"/>
		<path class="st2" d="M338.7,143.9h-67.8c-2.3,0-4.1,1.8-4.1,4.1v5.7c0,2.3,1.8,4.1,4.1,4.1h67.8c2.3,0,4.1-1.8,4.1-4.1V148
			C342.8,145.8,341,143.9,338.7,143.9z"/>
		<path class="st2" d="M389.4,143.9h-34c-2.3,0-4.1,1.8-4.1,4.1v5.7c0,2.3,1.8,4.1,4.1,4.1h34c2.3,0,4.1-1.8,4.1-4.1V148
			C393.6,145.8,391.7,143.9,389.4,143.9z"/>
		<path class="st2" d="M388.9,258.7h-62c-6.6,0-12-5.4-12-12v-33.6c0-6.6,5.4-12,12-12h62c6.6,0,12,5.4,12,12v33.6
			C400.9,253.3,395.5,258.7,388.9,258.7z"/>
		<path class="st2" d="M292.8,258.7h-62c-6.6,0-12-5.4-12-12v-33.6c0-6.6,5.4-12,12-12h62c6.6,0,12,5.4,12,12v33.6
			C304.8,253.3,299.4,258.7,292.8,258.7z"/>
	</g>
	<g id="Ellipse_1_6_" class="st3">
		<g id="Ellipse_1_7_">
			<g>
				<path class="st4" d="M240.7,141.4c-8.4,0-15.3,6.9-15.3,15.3c0,8.5,6.8,15.3,15.3,15.3s15.3-6.9,15.3-15.3
					C256,148.3,249.2,141.4,240.7,141.4z M242.8,164.7c-4.4,1.2-8.9-1.4-10.1-5.8c-1.2-4.4,1.4-8.9,5.8-10.1s8.9,1.4,10.1,5.8
					S247.2,163.5,242.8,164.7z"/>
			</g>
		</g>
	</g>
	<g id="Layer_6_3_">
		
			<rect x="228.3" y="154.8" transform="matrix(6.604642e-03 -1 1 6.604642e-03 70.3619 384.1631)" class="st1" width="0.5" height="3.7"/>
		
			<rect x="228.6" y="151.9" transform="matrix(0.2465 -0.9691 0.9691 0.2465 23.4831 337.6877)" class="st1" width="0.5" height="3.7"/>
		
			<rect x="229.7" y="149.1" transform="matrix(0.4719 -0.8816 0.8816 0.4719 -11.6752 282.4924)" class="st1" width="0.5" height="3.7"/>
		
			<rect x="231.4" y="146.7" transform="matrix(0.6697 -0.7426 0.7426 0.6697 -33.8196 221.1214)" class="st1" width="0.5" height="3.7"/>
		
			<rect x="233.6" y="144.8" transform="matrix(0.8284 -0.5601 0.5601 0.8284 -42.0049 156.1582)" class="st1" width="0.5" height="3.7"/>
		
			<rect x="236.3" y="143.4" transform="matrix(0.9387 -0.3447 0.3447 0.9387 -35.5894 90.4359)" class="st1" width="0.5" height="3.7"/>
		
			<rect x="239.1" y="142.8" transform="matrix(0.994 -0.1094 0.1094 0.994 -14.3854 27.0585)" class="st1" width="0.5" height="3.7"/>
		
			<rect x="240.5" y="144.4" transform="matrix(0.1327 -0.9912 0.9912 0.1327 66.8055 365.6714)" class="st1" width="3.7" height="0.5"/>
		
			<rect x="243.3" y="145.1" transform="matrix(0.3667 -0.9303 0.9303 0.3667 20.0162 320.2104)" class="st1" width="3.7" height="0.5"/>
		
			<rect x="245.9" y="146.6" transform="matrix(0.5792 -0.8152 0.8152 0.5792 -15.4054 263.7802)" class="st1" width="3.7" height="0.5"/>
	</g>
	<g id="Group_1_4_">
		<g id="Group_2_4_">
			<g>
				<defs>
					<path id="SVGID_1_" d="M255.5,152.8c-2.2-8.2-10.6-13-18.7-10.9s-13,10.6-10.8,18.8s10.6,13,18.7,10.8
						C252.8,169.4,257.7,161,255.5,152.8z"/>
				</defs>
				<clipPath id="SVGID_2_">
					<use xlink:href="#SVGID_1_"  style="overflow:visible;"/>
				</clipPath>
				<g id="Rectangle_2_11_" class="st5">
					<g>
						<rect x="240" y="154.8" transform="matrix(0.9658 -0.2591 0.2591 0.9658 -32.0604 69.8398)" width="17.8" height="3.4"/>
					</g>
				</g>
			</g>
		</g>
		<g id="Rectangle_2_10_">
			<g>
				
					<rect x="237.2" y="152" transform="matrix(0.707 -0.7072 0.7072 0.707 -36.8802 218.3849)" class="st6" width="15.8" height="3.4"/>
			</g>
		</g>
		<g id="Rectangle_2_9_">
			<g>
				
					<rect x="237" y="151.5" transform="matrix(0.7069 -0.7073 0.7073 0.7069 -40.4086 214.5997)" class="st6" width="3.4" height="9.1"/>
			</g>
		</g>
	</g>
</g>
<g>
	<g>
		<path class="st0" d="M145,438.9V171.1c0-4.5,3.7-8.2,8.2-8.2h195.4c4.5,0,8.2,3.7,8.2,8.2v267.8c0,4.5-3.7,8.2-8.2,8.2H153.2
			C148.6,447.1,145,443.4,145,438.9z"/>
		<path class="st1" d="M345.5,441.1H156.3c-3.4,0-6.2-2.8-6.2-6.2V175.1c0-3.4,2.8-6.2,6.2-6.2h189.2c3.4,0,6.2,2.8,6.2,6.2v259.8
			C351.6,438.3,348.9,441.1,345.5,441.1z"/>
		<path class="st2" d="M332.7,240.6H255c-2.3,0-4.1,1.8-4.1,4.1v5.7c0,2.3,1.8,4.1,4.1,4.1h77.8c2.3,0,4.1-1.8,4.1-4.1v-5.7
			C336.9,242.4,335,240.6,332.7,240.6z"/>
		<path class="st2" d="M332.7,267.6H255c-2.3,0-4.1,1.8-4.1,4.1v5.7c0,2.3,1.8,4.1,4.1,4.1h77.8c2.3,0,4.1-1.8,4.1-4.1v-5.7
			C336.9,269.4,335,267.6,332.7,267.6z"/>
		<path class="st2" d="M332.7,294.6H255c-2.3,0-4.1,1.8-4.1,4.1v5.7c0,2.3,1.8,4.1,4.1,4.1h77.8c2.3,0,4.1-1.8,4.1-4.1v-5.7
			C336.9,296.4,335,294.6,332.7,294.6z"/>
		<path class="st2" d="M274.6,184.3h-67.8c-2.3,0-4.1,1.8-4.1,4.1v5.7c0,2.3,1.8,4.1,4.1,4.1h67.8c2.3,0,4.1-1.8,4.1-4.1v-5.7
			C278.7,186.2,276.9,184.3,274.6,184.3z"/>
		<path class="st2" d="M325.4,184.3h-34c-2.3,0-4.1,1.8-4.1,4.1v5.7c0,2.3,1.8,4.1,4.1,4.1h34c2.3,0,4.1-1.8,4.1-4.1v-5.7
			C329.5,186.2,327.6,184.3,325.4,184.3z"/>
		<path class="st2" d="M324.9,377.5h-62c-6.6,0-12-5.4-12-12v-33.6c0-6.6,5.4-12,12-12h62c6.6,0,12,5.4,12,12v33.6
			C336.9,372.1,331.5,377.5,324.9,377.5z"/>
		<path class="st2" d="M228.7,377.5h-62c-6.6,0-12-5.4-12-12v-33.6c0-6.6,5.4-12,12-12h62c6.6,0,12,5.4,12,12v33.6
			C240.7,372.1,235.3,377.5,228.7,377.5z"/>
	</g>
	<g id="Ellipse_1_4_" class="st3">
		<g id="Ellipse_1_5_">
			<g>
				<path class="st4" d="M176.9,181.9c-8.4,0-15.3,6.9-15.3,15.3s6.8,15.3,15.3,15.3s15.3-6.9,15.3-15.3S185.3,181.9,176.9,181.9z
					 M179,205.1c-4.4,1.2-8.9-1.4-10.1-5.8c-1.2-4.4,1.4-8.9,5.8-10.1s8.9,1.4,10.1,5.8S183.4,204,179,205.1z"/>
			</g>
		</g>
	</g>
	<g id="Layer_6_2_">
		
			<rect x="164.4" y="195.2" transform="matrix(6.604642e-03 -1 1 6.604642e-03 -33.5116 360.4706)" class="st1" width="0.5" height="3.7"/>
		
			<rect x="164.8" y="192.3" transform="matrix(0.2465 -0.9691 0.9691 0.2465 -63.8228 306.2642)" class="st1" width="0.5" height="3.7"/>
		
			<rect x="165.9" y="189.6" transform="matrix(0.4719 -0.8816 0.8816 0.4719 -81.048 247.5423)" class="st1" width="0.5" height="3.7"/>
		
			<rect x="167.6" y="187.1" transform="matrix(0.6697 -0.7426 0.7426 0.6697 -84.9396 187.0517)" class="st1" width="0.5" height="3.7"/>
		
			<rect x="169.8" y="185.2" transform="matrix(0.8284 -0.5601 0.5601 0.8284 -75.6065 127.3283)" class="st1" width="0.5" height="3.7"/>
		
			<rect x="172.4" y="183.9" transform="matrix(0.9387 -0.3447 0.3447 0.9387 -53.4414 70.9008)" class="st1" width="0.5" height="3.7"/>
		
			<rect x="175.3" y="183.2" transform="matrix(0.994 -0.1094 0.1094 0.994 -19.1922 20.3147)" class="st1" width="0.5" height="3.7"/>
		
			<rect x="176.6" y="184.8" transform="matrix(0.1327 -0.9912 0.9912 0.1327 -28.6591 337.4439)" class="st1" width="3.7" height="0.5"/>
		
			<rect x="179.5" y="185.6" transform="matrix(0.3667 -0.9303 0.9303 0.3667 -58.0469 286.4052)" class="st1" width="3.7" height="0.5"/>
		
			<rect x="182.1" y="187" transform="matrix(0.5792 -0.8152 0.8152 0.5792 -75.2407 228.7361)" class="st1" width="3.7" height="0.5"/>
	</g>
	<g id="Group_1_3_">
		<g id="Group_2_3_">
			<g>
				<defs>
					<path id="SVGID_3_" d="M191.6,193.2c-2.2-8.2-10.6-13-18.7-10.9c-8.1,2.2-13,10.6-10.8,18.8c2.2,8.2,10.6,13,18.7,10.8
						C189,209.8,193.8,201.4,191.6,193.2z"/>
				</defs>
				<clipPath id="SVGID_4_">
					<use xlink:href="#SVGID_3_"  style="overflow:visible;"/>
				</clipPath>
				<g id="Rectangle_2_8_" class="st7">
					<g>
						<rect x="176.2" y="195.3" transform="matrix(0.9658 -0.2591 0.2591 0.9658 -44.7186 54.6735)" width="17.8" height="3.4"/>
					</g>
				</g>
			</g>
		</g>
		<g id="Rectangle_2_7_">
			<g>
				
					<rect x="173.4" y="192.4" transform="matrix(0.707 -0.7072 0.7072 0.707 -84.1869 185.0687)" class="st6" width="15.8" height="3.4"/>
			</g>
		</g>
		<g id="Rectangle_2_6_">
			<g>
				
					<rect x="173.2" y="191.9" transform="matrix(0.7069 -0.7073 0.7073 0.7069 -87.7257 181.2812)" class="st6" width="3.4" height="9.1"/>
			</g>
		</g>
	</g>
</g>
<g>
	<g>
		<path class="st0" d="M78.3,483V215.1c0-4.5,3.7-8.2,8.2-8.2h195.4c4.5,0,8.2,3.7,8.2,8.2V483c0,4.5-3.7,8.2-8.2,8.2H86.5
			C82,491.1,78.3,487.5,78.3,483z"/>
		<path class="st1" d="M278.8,485.1H89.6c-3.4,0-6.2-2.8-6.2-6.2V219.1c0-3.4,2.8-6.2,6.2-6.2h189.2c3.4,0,6.2,2.8,6.2,6.2V479
			C284.9,482.4,282.2,485.1,278.8,485.1z"/>
		<path class="st2" d="M266.1,364H126.2c-2.3,0-4.1,1.8-4.1,4.1v5.7c0,2.3,1.8,4.1,4.1,4.1h139.9c2.3,0,4.1-1.8,4.1-4.1v-5.7
			C270.2,365.8,268.3,364,266.1,364z"/>
		<path class="st2" d="M266.1,402.1H126.2c-2.3,0-4.1,1.8-4.1,4.1v5.7c0,2.3,1.8,4.1,4.1,4.1h139.9c2.3,0,4.1-1.8,4.1-4.1v-5.7
			C270.2,403.9,268.3,402.1,266.1,402.1z"/>
		<path class="st2" d="M266.1,440.2H126.2c-2.3,0-4.1,1.8-4.1,4.1v5.7c0,2.3,1.8,4.1,4.1,4.1h139.9c2.3,0,4.1-1.8,4.1-4.1v-5.7
			C270.2,442,268.3,440.2,266.1,440.2z"/>
		<circle class="st8" cx="100.7" cy="371" r="7"/>
		<path class="st2" d="M266.1,324.6H126.2c-2.3,0-4.1,1.8-4.1,4.1v5.7c0,2.3,1.8,4.1,4.1,4.1h139.9c2.3,0,4.1-1.8,4.1-4.1v-5.7
			C270.2,326.5,268.3,324.6,266.1,324.6z"/>
		<circle class="st9" cx="100.7" cy="331.6" r="7"/>
		<path class="st2" d="M266.1,284.6H126.2c-2.3,0-4.1,1.8-4.1,4.1v5.7c0,2.3,1.8,4.1,4.1,4.1h139.9c2.3,0,4.1-1.8,4.1-4.1v-5.7
			C270.2,286.5,268.3,284.6,266.1,284.6z"/>
		<path class="st2" d="M207.9,228.4h-67.8c-2.3,0-4.1,1.8-4.1,4.1v5.7c0,2.3,1.8,4.1,4.1,4.1h67.8c2.3,0,4.1-1.8,4.1-4.1v-5.7
			C212.1,230.2,210.2,228.4,207.9,228.4z"/>
		<path class="st2" d="M258.7,228.4h-34c-2.3,0-4.1,1.8-4.1,4.1v5.7c0,2.3,1.8,4.1,4.1,4.1h34c2.3,0,4.1-1.8,4.1-4.1v-5.7
			C262.8,230.2,261,228.4,258.7,228.4z"/>
		<circle class="st10" cx="100.7" cy="291.6" r="7"/>
		<circle class="st11" cx="100.7" cy="409.1" r="7"/>
		<circle class="st10" cx="100.7" cy="447.2" r="7"/>
	</g>
	<g id="Ellipse_1_2_" class="st3">
		<g id="Ellipse_1_3_">
			<g>
				<path class="st4" d="M109.5,225.7c-8.4,0-15.3,6.9-15.3,15.3c0,8.5,6.8,15.3,15.3,15.3s15.3-6.9,15.3-15.3
					C124.7,232.6,117.9,225.7,109.5,225.7z M111.6,249c-4.4,1.2-8.9-1.4-10.1-5.8c-1.2-4.4,1.4-8.9,5.8-10.1
					c4.4-1.2,8.9,1.4,10.1,5.8C118.6,243.3,116,247.8,111.6,249z"/>
			</g>
		</g>
	</g>
	<g id="Layer_6_1_">
		
			<rect x="97" y="239.1" transform="matrix(6.604642e-03 -1 1 6.604642e-03 -144.3099 336.6667)" class="st1" width="0.5" height="3.7"/>
		
			<rect x="97.4" y="236.2" transform="matrix(0.2465 -0.9691 0.9691 0.2465 -157.1036 274.0148)" class="st1" width="0.5" height="3.7"/>
		
			<rect x="98.5" y="233.4" transform="matrix(0.4719 -0.8816 0.8816 0.4719 -155.3024 211.3011)" class="st1" width="0.5" height="3.7"/>
		
			<rect x="100.2" y="231" transform="matrix(0.6697 -0.7426 0.7426 0.6697 -139.7685 151.5019)" class="st1" width="0.5" height="3.7"/>
		
			<rect x="102.4" y="229.1" transform="matrix(0.8284 -0.5601 0.5601 0.8284 -111.7325 97.1161)" class="st1" width="0.5" height="3.7"/>
		
			<rect x="105" y="227.7" transform="matrix(0.9387 -0.3447 0.3447 0.9387 -72.6913 50.363)" class="st1" width="0.5" height="3.7"/>
		
			<rect x="107.9" y="227.1" transform="matrix(0.994 -0.1094 0.1094 0.994 -24.3954 13.2067)" class="st1" width="0.5" height="3.7"/>
		
			<rect x="109.2" y="228.7" transform="matrix(0.1327 -0.9912 0.9912 0.1327 -130.5746 308.7035)" class="st1" width="3.7" height="0.5"/>
		
			<rect x="112.1" y="229.4" transform="matrix(0.3667 -0.9303 0.9303 0.3667 -141.5291 251.4985)" class="st1" width="3.7" height="0.5"/>
		
			<rect x="114.7" y="230.8" transform="matrix(0.5792 -0.8152 0.8152 0.5792 -139.3524 192.267)" class="st1" width="3.7" height="0.5"/>
	</g>
	<g id="Group_1_2_">
		<g id="Group_2_2_">
			<g>
				<defs>
					<path id="SVGID_5_" d="M124.2,237.1c-2.2-8.2-10.6-13-18.7-10.9c-8.1,2.2-13,10.6-10.8,18.8c2.2,8.2,10.6,13,18.7,10.8
						C121.6,253.7,126.4,245.3,124.2,237.1z"/>
				</defs>
				<clipPath id="SVGID_6_">
					<use xlink:href="#SVGID_5_"  style="overflow:visible;"/>
				</clipPath>
				<g id="Rectangle_2_5_" class="st12">
					<g>
						<rect x="108.8" y="239.1" transform="matrix(0.9658 -0.2591 0.2591 0.9658 -58.3856 38.7126)" width="17.8" height="3.4"/>
					</g>
				</g>
			</g>
		</g>
		<g id="Rectangle_2_4_">
			<g>
				
					<rect x="106" y="236.3" transform="matrix(0.707 -0.7072 0.7072 0.707 -134.9499 150.269)" class="st6" width="15.8" height="3.4"/>
			</g>
		</g>
		<g id="Rectangle_2_3_">
			<g>
				
					<rect x="105.8" y="235.8" transform="matrix(0.7069 -0.7073 0.7073 0.7069 -138.4998 146.4792)" class="st6" width="3.4" height="9.1"/>
			</g>
		</g>
	</g>
</g>
<g>
	<g>
		<path class="st0" d="M9.3,530.4V262.6c0-4.5,3.7-8.2,8.2-8.2h195.4c4.5,0,8.2,3.7,8.2,8.2v267.8c0,4.5-3.7,8.2-8.2,8.2H17.4
			C12.9,538.6,9.3,534.9,9.3,530.4z"/>
		<path class="st1" d="M209.7,532.6H20.5c-3.4,0-6.2-2.8-6.2-6.2V266.6c0-3.4,2.8-6.2,6.2-6.2h189.2c3.4,0,6.2,2.8,6.2,6.2v259.8
			C215.9,529.8,213.1,532.6,209.7,532.6z"/>
		<path class="st2" d="M197,411.4H57.1c-2.3,0-4.1,1.8-4.1,4.1v5.7c0,2.3,1.8,4.1,4.1,4.1H197c2.3,0,4.1-1.8,4.1-4.1v-5.7
			C201.1,413.3,199.3,411.4,197,411.4z"/>
		<path class="st2" d="M197,449.5H57.1c-2.3,0-4.1,1.8-4.1,4.1v5.7c0,2.3,1.8,4.1,4.1,4.1H197c2.3,0,4.1-1.8,4.1-4.1v-5.7
			C201.1,451.4,199.3,449.5,197,449.5z"/>
		<path class="st2" d="M197,487.6H57.1c-2.3,0-4.1,1.8-4.1,4.1v5.7c0,2.3,1.8,4.1,4.1,4.1H197c2.3,0,4.1-1.8,4.1-4.1v-5.7
			C201.1,489.5,199.3,487.6,197,487.6z"/>
		<circle class="st11" cx="31.6" cy="418.4" r="7"/>
		<path class="st2" d="M197,372.1H57.1c-2.3,0-4.1,1.8-4.1,4.1v5.7c0,2.3,1.8,4.1,4.1,4.1H197c2.3,0,4.1-1.8,4.1-4.1v-5.7
			C201.1,373.9,199.3,372.1,197,372.1z"/>
		<circle class="st10" cx="31.6" cy="379.1" r="7"/>
		<path class="st2" d="M197,332.1H57.1c-2.3,0-4.1,1.8-4.1,4.1v5.7c0,2.3,1.8,4.1,4.1,4.1H197c2.3,0,4.1-1.8,4.1-4.1v-5.7
			C201.1,333.9,199.3,332.1,197,332.1z"/>
		<path class="st2" d="M138.9,275.8H71.1c-2.3,0-4.1,1.8-4.1,4.1v5.7c0,2.3,1.8,4.1,4.1,4.1h67.8c2.3,0,4.1-1.8,4.1-4.1V280
			C143,277.7,141.2,275.8,138.9,275.8z"/>
		<path class="st2" d="M189.6,275.8h-34c-2.3,0-4.1,1.8-4.1,4.1v5.7c0,2.3,1.8,4.1,4.1,4.1h34c2.3,0,4.1-1.8,4.1-4.1V280
			C193.7,277.7,191.9,275.8,189.6,275.8z"/>
		<circle class="st10" cx="31.6" cy="339.1" r="7"/>
		<circle class="st11" cx="31.6" cy="456.5" r="7"/>
		<circle class="st10" cx="31.6" cy="494.6" r="7"/>
	</g>
	<g id="Ellipse_1_1_" class="st3">
		<g id="Ellipse_1">
			<g>
				<path class="st4" d="M41.1,272.9c-8.4,0-15.3,6.9-15.3,15.3c0,8.5,6.8,15.3,15.3,15.3s15.3-6.9,15.3-15.3
					C56.3,279.8,49.5,272.9,41.1,272.9z M43.2,296.2c-4.4,1.2-8.9-1.4-10.1-5.8c-1.2-4.4,1.4-8.9,5.8-10.1s8.9,1.4,10.1,5.8
					C50.2,290.5,47.6,295,43.2,296.2z"/>
			</g>
		</g>
	</g>
	<g id="Layer_6">
		
			<rect x="28.6" y="286.3" transform="matrix(6.604642e-03 -1 1 6.604642e-03 -259.4518 315.1229)" class="st1" width="0.5" height="3.7"/>
		
			<rect x="29" y="283.4" transform="matrix(0.2465 -0.9691 0.9691 0.2465 -254.3776 243.2619)" class="st1" width="0.5" height="3.7"/>
		
			<rect x="30.1" y="280.6" transform="matrix(0.4719 -0.8816 0.8816 0.4719 -233.0268 175.8994)" class="st1" width="0.5" height="3.7"/>
		
			<rect x="31.8" y="278.2" transform="matrix(0.6697 -0.7426 0.7426 0.6697 -197.4017 116.2793)" class="st1" width="0.5" height="3.7"/>
		
			<rect x="34" y="276.3" transform="matrix(0.8284 -0.5601 0.5601 0.8284 -149.8932 66.8936)" class="st1" width="0.5" height="3.7"/>
		
			<rect x="36.6" y="274.9" transform="matrix(0.9387 -0.3447 0.3447 0.9387 -93.1476 29.672)" class="st1" width="0.5" height="3.7"/>
		<rect x="39.5" y="274.2" transform="matrix(0.994 -0.1094 0.1094 0.994 -29.9676 6.0053)" class="st1" width="0.5" height="3.7"/>
		
			<rect x="40.8" y="275.9" transform="matrix(0.1327 -0.9912 0.9912 0.1327 -236.6739 281.8143)" class="st1" width="3.7" height="0.5"/>
		
			<rect x="43.7" y="276.6" transform="matrix(0.3667 -0.9303 0.9303 0.3667 -228.7515 217.73)" class="st1" width="3.7" height="0.5"/>
		
			<rect x="46.3" y="278" transform="matrix(0.5792 -0.8152 0.8152 0.5792 -206.6027 156.3503)" class="st1" width="3.7" height="0.5"/>
	</g>
	<g id="Group_1_1_">
		<g id="Group_2_1_">
			<g>
				<defs>
					<path id="SVGID_7_" d="M55.8,284.3c-2.2-8.2-10.6-13-18.7-10.9s-13,10.6-10.8,18.8c2.2,8.2,10.6,13,18.7,10.8
						C53.2,300.8,58,292.5,55.8,284.3z"/>
				</defs>
				<clipPath id="SVGID_8_">
					<use xlink:href="#SVGID_7_"  style="overflow:visible;"/>
				</clipPath>
				<g id="Rectangle_2" class="st13">
					<g>
						<rect x="40.4" y="286.3" transform="matrix(0.9658 -0.2591 0.2591 0.9658 -72.9472 22.5969)" width="17.8" height="3.4"/>
					</g>
				</g>
			</g>
		</g>
		<g id="Rectangle_2_1_">
			<g>
				
					<rect x="37.6" y="283.5" transform="matrix(0.707 -0.7072 0.7072 0.707 -188.3612 115.7096)" class="st6" width="15.8" height="3.4"/>
			</g>
		</g>
		<g id="Rectangle_2_2_">
			<g>
				
					<rect x="37.4" y="283" transform="matrix(0.7069 -0.7073 0.7073 0.7069 -191.9227 111.9177)" class="st6" width="3.4" height="9.1"/>
			</g>
		</g>
	</g>
</g>
</svg>
