<?xml version="1.0" encoding="UTF-8"?>
<svg width="100px" height="84px" viewBox="0 0 100 84" version="1.1" xmlns="http://www.w3.org/2000/svg" xmlns:xlink="http://www.w3.org/1999/xlink">
    <!-- Generator: Sketch 49.1 (51147) - http://www.bohemiancoding.com/sketch -->
    <title>Output 2</title>
    <desc>Created with Sketch.</desc>
    <defs></defs>
    <g id="Sidebar-+-Homepage" stroke="none" stroke-width="1" fill="none" fill-rule="evenodd">
        <g id="Homepage--&gt;-Organisation-Copy" transform="translate(-103.000000, -206.000000)">
            <g id="Output-2" transform="translate(103.000000, 206.000000)">
                <path d="M94.2227652,0.161159128 L94.2227652,0 L93.7433413,0 L5.84897084,0 L5.369547,0 L5.369547,0.161159128 C2.49300396,0.354550082 0.351577482,2.67524153 0,5.47941035 L0,5.96288774 L0,64.3669558 C0,65.4950696 0.287654303,66.4620244 0.767078143,67.3000519 C1.88573377,69.2984251 3.54773641,70.2976117 5.84897084,70.2976117 L37.9064449,70.2976117 L37.9064449,78.4522635 L31.8017813,78.4522635 C30.2995866,78.4522635 29.1170078,79.6448411 29.1170078,81.1597369 C29.1170078,82.6746327 30.2995866,83.8672103 31.8017813,83.8672103 L67.7266077,83.8672103 C69.2288024,83.8672103 70.4433428,82.6746327 70.4433428,81.1597369 C70.4433428,79.6448411 69.2288024,78.4522635 67.7266077,78.4522635 L61.6219441,78.4522635 L61.6219441,70.2976117 L93.6794182,70.2976117 C95.9806526,70.2976117 97.6426552,69.2984251 98.7613109,67.3000519 C99.2726963,66.3975608 99.5923122,65.430606 99.5923122,64.3669558 L99.5923122,5.96288774 L99.5923122,5.47941035 C99.3046579,2.67524153 97.0034234,0.354550082 94.2227652,0.161159128 Z M94.2227652,5.96288774 L94.2227652,64.3669558 C94.2227652,64.7215058 94.0629572,64.8504331 93.7433413,64.8504331 L5.84897084,64.8504331 C5.49739335,64.8504331 5.369547,64.689274 5.369547,64.3669558 L5.369547,5.96288774 L5.369547,5.47941035 L94.2227652,5.47941035 L94.2227652,5.96288774 Z" id="Shape" fill="#626262" fill-rule="nonzero"></path>
                <path d="M47.1903537,42.9819453 C45.4447922,42.9819453 44.0302854,44.5390735 44.0302854,46.460636 L44.0302854,57.658707 L50.3203262,57.658707 L50.3203262,46.460636 C50.2902303,44.5390735 48.8757235,42.9819453 47.1903537,42.9819453 Z" id="Shape" fill="#6B9CD1" fill-rule="nonzero"></path>
                <path d="M58.7220951,33.5468841 C56.9765336,33.5468841 55.5620268,35.0887286 55.5620268,36.9914302 L55.5620268,57.658707 L61.8520676,57.658707 L61.8520676,36.9914302 C61.8520676,35.0887286 60.4074649,33.5468841 58.7220951,33.5468841 Z" id="Shape" fill="#ABC66A" fill-rule="nonzero"></path>
                <path d="M69.220689,46.1269656 C67.4667354,46.1269656 66.0454281,47.6037827 66.0454281,49.4262377 L66.0454281,57.658707 L72.3354688,57.658707 L72.3354688,49.4262377 C72.3354688,47.6037827 70.9746427,46.1269656 69.220689,46.1269656 Z" id="Shape" fill="#DB6E6E" fill-rule="nonzero"></path>
                <path d="M81.7855779,38.7885847 C80.0400164,38.7885847 78.6255096,40.2425122 78.6255096,42.0367205 L78.6255096,57.658707 L84.9155504,57.658707 L84.9155504,42.0367205 C84.9155504,40.2425122 83.5311395,38.7885847 81.7855779,38.7885847 Z" id="Shape" fill="#FFE669" fill-rule="nonzero"></path>
                <circle id="Oval" fill="#424242" fill-rule="nonzero" cx="17.8217822" cy="24.1118229" r="10.4834013"></circle>
                <circle id="Oval" fill="#999999" fill-rule="nonzero" cx="17.8217822" cy="24.1118229" r="7.3383809"></circle>
                <circle id="Oval" fill="#424242" fill-rule="nonzero" cx="17.8217822" cy="49.271986" r="10.4834013"></circle>
                <circle id="Oval" fill="#999999" fill-rule="nonzero" cx="17.8217822" cy="49.271986" r="7.3383809"></circle>
                <path d="M24.5226872,36.6919045 L8.00542421,36.6919045 C7.6242566,36.6919045 7.3383809,36.4672602 7.3383809,36.1677344 C7.3383809,35.8682087 7.6242566,35.6435644 8.00542421,35.6435644 L24.4909232,35.6435644 C24.8720908,35.6435644 25.1579666,35.8682087 25.1579666,36.1677344 C25.1897305,36.4672602 24.8720908,36.6919045 24.5226872,36.6919045 Z" id="Shape" fill="#BDC3C7" fill-rule="nonzero"></path>
                <path d="M24.5226872,12.5800815 L8.00542421,12.5800815 C7.6242566,12.5800815 7.3383809,12.3554372 7.3383809,12.0559115 C7.3383809,11.7563857 7.6242566,11.5317414 8.00542421,11.5317414 L24.4909232,11.5317414 C24.8720908,11.5317414 25.1579666,11.7563857 25.1579666,12.0559115 C25.1897305,12.3554372 24.8720908,12.5800815 24.5226872,12.5800815 Z" id="Shape" fill="#BDC3C7" fill-rule="nonzero"></path>
                <path d="M22.4870008,7.3383809 L7.91243386,7.3383809 C7.59351555,7.3383809 7.3383809,7.10541642 7.3383809,6.81421083 C7.3383809,6.52300524 7.59351555,6.29004077 7.91243386,6.29004077 L22.4870008,6.29004077 C22.8059191,6.29004077 23.0610538,6.52300524 23.0610538,6.81421083 C23.0929456,7.10541642 22.8059191,7.3383809 22.4870008,7.3383809 Z" id="Shape" fill="#BDC3C7" fill-rule="nonzero"></path>
                <path d="M55.0171777,7.3383809 L40.410968,7.3383809 C40.0920552,7.3383809 39.8369249,7.10541642 39.8369249,6.81421083 C39.8369249,6.52300524 40.0920552,6.29004077 40.410968,6.29004077 L54.9852864,6.29004077 C55.3041993,6.29004077 55.5593296,6.52300524 55.5593296,6.81421083 C55.5912209,7.10541642 55.3360906,7.3383809 55.0171777,7.3383809 Z" id="Shape" fill="#BDC3C7" fill-rule="nonzero"></path>
                <path d="M54.9245509,12.5800815 L38.4072879,12.5800815 C38.0261203,12.5800815 37.7402446,12.3554372 37.7402446,12.0559115 C37.7402446,11.7563857 38.0261203,11.5317414 38.4072879,11.5317414 L54.892787,11.5317414 C55.2739546,11.5317414 55.5598303,11.7563857 55.5598303,12.0559115 C55.5915942,12.3554372 55.2739546,12.5800815 54.9245509,12.5800815 Z" id="Shape" fill="#BDC3C7" fill-rule="nonzero"></path>
                <path d="M49.8854225,61.8520676 L38.2026245,61.8520676 C37.9560219,61.8520676 37.7402446,61.6074549 37.7402446,61.3278975 C37.7402446,61.0483401 37.9560219,60.8037274 38.2026245,60.8037274 L49.8545972,60.8037274 C50.1011998,60.8037274 50.3169771,61.0483401 50.3169771,61.3278975 C50.3478024,61.6074549 50.1628504,61.8520676 49.8854225,61.8520676 Z" id="Shape" fill="#BDC3C7" fill-rule="nonzero"></path>
                <path d="M92.7257894,7.3383809 L78.1512224,7.3383809 C77.8323041,7.3383809 77.5771695,7.10541642 77.5771695,6.81421083 C77.5771695,6.52300524 77.8323041,6.29004077 78.1512224,6.29004077 L92.7257894,6.29004077 C93.0447077,6.29004077 93.2998424,6.52300524 93.2998424,6.81421083 C93.3317342,7.10541642 93.0447077,7.3383809 92.7257894,7.3383809 Z" id="Shape" fill="#BDC3C7" fill-rule="nonzero"></path>
                <path d="M40.6994915,56.79219 L40.6994915,28.738442 C40.6994915,27.9010167 40.056177,27.2568433 39.2198681,27.2568433 C38.3835592,27.2568433 37.7402446,27.9010167 37.7402446,28.738442 L37.7402446,56.79219 L37.7402446,58.2737887 C37.7402446,59.111214 38.3835592,59.7553873 39.2198681,59.7553873 L40.6994915,59.7553873 L87.6292874,59.7553873 C88.4655963,59.7553873 89.1089109,59.111214 89.1089109,58.2737887 C89.1089109,57.4363634 88.4655963,56.79219 87.6292874,56.79219 L40.6994915,56.79219 Z" id="Shape" fill="#707070" fill-rule="nonzero"></path>
                <circle id="Oval" fill="#2CCE7A" fill-rule="nonzero" cx="38.2644147" cy="6.81421083" r="1"></circle>
                <path d="M3.66919045,9.43506115 L96.4472918,9.43506115" id="Shape" stroke="#626262" stroke-width="1.83500004"></path>
                <path d="M31.4502038,3.66919045 L31.4502038,66.0454281" id="Shape" stroke="#626262" stroke-width="1.83500004"></path>
            </g>
        </g>
    </g>
</svg>